<svg width="774" height="218" viewBox="0 0 774 218" fill="none" xmlns="http://www.w3.org/2000/svg">
<path d="M6.92904e-07 156.5V116L76.75 6.49999H130.5V114H149.75V156.5H130.5V186.5H81V156.5H6.92904e-07ZM84.75 61.75L50.25 114H84.75V61.75ZM168.352 147.25C184.518 134.583 197.768 123.667 208.102 114.5C218.435 105.333 227.102 95.9167 234.102 86.25C241.102 76.4167 244.602 67.0833 244.602 58.25C244.602 52.9167 243.352 48.75 240.852 45.75C238.518 42.75 235.018 41.25 230.352 41.25C225.518 41.25 221.768 43.3333 219.102 47.5C216.435 51.5 215.185 57.4167 215.352 65.25H167.852C168.352 50.4167 171.602 38.1667 177.602 28.5C183.602 18.6667 191.435 11.5 201.102 6.99999C210.768 2.33332 221.518 -1.28746e-05 233.352 -1.28746e-05C253.852 -1.28746e-05 269.102 5.08332 279.102 15.25C289.102 25.4167 294.102 38.5833 294.102 54.75C294.102 72.0833 288.268 88.3333 276.602 103.5C265.102 118.667 250.685 132.25 233.352 144.25H295.852V184H168.352V147.25ZM369.186 144.5L342.436 217.5H311.436L324.436 144.5H369.186ZM393.799 156.5V116L470.549 6.49999H524.299V114H543.549V156.5H524.299V186.5H474.799V156.5H393.799ZM478.549 61.75L444.049 114H478.549V61.75ZM773.65 10.25V186.5H724.65V89.25L691.4 186.5H650.4L616.9 88.5V186.5H567.9V10.25H627.15L671.4 124.75L714.65 10.25H773.65Z" fill="white"/>
</svg>
