<svg width="723" height="218" viewBox="0 0 723 218" fill="none" xmlns="http://www.w3.org/2000/svg">
<path d="M0.5 147.25C16.6667 134.583 29.9167 123.667 40.25 114.5C50.5833 105.333 59.25 95.9167 66.25 86.25C73.25 76.4167 76.75 67.0833 76.75 58.25C76.75 52.9167 75.5 48.75 73 45.75C70.6667 42.75 67.1667 41.25 62.5 41.25C57.6667 41.25 53.9167 43.3333 51.25 47.5C48.5833 51.5 47.3333 57.4167 47.5 65.25H3.39001e-07C0.5 50.4167 3.75 38.1667 9.75 28.5C15.75 18.6667 23.5833 11.5 33.25 6.99999C42.9167 2.33332 53.6667 -1.28746e-05 65.5 -1.28746e-05C86 -1.28746e-05 101.25 5.08332 111.25 15.25C121.25 25.4167 126.25 38.5833 126.25 54.75C126.25 72.0833 120.417 88.3333 108.75 103.5C97.25 118.667 82.8333 132.25 65.5 144.25H128V184H0.5V147.25ZM261.334 40.25L201.334 186.5H151.084L211.584 46H140.334V4H261.334V40.25ZM332.193 144.5L305.443 217.5H274.443L287.443 144.5H332.193ZM440.557 56.25C439.39 50.5833 437.473 46.4167 434.807 43.75C432.14 41.0833 428.223 39.75 423.057 39.75C415.223 39.75 409.723 43.4167 406.557 50.75C403.557 58.0833 401.973 69.5833 401.807 85.25C405.14 80.0833 409.973 76 416.307 73C422.64 70 429.64 68.5 437.307 68.5C453.473 68.5 466.39 73.5 476.057 83.5C485.89 93.5 490.807 107.833 490.807 126.5C490.807 138.833 488.223 149.667 483.057 159C478.057 168.167 470.723 175.25 461.057 180.25C451.557 185.25 440.307 187.75 427.307 187.75C401.473 187.75 383.473 179.75 373.307 163.75C363.307 147.583 358.307 124.75 358.307 95.25C358.307 62.5833 363.64 38.5833 374.307 23.25C384.973 7.91665 402.14 0.249984 425.807 0.249984C444.973 0.249984 459.473 5.66666 469.307 16.5C479.307 27.1667 484.89 40.4167 486.057 56.25H440.557ZM425.307 106.5C419.473 106.5 414.64 108.167 410.807 111.5C407.14 114.833 405.307 119.583 405.307 125.75C405.307 132.25 407.057 137.25 410.557 140.75C414.057 144.25 419.057 146 425.557 146C431.557 146 436.223 144.333 439.557 141C443.057 137.5 444.807 132.583 444.807 126.25C444.807 120.083 443.057 115.25 439.557 111.75C436.223 108.25 431.473 106.5 425.307 106.5ZM722.498 10.25V186.5H673.498V89.25L640.248 186.5H599.248L565.748 88.5V186.5H516.748V10.25H575.998L620.248 124.75L663.498 10.25H722.498Z" fill="white"/>
</svg>
