<svg width="719" height="218" viewBox="0 0 719 218" fill="none" xmlns="http://www.w3.org/2000/svg">
<path d="M6.92904e-07 156.5V116L76.75 6.49999H130.5V114H149.75V156.5H130.5V186.5H81V156.5H6.92904e-07ZM84.75 61.75L50.25 114H84.75V61.75ZM164.602 49.75V3.75H241.602V186.5H190.352V49.75H164.602ZM323.531 144.5L296.781 217.5H265.781L278.781 144.5H323.531ZM374.645 87.25C359.811 79.0833 352.395 66.3333 352.395 49C352.395 40 354.728 31.8333 359.395 24.5C364.228 17 371.478 11.0833 381.145 6.74999C390.811 2.24999 402.728 -1.28746e-05 416.895 -1.28746e-05C431.061 -1.28746e-05 442.978 2.24999 452.645 6.74999C462.311 11.0833 469.478 17 474.145 24.5C478.978 31.8333 481.395 40 481.395 49C481.395 57.8333 479.395 65.5 475.395 72C471.561 78.3333 466.145 83.4167 459.145 87.25C467.811 91.75 474.395 97.75 478.895 105.25C483.395 112.75 485.645 121.583 485.645 131.75C485.645 143.917 482.561 154.417 476.395 163.25C470.228 171.917 461.895 178.5 451.395 183C441.061 187.5 429.561 189.75 416.895 189.75C404.228 189.75 392.645 187.5 382.145 183C371.811 178.5 363.561 171.917 357.395 163.25C351.228 154.417 348.145 143.917 348.145 131.75C348.145 121.583 350.395 112.75 354.895 105.25C359.395 97.75 365.978 91.75 374.645 87.25ZM433.395 56.75C433.395 50.9167 431.895 46.4167 428.895 43.25C425.895 39.9167 421.895 38.25 416.895 38.25C412.061 38.25 408.061 39.9167 404.895 43.25C401.895 46.5833 400.395 51.0833 400.395 56.75C400.395 62.4167 401.895 66.8333 404.895 70C408.061 73.1667 412.061 74.75 416.895 74.75C421.728 74.75 425.645 73.1667 428.645 70C431.811 66.8333 433.395 62.4167 433.395 56.75ZM416.895 108.25C410.561 108.25 405.395 110.167 401.395 114C397.561 117.667 395.645 122.667 395.645 129C395.645 135 397.561 139.917 401.395 143.75C405.228 147.583 410.395 149.5 416.895 149.5C423.395 149.5 428.478 147.583 432.145 143.75C435.978 139.917 437.895 135 437.895 129C437.895 122.667 435.978 117.667 432.145 114C428.311 110.167 423.228 108.25 416.895 108.25ZM718.475 10.25V186.5H669.475V89.25L636.225 186.5H595.225L561.725 88.5V186.5H512.725V10.25H571.975L616.225 124.75L659.475 10.25H718.475Z" fill="white"/>
</svg>
