<svg width="786" height="422" viewBox="0 0 786 422" fill="none" xmlns="http://www.w3.org/2000/svg">
<path d="M91.6417 354.93V3.93M145.642 363.93V354.93M210.642 363.93V354.93M275.642 363.93V354.93M340.642 363.93V354.93M405.642 363.93V354.93M470.642 363.93V354.93M535.642 363.93V354.93M600.642 363.93V354.93M665.642 363.93V354.93M730.642 363.93V354.93M83.1417 91.93H92.1417M83.1417 179.43H92.1417M83.1417 266.93H92.1417M83.1417 354.43H785.142M83.1417 4.43H92.1417M404.962 418.938H401.146L400.414 420.93H399.526L402.586 412.65H403.534L406.582 420.93H405.694L404.962 418.938ZM404.71 418.242L403.054 413.706L401.398 418.242H404.71ZM411.002 414.258C411.786 414.258 412.426 414.502 412.922 414.99C413.418 415.47 413.666 416.17 413.666 417.09V420.93H412.838V417.186C412.838 416.474 412.658 415.93 412.298 415.554C411.946 415.178 411.462 414.99 410.846 414.99C410.214 414.99 409.71 415.19 409.334 415.59C408.958 415.99 408.77 416.578 408.77 417.354V420.93H407.93V414.378H408.77V415.494C408.978 415.094 409.278 414.79 409.67 414.582C410.062 414.366 410.506 414.258 411.002 414.258ZM418.596 414.258C419.38 414.258 420.02 414.502 420.516 414.99C421.012 415.47 421.26 416.17 421.26 417.09V420.93H420.432V417.186C420.432 416.474 420.252 415.93 419.892 415.554C419.54 415.178 419.056 414.99 418.44 414.99C417.808 414.99 417.304 415.19 416.928 415.59C416.552 415.99 416.364 416.578 416.364 417.354V420.93H415.524V414.378H416.364V415.494C416.572 415.094 416.872 414.79 417.264 414.582C417.656 414.366 418.1 414.258 418.596 414.258ZM429.045 417.318C429.045 417.606 429.037 417.826 429.021 417.978H423.585C423.609 418.474 423.729 418.898 423.945 419.25C424.161 419.602 424.445 419.87 424.797 420.054C425.149 420.23 425.533 420.318 425.949 420.318C426.493 420.318 426.949 420.186 427.317 419.922C427.693 419.658 427.941 419.302 428.061 418.854H428.949C428.789 419.494 428.445 420.018 427.917 420.426C427.397 420.826 426.741 421.026 425.949 421.026C425.333 421.026 424.781 420.89 424.293 420.618C423.805 420.338 423.421 419.946 423.141 419.442C422.869 418.93 422.733 418.334 422.733 417.654C422.733 416.974 422.869 416.378 423.141 415.866C423.413 415.354 423.793 414.962 424.281 414.69C424.769 414.418 425.325 414.282 425.949 414.282C426.573 414.282 427.117 414.418 427.581 414.69C428.053 414.962 428.413 415.33 428.661 415.794C428.917 416.25 429.045 416.758 429.045 417.318ZM428.193 417.294C428.201 416.806 428.101 416.39 427.893 416.046C427.693 415.702 427.417 415.442 427.065 415.266C426.713 415.09 426.329 415.002 425.913 415.002C425.289 415.002 424.757 415.202 424.317 415.602C423.877 416.002 423.633 416.566 423.585 417.294H428.193ZM426.993 412.446L424.533 413.874V413.226L426.993 411.69V412.446ZM436.51 417.318C436.51 417.606 436.502 417.826 436.486 417.978H431.05C431.074 418.474 431.194 418.898 431.41 419.25C431.626 419.602 431.91 419.87 432.262 420.054C432.614 420.23 432.998 420.318 433.414 420.318C433.958 420.318 434.414 420.186 434.782 419.922C435.158 419.658 435.406 419.302 435.526 418.854H436.414C436.254 419.494 435.91 420.018 435.382 420.426C434.862 420.826 434.206 421.026 433.414 421.026C432.798 421.026 432.246 420.89 431.758 420.618C431.27 420.338 430.886 419.946 430.606 419.442C430.334 418.93 430.198 418.334 430.198 417.654C430.198 416.974 430.334 416.378 430.606 415.866C430.878 415.354 431.258 414.962 431.746 414.69C432.234 414.418 432.79 414.282 433.414 414.282C434.038 414.282 434.582 414.418 435.046 414.69C435.518 414.962 435.878 415.33 436.126 415.794C436.382 416.25 436.51 416.758 436.51 417.318ZM435.658 417.294C435.666 416.806 435.566 416.39 435.358 416.046C435.158 415.702 434.882 415.442 434.53 415.266C434.178 415.09 433.794 415.002 433.378 415.002C432.754 415.002 432.222 415.202 431.782 415.602C431.342 416.002 431.098 416.566 431.05 417.294H435.658ZM1.75367 279.664H2.44967V283.36H5.58167V280.24H6.27767V283.36H10.1417V284.2H1.75367V279.664ZM4.75367 277.443C4.34567 277.259 4.02967 276.979 3.80567 276.603C3.58167 276.219 3.46967 275.75 3.46967 275.198H4.34567V275.427C4.34567 276.035 4.50967 276.523 4.83767 276.891C5.16567 277.259 5.71367 277.443 6.48167 277.443H10.1417V278.283H3.58967V277.443H4.75367ZM6.85367 274.319C6.18167 274.319 5.59367 274.187 5.08967 273.923C4.57767 273.651 4.18567 273.279 3.91367 272.807C3.63367 272.327 3.49367 271.787 3.49367 271.187C3.49367 270.563 3.63767 270.027 3.92567 269.579C4.21367 269.123 4.58167 268.795 5.02967 268.595H3.58967V267.755H10.1417V268.595H8.68967C9.13767 268.803 9.50967 269.135 9.80567 269.591C10.0937 270.039 10.2377 270.575 10.2377 271.199C10.2377 271.791 10.0977 272.327 9.81767 272.807C9.53767 273.279 9.14167 273.651 8.62967 273.923C8.11767 274.187 7.52567 274.319 6.85367 274.319ZM6.86567 268.595C6.33767 268.595 5.87367 268.703 5.47367 268.919C5.07367 269.135 4.76567 269.431 4.54967 269.807C4.33367 270.175 4.22567 270.583 4.22567 271.031C4.22567 271.495 4.32967 271.911 4.53767 272.279C4.74567 272.647 5.04967 272.939 5.44967 273.155C5.84167 273.363 6.30967 273.467 6.85367 273.467C7.38967 273.467 7.86167 273.363 8.26967 273.155C8.66967 272.939 8.97767 272.647 9.19367 272.279C9.40167 271.911 9.50567 271.495 9.50567 271.031C9.50567 270.583 9.39767 270.175 9.18167 269.807C8.96567 269.431 8.65767 269.135 8.25767 268.919C7.85767 268.703 7.39367 268.595 6.86567 268.595ZM3.46967 262.765C3.46967 261.981 3.71367 261.341 4.20167 260.845C4.68167 260.349 5.38167 260.101 6.30167 260.101H10.1417V260.929H6.39767C5.68567 260.929 5.14167 261.109 4.76567 261.469C4.38967 261.821 4.20167 262.305 4.20167 262.921C4.20167 263.553 4.40167 264.057 4.80167 264.433C5.20167 264.809 5.78967 264.997 6.56567 264.997H10.1417V265.837H3.58967V264.997H4.70567C4.30567 264.789 4.00167 264.489 3.79367 264.097C3.57767 263.705 3.46967 263.261 3.46967 262.765ZM9.52967 255.447C9.52967 254.895 9.39767 254.435 9.13367 254.067C8.86167 253.691 8.48567 253.447 8.00567 253.335V252.435C8.63767 252.579 9.15367 252.891 9.55367 253.371C9.95367 253.843 10.1777 254.443 10.2257 255.171H10.9457C10.9297 254.699 11.0177 254.327 11.2097 254.055C11.4097 253.775 11.6937 253.635 12.0617 253.635C12.4217 253.635 12.7057 253.763 12.9137 254.019C13.1297 254.275 13.2377 254.615 13.2377 255.039V256.239H12.6737V255.207C12.6737 254.911 12.6217 254.695 12.5177 254.559C12.4217 254.415 12.2697 254.343 12.0617 254.343C11.6777 254.343 11.4857 254.631 11.4857 255.207V255.759H10.2257C10.1777 256.319 10.0137 256.815 9.73367 257.247C9.44567 257.679 9.05767 258.019 8.56967 258.267C8.07367 258.507 7.50567 258.627 6.86567 258.627C6.18567 258.627 5.59367 258.491 5.08967 258.219C4.57767 257.947 4.18567 257.571 3.91367 257.091C3.63367 256.611 3.49367 256.063 3.49367 255.447C3.49367 254.639 3.69367 253.975 4.09367 253.455C4.49367 252.927 5.03767 252.587 5.72567 252.435V253.335C5.25367 253.447 4.88567 253.691 4.62167 254.067C4.34967 254.435 4.21367 254.895 4.21367 255.447C4.21367 255.887 4.31367 256.283 4.51367 256.635C4.71367 256.987 5.01367 257.267 5.41367 257.475C5.80567 257.675 6.28967 257.775 6.86567 257.775C7.44167 257.775 7.92967 257.675 8.32967 257.475C8.72967 257.267 9.02967 256.987 9.22967 256.635C9.42967 256.283 9.52967 255.887 9.52967 255.447ZM6.85367 251.268C6.18167 251.268 5.59367 251.136 5.08967 250.872C4.57767 250.6 4.18567 250.228 3.91367 249.756C3.63367 249.276 3.49367 248.736 3.49367 248.136C3.49367 247.512 3.63767 246.976 3.92567 246.528C4.21367 246.072 4.58167 245.744 5.02967 245.544H3.58967V244.704H10.1417V245.544H8.68967C9.13767 245.752 9.50967 246.084 9.80567 246.54C10.0937 246.988 10.2377 247.524 10.2377 248.148C10.2377 248.74 10.0977 249.276 9.81767 249.756C9.53767 250.228 9.14167 250.6 8.62967 250.872C8.11767 251.136 7.52567 251.268 6.85367 251.268ZM6.86567 245.544C6.33767 245.544 5.87367 245.652 5.47367 245.868C5.07367 246.084 4.76567 246.38 4.54967 246.756C4.33367 247.124 4.22567 247.532 4.22567 247.98C4.22567 248.444 4.32967 248.86 4.53767 249.228C4.74567 249.596 5.04967 249.888 5.44967 250.104C5.84167 250.312 6.30967 250.416 6.85367 250.416C7.38967 250.416 7.86167 250.312 8.26967 250.104C8.66967 249.888 8.97767 249.596 9.19367 249.228C9.40167 248.86 9.50567 248.444 9.50567 247.98C9.50567 247.532 9.39767 247.124 9.18167 246.756C8.96567 246.38 8.65767 246.084 8.25767 245.868C7.85767 245.652 7.39367 245.544 6.86567 245.544ZM2.35367 242.366C2.35367 242.534 2.29367 242.678 2.17367 242.798C2.05367 242.918 1.90567 242.978 1.72967 242.978C1.55367 242.978 1.40967 242.918 1.29767 242.798C1.17767 242.678 1.11767 242.534 1.11767 242.366C1.11767 242.198 1.17767 242.054 1.29767 241.934C1.40967 241.814 1.55367 241.754 1.72967 241.754C1.90567 241.754 2.05367 241.814 2.17367 241.934C2.29367 242.054 2.35367 242.198 2.35367 242.366ZM3.58967 241.946H10.1417V242.786H3.58967V241.946ZM10.2377 237.788C10.2377 238.54 10.0657 239.156 9.72167 239.636C9.36967 240.108 8.89367 240.372 8.29367 240.428V239.564C8.66167 239.524 8.96167 239.352 9.19367 239.048C9.41767 238.736 9.52967 238.32 9.52967 237.8C9.52967 237.344 9.42167 236.988 9.20567 236.732C8.98967 236.468 8.72167 236.336 8.40167 236.336C8.17767 236.336 7.99367 236.408 7.84967 236.552C7.70567 236.696 7.59367 236.88 7.51367 237.104C7.42567 237.32 7.33367 237.616 7.23767 237.992C7.10967 238.48 6.98167 238.876 6.85367 239.18C6.72567 239.484 6.53767 239.744 6.28967 239.96C6.03367 240.168 5.69367 240.272 5.26967 240.272C4.94967 240.272 4.65367 240.176 4.38167 239.984C4.10967 239.792 3.89367 239.52 3.73367 239.168C3.57367 238.816 3.49367 238.416 3.49367 237.968C3.49367 237.264 3.67367 236.696 4.03367 236.264C4.38567 235.832 4.87367 235.6 5.49767 235.568V236.408C5.11367 236.432 4.80567 236.584 4.57367 236.864C4.33367 237.136 4.21367 237.512 4.21367 237.992C4.21367 238.416 4.31367 238.76 4.51367 239.024C4.71367 239.288 4.96167 239.42 5.25767 239.42C5.51367 239.42 5.72567 239.344 5.89367 239.192C6.05367 239.032 6.18167 238.836 6.27767 238.604C6.36567 238.372 6.46567 238.06 6.57767 237.668C6.70567 237.196 6.82967 236.82 6.94967 236.54C7.06967 236.26 7.24567 236.02 7.47767 235.82C7.70967 235.62 8.01767 235.516 8.40167 235.508C8.75367 235.508 9.06967 235.604 9.34967 235.796C9.62167 235.988 9.83767 236.256 9.99767 236.6C10.1577 236.944 10.2377 237.34 10.2377 237.788ZM6.85367 231.018C6.18167 231.018 5.59367 230.886 5.08967 230.622C4.57767 230.35 4.18567 229.978 3.91367 229.506C3.63367 229.026 3.49367 228.486 3.49367 227.886C3.49367 227.262 3.63767 226.726 3.92567 226.278C4.21367 225.822 4.58167 225.494 5.02967 225.294H3.58967V224.454H10.1417V225.294H8.68967C9.13767 225.502 9.50967 225.834 9.80567 226.29C10.0937 226.738 10.2377 227.274 10.2377 227.898C10.2377 228.49 10.0977 229.026 9.81767 229.506C9.53767 229.978 9.14167 230.35 8.62967 230.622C8.11767 230.886 7.52567 231.018 6.85367 231.018ZM6.86567 225.294C6.33767 225.294 5.87367 225.402 5.47367 225.618C5.07367 225.834 4.76567 226.13 4.54967 226.506C4.33367 226.874 4.22567 227.282 4.22567 227.73C4.22567 228.194 4.32967 228.61 4.53767 228.978C4.74567 229.346 5.04967 229.638 5.44967 229.854C5.84167 230.062 6.30967 230.166 6.85367 230.166C7.38967 230.166 7.86167 230.062 8.26967 229.854C8.66967 229.638 8.97767 229.346 9.19367 228.978C9.40167 228.61 9.50567 228.194 9.50567 227.73C9.50567 227.282 9.39767 226.874 9.18167 226.506C8.96567 226.13 8.65767 225.834 8.25767 225.618C7.85767 225.402 7.39367 225.294 6.86567 225.294ZM3.58967 217.136L13.2257 221.024V221.9L10.1057 220.628L3.58967 223.316V222.392L9.18167 220.16L3.58967 218V217.136ZM6.85367 216.381C6.18167 216.381 5.59367 216.249 5.08967 215.985C4.57767 215.713 4.18567 215.341 3.91367 214.869C3.63367 214.389 3.49367 213.849 3.49367 213.249C3.49367 212.625 3.63767 212.089 3.92567 211.641C4.21367 211.185 4.58167 210.857 5.02967 210.657H3.58967V209.817H10.1417V210.657H8.68967C9.13767 210.865 9.50967 211.197 9.80567 211.653C10.0937 212.101 10.2377 212.637 10.2377 213.261C10.2377 213.853 10.0977 214.389 9.81767 214.869C9.53767 215.341 9.14167 215.713 8.62967 215.985C8.11767 216.249 7.52567 216.381 6.85367 216.381ZM6.86567 210.657C6.33767 210.657 5.87367 210.765 5.47367 210.981C5.07367 211.197 4.76567 211.493 4.54967 211.869C4.33367 212.237 4.22567 212.645 4.22567 213.093C4.22567 213.557 4.32967 213.973 4.53767 214.341C4.74567 214.709 5.04967 215.001 5.44967 215.217C5.84167 215.425 6.30967 215.529 6.85367 215.529C7.38967 215.529 7.86167 215.425 8.26967 215.217C8.66967 215.001 8.97767 214.709 9.19367 214.341C9.40167 213.973 9.50567 213.557 9.50567 213.093C9.50567 212.645 9.39767 212.237 9.18167 211.869C8.96567 211.493 8.65767 211.197 8.25767 210.981C7.85767 210.765 7.39367 210.657 6.86567 210.657ZM3.46967 204.828C3.46967 204.044 3.71367 203.404 4.20167 202.908C4.68167 202.412 5.38167 202.164 6.30167 202.164H10.1417V202.992H6.39767C5.68567 202.992 5.14167 203.172 4.76567 203.532C4.38967 203.884 4.20167 204.368 4.20167 204.984C4.20167 205.616 4.40167 206.12 4.80167 206.496C5.20167 206.872 5.78967 207.06 6.56567 207.06H10.1417V207.9H3.58967V207.06H4.70567C4.30567 206.852 4.00167 206.552 3.79367 206.16C3.57767 205.768 3.46967 205.324 3.46967 204.828ZM4.29767 199.214H8.36567C8.76567 199.214 9.04167 199.138 9.19367 198.986C9.34567 198.834 9.42167 198.566 9.42167 198.182V197.414H10.1417V198.314C10.1417 198.906 10.0057 199.346 9.73367 199.634C9.45367 199.922 8.99767 200.066 8.36567 200.066H4.29767V200.978H3.58967V200.066H1.94567V199.214H3.58967V197.414H4.29767V199.214ZM6.52967 186.808C6.81767 186.808 7.03767 186.816 7.18967 186.832V192.268C7.68567 192.244 8.10967 192.124 8.46167 191.908C8.81367 191.692 9.08167 191.408 9.26567 191.056C9.44167 190.704 9.52967 190.32 9.52967 189.904C9.52967 189.36 9.39767 188.904 9.13367 188.536C8.86967 188.16 8.51367 187.912 8.06567 187.792V186.904C8.70567 187.064 9.22967 187.408 9.63767 187.936C10.0377 188.456 10.2377 189.112 10.2377 189.904C10.2377 190.52 10.1017 191.072 9.82967 191.56C9.54967 192.048 9.15767 192.432 8.65367 192.712C8.14167 192.984 7.54567 193.12 6.86567 193.12C6.18567 193.12 5.58967 192.984 5.07767 192.712C4.56567 192.44 4.17367 192.06 3.90167 191.572C3.62967 191.084 3.49367 190.528 3.49367 189.904C3.49367 189.28 3.62967 188.736 3.90167 188.272C4.17367 187.8 4.54167 187.44 5.00567 187.192C5.46167 186.936 5.96967 186.808 6.52967 186.808ZM6.50567 187.66C6.01767 187.652 5.60167 187.752 5.25767 187.96C4.91367 188.16 4.65367 188.436 4.47767 188.788C4.30167 189.14 4.21367 189.524 4.21367 189.94C4.21367 190.564 4.41367 191.096 4.81367 191.536C5.21367 191.976 5.77767 192.22 6.50567 192.268V187.66ZM1.65767 188.86L3.08567 191.32H2.43767L0.901672 188.86H1.65767ZM4.29767 184.179H8.36567C8.76567 184.179 9.04167 184.103 9.19367 183.951C9.34567 183.799 9.42167 183.531 9.42167 183.147V182.379H10.1417V183.279C10.1417 183.871 10.0057 184.311 9.73367 184.599C9.45367 184.887 8.99767 185.031 8.36567 185.031H4.29767V185.943H3.58967V185.031H1.94567V184.179H3.58967V182.379H4.29767V184.179ZM6.52967 175.065C6.81767 175.065 7.03767 175.073 7.18967 175.089V180.525C7.68567 180.501 8.10967 180.381 8.46167 180.165C8.81367 179.949 9.08167 179.665 9.26567 179.313C9.44167 178.961 9.52967 178.577 9.52967 178.161C9.52967 177.617 9.39767 177.161 9.13367 176.793C8.86967 176.417 8.51367 176.169 8.06567 176.049V175.161C8.70567 175.321 9.22967 175.665 9.63767 176.193C10.0377 176.713 10.2377 177.369 10.2377 178.161C10.2377 178.777 10.1017 179.329 9.82967 179.817C9.54967 180.305 9.15767 180.689 8.65367 180.969C8.14167 181.241 7.54567 181.377 6.86567 181.377C6.18567 181.377 5.58967 181.241 5.07767 180.969C4.56567 180.697 4.17367 180.317 3.90167 179.829C3.62967 179.341 3.49367 178.785 3.49367 178.161C3.49367 177.537 3.62967 176.993 3.90167 176.529C4.17367 176.057 4.54167 175.697 5.00567 175.449C5.46167 175.193 5.96967 175.065 6.52967 175.065ZM6.50567 175.917C6.01767 175.909 5.60167 176.009 5.25767 176.217C4.91367 176.417 4.65367 176.693 4.47767 177.045C4.30167 177.397 4.21367 177.781 4.21367 178.197C4.21367 178.821 4.41367 179.353 4.81367 179.793C5.21367 180.233 5.77767 180.477 6.50567 180.525V175.917ZM1.65767 177.117L3.08567 179.577H2.43767L0.901672 177.117H1.65767ZM6.85367 170.62C6.18167 170.62 5.59367 170.488 5.08967 170.224C4.57767 169.952 4.18567 169.58 3.91367 169.108C3.63367 168.628 3.49367 168.088 3.49367 167.488C3.49367 166.864 3.63767 166.328 3.92567 165.88C4.21367 165.424 4.58167 165.096 5.02967 164.896H3.58967V164.056H10.1417V164.896H8.68967C9.13767 165.104 9.50967 165.436 9.80567 165.892C10.0937 166.34 10.2377 166.876 10.2377 167.5C10.2377 168.092 10.0977 168.628 9.81767 169.108C9.53767 169.58 9.14167 169.952 8.62967 170.224C8.11767 170.488 7.52567 170.62 6.85367 170.62ZM6.86567 164.896C6.33767 164.896 5.87367 165.004 5.47367 165.22C5.07367 165.436 4.76567 165.732 4.54967 166.108C4.33367 166.476 4.22567 166.884 4.22567 167.332C4.22567 167.796 4.32967 168.212 4.53767 168.58C4.74567 168.948 5.04967 169.24 5.44967 169.456C5.84167 169.664 6.30967 169.768 6.85367 169.768C7.38967 169.768 7.86167 169.664 8.26967 169.456C8.66967 169.24 8.97767 168.948 9.19367 168.58C9.40167 168.212 9.50567 167.796 9.50567 167.332C9.50567 166.884 9.39767 166.476 9.18167 166.108C8.96567 165.732 8.65767 165.436 8.25767 165.22C7.85767 165.004 7.39367 164.896 6.86567 164.896ZM3.58967 156.462H10.1417V157.302H8.98967C9.39767 157.494 9.70967 157.79 9.92567 158.19C10.1417 158.59 10.2497 159.038 10.2497 159.534C10.2497 160.318 10.0097 160.958 9.52967 161.454C9.04167 161.95 8.33767 162.198 7.41767 162.198H3.58967V161.37H7.32167C8.03367 161.37 8.57767 161.194 8.95367 160.842C9.32967 160.482 9.51767 159.994 9.51767 159.378C9.51767 158.746 9.31767 158.242 8.91767 157.866C8.51767 157.49 7.92967 157.302 7.15367 157.302H3.58967V156.462ZM6.86567 151.635C6.18567 151.635 5.59367 151.499 5.08967 151.227C4.57767 150.955 4.18567 150.579 3.91367 150.099C3.63367 149.619 3.49367 149.071 3.49367 148.455C3.49367 147.647 3.69367 146.983 4.09367 146.463C4.49367 145.935 5.03767 145.595 5.72567 145.443V146.343C5.25367 146.455 4.88567 146.699 4.62167 147.075C4.34967 147.443 4.21367 147.903 4.21367 148.455C4.21367 148.895 4.31367 149.291 4.51367 149.643C4.71367 149.995 5.01367 150.275 5.41367 150.483C5.80567 150.683 6.28967 150.783 6.86567 150.783C7.44167 150.783 7.92967 150.683 8.32967 150.483C8.72967 150.275 9.02967 149.995 9.22967 149.643C9.42967 149.291 9.52967 148.895 9.52967 148.455C9.52967 147.903 9.39767 147.443 9.13367 147.075C8.86167 146.699 8.48567 146.455 8.00567 146.343V145.443C8.67767 145.595 9.21767 145.935 9.62567 146.463C10.0337 146.991 10.2377 147.655 10.2377 148.455C10.2377 149.071 10.1017 149.619 9.82967 150.099C9.54967 150.579 9.15767 150.955 8.65367 151.227C8.14167 151.499 7.54567 151.635 6.86567 151.635ZM2.35367 143.472C2.35367 143.64 2.29367 143.784 2.17367 143.904C2.05367 144.024 1.90567 144.084 1.72967 144.084C1.55367 144.084 1.40967 144.024 1.29767 143.904C1.17767 143.784 1.11767 143.64 1.11767 143.472C1.11767 143.304 1.17767 143.16 1.29767 143.04C1.40967 142.92 1.55367 142.86 1.72967 142.86C1.90567 142.86 2.05367 142.92 2.17367 143.04C2.29367 143.16 2.35367 143.304 2.35367 143.472ZM3.58967 143.052H10.1417V143.892H3.58967V143.052ZM3.46967 138.078C3.46967 137.294 3.71367 136.654 4.20167 136.158C4.68167 135.662 5.38167 135.414 6.30167 135.414H10.1417V136.242H6.39767C5.68567 136.242 5.14167 136.422 4.76567 136.782C4.38967 137.134 4.20167 137.618 4.20167 138.234C4.20167 138.866 4.40167 139.37 4.80167 139.746C5.20167 140.122 5.78967 140.31 6.56567 140.31H10.1417V141.15H3.58967V140.31H4.70567C4.30567 140.102 4.00167 139.802 3.79367 139.41C3.57767 139.018 3.46967 138.574 3.46967 138.078ZM6.52967 127.628C6.81767 127.628 7.03767 127.636 7.18967 127.652V133.088C7.68567 133.064 8.10967 132.944 8.46167 132.728C8.81367 132.512 9.08167 132.228 9.26567 131.876C9.44167 131.524 9.52967 131.14 9.52967 130.724C9.52967 130.18 9.39767 129.724 9.13367 129.356C8.86967 128.98 8.51367 128.732 8.06567 128.612V127.724C8.70567 127.884 9.22967 128.228 9.63767 128.756C10.0377 129.276 10.2377 129.932 10.2377 130.724C10.2377 131.34 10.1017 131.892 9.82967 132.38C9.54967 132.868 9.15767 133.252 8.65367 133.532C8.14167 133.804 7.54567 133.94 6.86567 133.94C6.18567 133.94 5.58967 133.804 5.07767 133.532C4.56567 133.26 4.17367 132.88 3.90167 132.392C3.62967 131.904 3.49367 131.348 3.49367 130.724C3.49367 130.1 3.62967 129.556 3.90167 129.092C4.17367 128.62 4.54167 128.26 5.00567 128.012C5.46167 127.756 5.96967 127.628 6.52967 127.628ZM6.50567 128.48C6.01767 128.472 5.60167 128.572 5.25767 128.78C4.91367 128.98 4.65367 129.256 4.47767 129.608C4.30167 129.96 4.21367 130.344 4.21367 130.76C4.21367 131.384 4.41367 131.916 4.81367 132.356C5.21367 132.796 5.77767 133.04 6.50567 133.088V128.48ZM1.65767 129.68L3.08567 132.14H2.43767L0.901672 129.68H1.65767ZM3.46967 118.291C3.46967 117.523 3.71367 116.899 4.20167 116.419C4.68167 115.931 5.38167 115.687 6.30167 115.687H10.1417V116.515H6.39767C5.68567 116.515 5.14167 116.687 4.76567 117.031C4.38967 117.375 4.20167 117.843 4.20167 118.435C4.20167 119.051 4.40567 119.543 4.81367 119.911C5.22167 120.279 5.81367 120.463 6.58967 120.463H10.1417V121.291H6.39767C5.68567 121.291 5.14167 121.463 4.76567 121.807C4.38967 122.151 4.20167 122.623 4.20167 123.223C4.20167 123.839 4.40567 124.331 4.81367 124.699C5.22167 125.067 5.81367 125.251 6.58967 125.251H10.1417V126.091H3.58967V125.251H4.71767C4.30967 125.043 4.00167 124.747 3.79367 124.363C3.57767 123.979 3.46967 123.551 3.46967 123.079C3.46967 122.511 3.60567 122.015 3.87767 121.591C4.14967 121.159 4.54967 120.847 5.07767 120.655C4.55767 120.479 4.16167 120.179 3.88967 119.755C3.60967 119.323 3.46967 118.835 3.46967 118.291ZM6.85367 114.206C6.18167 114.206 5.59367 114.074 5.08967 113.81C4.57767 113.538 4.18567 113.166 3.91367 112.694C3.63367 112.214 3.49367 111.674 3.49367 111.074C3.49367 110.45 3.63767 109.914 3.92567 109.466C4.21367 109.01 4.58167 108.682 5.02967 108.482H3.58967V107.642H10.1417V108.482H8.68967C9.13767 108.69 9.50967 109.022 9.80567 109.478C10.0937 109.926 10.2377 110.462 10.2377 111.086C10.2377 111.678 10.0977 112.214 9.81767 112.694C9.53767 113.166 9.14167 113.538 8.62967 113.81C8.11767 114.074 7.52567 114.206 6.85367 114.206ZM6.86567 108.482C6.33767 108.482 5.87367 108.59 5.47367 108.806C5.07367 109.022 4.76567 109.318 4.54967 109.694C4.33367 110.062 4.22567 110.47 4.22567 110.918C4.22567 111.382 4.32967 111.798 4.53767 112.166C4.74567 112.534 5.04967 112.826 5.44967 113.042C5.84167 113.25 6.30967 113.354 6.85367 113.354C7.38967 113.354 7.86167 113.25 8.26967 113.042C8.66967 112.826 8.97767 112.534 9.19367 112.166C9.40167 111.798 9.50567 111.382 9.50567 110.918C9.50567 110.47 9.39767 110.062 9.18167 109.694C8.96567 109.318 8.65767 109.022 8.25767 108.806C7.85767 108.59 7.39367 108.482 6.86567 108.482ZM6.85367 102.815C6.18167 102.815 5.59367 102.683 5.08967 102.419C4.57767 102.147 4.18567 101.775 3.91367 101.303C3.63367 100.823 3.49367 100.283 3.49367 99.6829C3.49367 99.0589 3.63767 98.5229 3.92567 98.0749C4.21367 97.6189 4.58167 97.2909 5.02967 97.0909H3.58967V96.2509H10.1417V97.0909H8.68967C9.13767 97.2989 9.50967 97.6309 9.80567 98.0869C10.0937 98.5349 10.2377 99.0709 10.2377 99.6949C10.2377 100.287 10.0977 100.823 9.81767 101.303C9.53767 101.775 9.14167 102.147 8.62967 102.419C8.11767 102.683 7.52567 102.815 6.85367 102.815ZM6.86567 97.0909C6.33767 97.0909 5.87367 97.1989 5.47367 97.4149C5.07367 97.6309 4.76567 97.9269 4.54967 98.3029C4.33367 98.6709 4.22567 99.0789 4.22567 99.5269C4.22567 99.9909 4.32967 100.407 4.53767 100.775C4.74567 101.143 5.04967 101.435 5.44967 101.651C5.84167 101.859 6.30967 101.963 6.85367 101.963C7.38967 101.963 7.86167 101.859 8.26967 101.651C8.66967 101.435 8.97767 101.143 9.19367 100.775C9.40167 100.407 9.50567 99.9909 9.50567 99.5269C9.50567 99.0789 9.39767 98.6709 9.18167 98.3029C8.96567 97.9269 8.65767 97.6309 8.25767 97.4149C7.85767 97.1989 7.39367 97.0909 6.86567 97.0909ZM3.58967 88.6573H10.1417V89.4973H8.98967C9.39767 89.6893 9.70967 89.9853 9.92567 90.3853C10.1417 90.7853 10.2497 91.2333 10.2497 91.7293C10.2497 92.5133 10.0097 93.1533 9.52967 93.6493C9.04167 94.1453 8.33767 94.3933 7.41767 94.3933H3.58967V93.5653H7.32167C8.03367 93.5653 8.57767 93.3893 8.95367 93.0373C9.32967 92.6773 9.51767 92.1893 9.51767 91.5733C9.51767 90.9413 9.31767 90.4373 8.91767 90.0613C8.51767 89.6853 7.92967 89.4973 7.15367 89.4973H3.58967V88.6573ZM21.4697 260.639C21.4697 259.871 21.7137 259.247 22.2017 258.767C22.6817 258.279 23.3817 258.035 24.3017 258.035H28.1417V258.863H24.3977C23.6857 258.863 23.1417 259.035 22.7657 259.379C22.3897 259.723 22.2017 260.191 22.2017 260.783C22.2017 261.399 22.4057 261.891 22.8137 262.259C23.2217 262.627 23.8137 262.811 24.5897 262.811H28.1417V263.639H24.3977C23.6857 263.639 23.1417 263.811 22.7657 264.155C22.3897 264.499 22.2017 264.971 22.2017 265.571C22.2017 266.187 22.4057 266.679 22.8137 267.047C23.2217 267.415 23.8137 267.599 24.5897 267.599H28.1417V268.439H21.5897V267.599H22.7177C22.3097 267.391 22.0017 267.095 21.7937 266.711C21.5777 266.327 21.4697 265.899 21.4697 265.427C21.4697 264.859 21.6057 264.363 21.8777 263.939C22.1497 263.507 22.5497 263.195 23.0777 263.003C22.5577 262.827 22.1617 262.527 21.8897 262.103C21.6097 261.671 21.4697 261.183 21.4697 260.639ZM28.2377 253.301C28.2377 253.917 28.1017 254.473 27.8297 254.969C27.5497 255.457 27.1577 255.845 26.6537 256.133C26.1417 256.413 25.5457 256.553 24.8657 256.553C24.1857 256.553 23.5937 256.409 23.0897 256.121C22.5777 255.833 22.1857 255.441 21.9137 254.945C21.6337 254.449 21.4937 253.893 21.4937 253.277C21.4937 252.661 21.6337 252.105 21.9137 251.609C22.1857 251.105 22.5777 250.713 23.0897 250.433C23.5937 250.145 24.1857 250.001 24.8657 250.001C25.5377 250.001 26.1297 250.145 26.6417 250.433C27.1537 250.721 27.5497 251.117 27.8297 251.621C28.1017 252.125 28.2377 252.685 28.2377 253.301ZM27.5057 253.301C27.5057 252.869 27.4097 252.469 27.2177 252.101C27.0177 251.733 26.7217 251.437 26.3297 251.213C25.9297 250.981 25.4417 250.865 24.8657 250.865C24.2897 250.865 23.8057 250.977 23.4137 251.201C23.0137 251.425 22.7177 251.721 22.5257 252.089C22.3257 252.457 22.2257 252.857 22.2257 253.289C22.2257 253.721 22.3257 254.121 22.5257 254.489C22.7177 254.857 23.0137 255.153 23.4137 255.377C23.8057 255.593 24.2897 255.701 24.8657 255.701C25.4417 255.701 25.9297 255.593 26.3297 255.377C26.7217 255.153 27.0177 254.861 27.2177 254.501C27.4097 254.133 27.5057 253.733 27.5057 253.301ZM20.3537 248.05C20.3537 248.218 20.2937 248.362 20.1737 248.482C20.0537 248.602 19.9057 248.662 19.7297 248.662C19.5537 248.662 19.4097 248.602 19.2977 248.482C19.1777 248.362 19.1177 248.218 19.1177 248.05C19.1177 247.882 19.1777 247.738 19.2977 247.618C19.4097 247.498 19.5537 247.438 19.7297 247.438C19.9057 247.438 20.0537 247.498 20.1737 247.618C20.2937 247.738 20.3537 247.882 20.3537 248.05ZM21.5897 247.63H28.1417V248.47H21.5897V247.63ZM21.4697 242.656C21.4697 241.872 21.7137 241.232 22.2017 240.736C22.6817 240.24 23.3817 239.992 24.3017 239.992H28.1417V240.82H24.3977C23.6857 240.82 23.1417 241 22.7657 241.36C22.3897 241.712 22.2017 242.196 22.2017 242.812C22.2017 243.444 22.4017 243.948 22.8017 244.324C23.2017 244.7 23.7897 244.888 24.5657 244.888H28.1417V245.728H21.5897V244.888H22.7057C22.3057 244.68 22.0017 244.38 21.7937 243.988C21.5777 243.596 21.4697 243.152 21.4697 242.656ZM28.2377 235.878C28.2377 236.63 28.0657 237.246 27.7217 237.726C27.3697 238.198 26.8937 238.462 26.2937 238.518V237.654C26.6617 237.614 26.9617 237.442 27.1937 237.138C27.4177 236.826 27.5297 236.41 27.5297 235.89C27.5297 235.434 27.4217 235.078 27.2057 234.822C26.9897 234.558 26.7217 234.426 26.4017 234.426C26.1777 234.426 25.9937 234.498 25.8497 234.642C25.7057 234.786 25.5937 234.97 25.5137 235.194C25.4257 235.41 25.3337 235.706 25.2377 236.082C25.1097 236.57 24.9817 236.966 24.8537 237.27C24.7257 237.574 24.5377 237.834 24.2897 238.05C24.0337 238.258 23.6937 238.362 23.2697 238.362C22.9497 238.362 22.6537 238.266 22.3817 238.074C22.1097 237.882 21.8937 237.61 21.7337 237.258C21.5737 236.906 21.4937 236.506 21.4937 236.058C21.4937 235.354 21.6737 234.786 22.0337 234.354C22.3857 233.922 22.8737 233.69 23.4977 233.658V234.498C23.1137 234.522 22.8057 234.674 22.5737 234.954C22.3337 235.226 22.2137 235.602 22.2137 236.082C22.2137 236.506 22.3137 236.85 22.5137 237.114C22.7137 237.378 22.9617 237.51 23.2577 237.51C23.5137 237.51 23.7257 237.434 23.8937 237.282C24.0537 237.122 24.1817 236.926 24.2777 236.694C24.3657 236.462 24.4657 236.15 24.5777 235.758C24.7057 235.286 24.8297 234.91 24.9497 234.63C25.0697 234.35 25.2457 234.11 25.4777 233.91C25.7097 233.71 26.0177 233.606 26.4017 233.598C26.7537 233.598 27.0697 233.694 27.3497 233.886C27.6217 234.078 27.8377 234.346 27.9977 234.69C28.1577 235.034 28.2377 235.43 28.2377 235.878ZM21.5897 223.048H28.1417V223.888H26.9897C27.3977 224.08 27.7097 224.376 27.9257 224.776C28.1417 225.176 28.2497 225.624 28.2497 226.12C28.2497 226.904 28.0097 227.544 27.5297 228.04C27.0417 228.536 26.3377 228.784 25.4177 228.784H21.5897V227.956H25.3217C26.0337 227.956 26.5777 227.78 26.9537 227.428C27.3297 227.068 27.5177 226.58 27.5177 225.964C27.5177 225.332 27.3177 224.828 26.9177 224.452C26.5177 224.076 25.9297 223.888 25.1537 223.888H21.5897V223.048ZM21.4697 218.058C21.4697 217.274 21.7137 216.634 22.2017 216.138C22.6817 215.642 23.3817 215.394 24.3017 215.394H28.1417V216.222H24.3977C23.6857 216.222 23.1417 216.402 22.7657 216.762C22.3897 217.114 22.2017 217.598 22.2017 218.214C22.2017 218.846 22.4017 219.35 22.8017 219.726C23.2017 220.102 23.7897 220.29 24.5657 220.29H28.1417V221.13H21.5897V220.29H22.7057C22.3057 220.082 22.0017 219.782 21.7937 219.39C21.5777 218.998 21.4697 218.554 21.4697 218.058ZM24.5297 207.608C24.8177 207.608 25.0377 207.616 25.1897 207.632V213.068C25.6857 213.044 26.1097 212.924 26.4617 212.708C26.8137 212.492 27.0817 212.208 27.2657 211.856C27.4417 211.504 27.5297 211.12 27.5297 210.704C27.5297 210.16 27.3977 209.704 27.1337 209.336C26.8697 208.96 26.5137 208.712 26.0657 208.592V207.704C26.7057 207.864 27.2297 208.208 27.6377 208.736C28.0377 209.256 28.2377 209.912 28.2377 210.704C28.2377 211.32 28.1017 211.872 27.8297 212.36C27.5497 212.848 27.1577 213.232 26.6537 213.512C26.1417 213.784 25.5457 213.92 24.8657 213.92C24.1857 213.92 23.5897 213.784 23.0777 213.512C22.5657 213.24 22.1737 212.86 21.9017 212.372C21.6297 211.884 21.4937 211.328 21.4937 210.704C21.4937 210.08 21.6297 209.536 21.9017 209.072C22.1737 208.6 22.5417 208.24 23.0057 207.992C23.4617 207.736 23.9697 207.608 24.5297 207.608ZM24.5057 208.46C24.0177 208.452 23.6017 208.552 23.2577 208.76C22.9137 208.96 22.6537 209.236 22.4777 209.588C22.3017 209.94 22.2137 210.324 22.2137 210.74C22.2137 211.364 22.4137 211.896 22.8137 212.336C23.2137 212.776 23.7777 213.02 24.5057 213.068V208.46ZM22.2977 200.199V201.723H28.1417V202.563H22.2977V203.475H21.5897V202.563H21.1337C20.4217 202.563 19.8977 202.383 19.5617 202.023C19.2257 201.655 19.0577 201.063 19.0577 200.247H19.7777C19.7777 200.791 19.8817 201.175 20.0897 201.399C20.2977 201.615 20.6457 201.723 21.1337 201.723H21.5897V200.199H22.2977ZM28.2377 196.008C28.2377 196.624 28.1017 197.18 27.8297 197.676C27.5497 198.164 27.1577 198.552 26.6537 198.84C26.1417 199.12 25.5457 199.26 24.8657 199.26C24.1857 199.26 23.5937 199.116 23.0897 198.828C22.5777 198.54 22.1857 198.148 21.9137 197.652C21.6337 197.156 21.4937 196.6 21.4937 195.984C21.4937 195.368 21.6337 194.812 21.9137 194.316C22.1857 193.812 22.5777 193.42 23.0897 193.14C23.5937 192.852 24.1857 192.708 24.8657 192.708C25.5377 192.708 26.1297 192.852 26.6417 193.14C27.1537 193.428 27.5497 193.824 27.8297 194.328C28.1017 194.832 28.2377 195.392 28.2377 196.008ZM27.5057 196.008C27.5057 195.576 27.4097 195.176 27.2177 194.808C27.0177 194.44 26.7217 194.144 26.3297 193.92C25.9297 193.688 25.4417 193.572 24.8657 193.572C24.2897 193.572 23.8057 193.684 23.4137 193.908C23.0137 194.132 22.7177 194.428 22.5257 194.796C22.3257 195.164 22.2257 195.564 22.2257 195.996C22.2257 196.428 22.3257 196.828 22.5257 197.196C22.7177 197.564 23.0137 197.86 23.4137 198.084C23.8057 198.3 24.2897 198.408 24.8657 198.408C25.4417 198.408 25.9297 198.3 26.3297 198.084C26.7217 197.86 27.0177 197.568 27.2177 197.208C27.4097 196.84 27.5057 196.44 27.5057 196.008ZM20.3537 190.757C20.3537 190.925 20.2937 191.069 20.1737 191.189C20.0537 191.309 19.9057 191.369 19.7297 191.369C19.5537 191.369 19.4097 191.309 19.2977 191.189C19.1777 191.069 19.1177 190.925 19.1177 190.757C19.1177 190.589 19.1777 190.445 19.2977 190.325C19.4097 190.205 19.5537 190.145 19.7297 190.145C19.9057 190.145 20.0537 190.205 20.1737 190.325C20.2937 190.445 20.3537 190.589 20.3537 190.757ZM21.5897 190.337H28.1417V191.177H21.5897V190.337ZM28.2377 186.179C28.2377 186.931 28.0657 187.547 27.7217 188.027C27.3697 188.499 26.8937 188.763 26.2937 188.819V187.955C26.6617 187.915 26.9617 187.743 27.1937 187.439C27.4177 187.127 27.5297 186.711 27.5297 186.191C27.5297 185.735 27.4217 185.379 27.2057 185.123C26.9897 184.859 26.7217 184.727 26.4017 184.727C26.1777 184.727 25.9937 184.799 25.8497 184.943C25.7057 185.087 25.5937 185.271 25.5137 185.495C25.4257 185.711 25.3337 186.007 25.2377 186.383C25.1097 186.871 24.9817 187.267 24.8537 187.571C24.7257 187.875 24.5377 188.135 24.2897 188.351C24.0337 188.559 23.6937 188.663 23.2697 188.663C22.9497 188.663 22.6537 188.567 22.3817 188.375C22.1097 188.183 21.8937 187.911 21.7337 187.559C21.5737 187.207 21.4937 186.807 21.4937 186.359C21.4937 185.655 21.6737 185.087 22.0337 184.655C22.3857 184.223 22.8737 183.991 23.4977 183.959V184.799C23.1137 184.823 22.8057 184.975 22.5737 185.255C22.3337 185.527 22.2137 185.903 22.2137 186.383C22.2137 186.807 22.3137 187.151 22.5137 187.415C22.7137 187.679 22.9617 187.811 23.2577 187.811C23.5137 187.811 23.7257 187.735 23.8937 187.583C24.0537 187.423 24.1817 187.227 24.2777 186.995C24.3657 186.763 24.4657 186.451 24.5777 186.059C24.7057 185.587 24.8297 185.211 24.9497 184.931C25.0697 184.651 25.2457 184.411 25.4777 184.211C25.7097 184.011 26.0177 183.907 26.4017 183.899C26.7537 183.899 27.0697 183.995 27.3497 184.187C27.6217 184.379 27.8377 184.647 27.9977 184.991C28.1577 185.335 28.2377 185.731 28.2377 186.179ZM24.8537 179.409C24.1817 179.409 23.5937 179.273 23.0897 179.001C22.5777 178.729 22.1857 178.357 21.9137 177.885C21.6337 177.405 21.4937 176.865 21.4937 176.265C21.4937 175.689 21.6337 175.169 21.9137 174.705C22.1937 174.241 22.5577 173.901 23.0057 173.685H19.2617V172.845H28.1417V173.685H26.6777C27.1337 173.885 27.5097 174.213 27.8057 174.669C28.0937 175.125 28.2377 175.661 28.2377 176.277C28.2377 176.877 28.0977 177.417 27.8177 177.897C27.5377 178.369 27.1417 178.741 26.6297 179.013C26.1177 179.277 25.5257 179.409 24.8537 179.409ZM24.8657 173.685C24.3377 173.685 23.8737 173.793 23.4737 174.009C23.0737 174.225 22.7657 174.521 22.5497 174.897C22.3337 175.265 22.2257 175.673 22.2257 176.121C22.2257 176.585 22.3297 177.001 22.5377 177.369C22.7457 177.737 23.0497 178.029 23.4497 178.245C23.8417 178.453 24.3097 178.557 24.8537 178.557C25.3897 178.557 25.8617 178.453 26.2697 178.245C26.6697 178.029 26.9777 177.737 27.1937 177.369C27.4017 177.001 27.5057 176.585 27.5057 176.121C27.5057 175.673 27.3977 175.265 27.1817 174.897C26.9657 174.521 26.6577 174.225 26.2577 174.009C25.8577 173.793 25.3937 173.685 24.8657 173.685ZM24.8537 171.311C24.1817 171.311 23.5937 171.179 23.0897 170.915C22.5777 170.643 22.1857 170.271 21.9137 169.799C21.6337 169.319 21.4937 168.779 21.4937 168.179C21.4937 167.555 21.6377 167.019 21.9257 166.571C22.2137 166.115 22.5817 165.787 23.0297 165.587H21.5897V164.747H28.1417V165.587H26.6897C27.1377 165.795 27.5097 166.127 27.8057 166.583C28.0937 167.031 28.2377 167.567 28.2377 168.191C28.2377 168.783 28.0977 169.319 27.8177 169.799C27.5377 170.271 27.1417 170.643 26.6297 170.915C26.1177 171.179 25.5257 171.311 24.8537 171.311ZM24.8657 165.587C24.3377 165.587 23.8737 165.695 23.4737 165.911C23.0737 166.127 22.7657 166.423 22.5497 166.799C22.3337 167.167 22.2257 167.575 22.2257 168.023C22.2257 168.487 22.3297 168.903 22.5377 169.271C22.7457 169.639 23.0497 169.931 23.4497 170.147C23.8417 170.355 24.3097 170.459 24.8537 170.459C25.3897 170.459 25.8617 170.355 26.2697 170.147C26.6697 169.931 26.9777 169.639 27.1937 169.271C27.4017 168.903 27.5057 168.487 27.5057 168.023C27.5057 167.575 27.3977 167.167 27.1817 166.799C26.9657 166.423 26.6577 166.127 26.2577 165.911C25.8577 165.695 25.3937 165.587 24.8657 165.587ZM21.4697 159.757C21.4697 158.973 21.7137 158.333 22.2017 157.837C22.6817 157.341 23.3817 157.093 24.3017 157.093H28.1417V157.921H24.3977C23.6857 157.921 23.1417 158.101 22.7657 158.461C22.3897 158.813 22.2017 159.297 22.2017 159.913C22.2017 160.545 22.4017 161.049 22.8017 161.425C23.2017 161.801 23.7897 161.989 24.5657 161.989H28.1417V162.829H21.5897V161.989H22.7057C22.3057 161.781 22.0017 161.481 21.7937 161.089C21.5777 160.697 21.4697 160.253 21.4697 159.757ZM28.2377 152.98C28.2377 153.732 28.0657 154.348 27.7217 154.828C27.3697 155.3 26.8937 155.564 26.2937 155.62V154.756C26.6617 154.716 26.9617 154.544 27.1937 154.24C27.4177 153.928 27.5297 153.512 27.5297 152.992C27.5297 152.536 27.4217 152.18 27.2057 151.924C26.9897 151.66 26.7217 151.528 26.4017 151.528C26.1777 151.528 25.9937 151.6 25.8497 151.744C25.7057 151.888 25.5937 152.072 25.5137 152.296C25.4257 152.512 25.3337 152.808 25.2377 153.184C25.1097 153.672 24.9817 154.068 24.8537 154.372C24.7257 154.676 24.5377 154.936 24.2897 155.152C24.0337 155.36 23.6937 155.464 23.2697 155.464C22.9497 155.464 22.6537 155.368 22.3817 155.176C22.1097 154.984 21.8937 154.712 21.7337 154.36C21.5737 154.008 21.4937 153.608 21.4937 153.16C21.4937 152.456 21.6737 151.888 22.0337 151.456C22.3857 151.024 22.8737 150.792 23.4977 150.76V151.6C23.1137 151.624 22.8057 151.776 22.5737 152.056C22.3337 152.328 22.2137 152.704 22.2137 153.184C22.2137 153.608 22.3137 153.952 22.5137 154.216C22.7137 154.48 22.9617 154.612 23.2577 154.612C23.5137 154.612 23.7257 154.536 23.8937 154.384C24.0537 154.224 24.1817 154.028 24.2777 153.796C24.3657 153.564 24.4657 153.252 24.5777 152.86C24.7057 152.388 24.8297 152.012 24.9497 151.732C25.0697 151.452 25.2457 151.212 25.4777 151.012C25.7097 150.812 26.0177 150.708 26.4017 150.7C26.7537 150.7 27.0697 150.796 27.3497 150.988C27.6217 151.18 27.8377 151.448 27.9977 151.792C28.1577 152.136 28.2377 152.532 28.2377 152.98ZM19.2617 144.985H28.1417V145.825H19.2617V144.985ZM19.7537 142.975V142.003L22.3457 143.059V143.671L19.7537 142.975ZM24.8537 141.1C24.1817 141.1 23.5937 140.968 23.0897 140.704C22.5777 140.432 22.1857 140.06 21.9137 139.588C21.6337 139.108 21.4937 138.568 21.4937 137.968C21.4937 137.344 21.6377 136.808 21.9257 136.36C22.2137 135.904 22.5817 135.576 23.0297 135.376H21.5897V134.536H28.1417V135.376H26.6897C27.1377 135.584 27.5097 135.916 27.8057 136.372C28.0937 136.82 28.2377 137.356 28.2377 137.98C28.2377 138.572 28.0977 139.108 27.8177 139.588C27.5377 140.06 27.1417 140.432 26.6297 140.704C26.1177 140.968 25.5257 141.1 24.8537 141.1ZM24.8657 135.376C24.3377 135.376 23.8737 135.484 23.4737 135.7C23.0737 135.916 22.7657 136.212 22.5497 136.588C22.3337 136.956 22.2257 137.364 22.2257 137.812C22.2257 138.276 22.3297 138.692 22.5377 139.06C22.7457 139.428 23.0497 139.72 23.4497 139.936C23.8417 140.144 24.3097 140.248 24.8537 140.248C25.3897 140.248 25.8617 140.144 26.2697 139.936C26.6697 139.72 26.9777 139.428 27.1937 139.06C27.4017 138.692 27.5057 138.276 27.5057 137.812C27.5057 137.364 27.3977 136.956 27.1817 136.588C26.9657 136.212 26.6577 135.916 26.2577 135.7C25.8577 135.484 25.3937 135.376 24.8657 135.376ZM21.4697 129.546C21.4697 128.762 21.7137 128.122 22.2017 127.626C22.6817 127.13 23.3817 126.882 24.3017 126.882H28.1417V127.71H24.3977C23.6857 127.71 23.1417 127.89 22.7657 128.25C22.3897 128.602 22.2017 129.086 22.2017 129.702C22.2017 130.334 22.4017 130.838 22.8017 131.214C23.2017 131.59 23.7897 131.778 24.5657 131.778H28.1417V132.618H21.5897V131.778H22.7057C22.3057 131.57 22.0017 131.27 21.7937 130.878C21.5777 130.486 21.4697 130.042 21.4697 129.546ZM21.4697 121.953C21.4697 121.169 21.7137 120.529 22.2017 120.033C22.6817 119.537 23.3817 119.289 24.3017 119.289H28.1417V120.117H24.3977C23.6857 120.117 23.1417 120.297 22.7657 120.657C22.3897 121.009 22.2017 121.493 22.2017 122.109C22.2017 122.741 22.4017 123.245 22.8017 123.621C23.2017 123.997 23.7897 124.185 24.5657 124.185H28.1417V125.025H21.5897V124.185H22.7057C22.3057 123.977 22.0017 123.677 21.7937 123.285C21.5777 122.893 21.4697 122.449 21.4697 121.953ZM24.5297 111.503C24.8177 111.503 25.0377 111.511 25.1897 111.527V116.963C25.6857 116.939 26.1097 116.819 26.4617 116.603C26.8137 116.387 27.0817 116.103 27.2657 115.751C27.4417 115.399 27.5297 115.015 27.5297 114.599C27.5297 114.055 27.3977 113.599 27.1337 113.231C26.8697 112.855 26.5137 112.607 26.0657 112.487V111.599C26.7057 111.759 27.2297 112.103 27.6377 112.631C28.0377 113.151 28.2377 113.807 28.2377 114.599C28.2377 115.215 28.1017 115.767 27.8297 116.255C27.5497 116.743 27.1577 117.127 26.6537 117.407C26.1417 117.679 25.5457 117.815 24.8657 117.815C24.1857 117.815 23.5897 117.679 23.0777 117.407C22.5657 117.135 22.1737 116.755 21.9017 116.267C21.6297 115.779 21.4937 115.223 21.4937 114.599C21.4937 113.975 21.6297 113.431 21.9017 112.967C22.1737 112.495 22.5417 112.135 23.0057 111.887C23.4617 111.631 23.9697 111.503 24.5297 111.503ZM24.5057 112.355C24.0177 112.347 23.6017 112.447 23.2577 112.655C22.9137 112.855 22.6537 113.131 22.4777 113.483C22.3017 113.835 22.2137 114.219 22.2137 114.635C22.2137 115.259 22.4137 115.791 22.8137 116.231C23.2137 116.671 23.7777 116.915 24.5057 116.963V112.355ZM19.6577 113.555L21.0857 116.015H20.4377L18.9017 113.555H19.6577ZM24.5297 104.038C24.8177 104.038 25.0377 104.046 25.1897 104.062V109.498C25.6857 109.474 26.1097 109.354 26.4617 109.138C26.8137 108.922 27.0817 108.638 27.2657 108.286C27.4417 107.934 27.5297 107.55 27.5297 107.134C27.5297 106.59 27.3977 106.134 27.1337 105.766C26.8697 105.39 26.5137 105.142 26.0657 105.022V104.134C26.7057 104.294 27.2297 104.638 27.6377 105.166C28.0377 105.686 28.2377 106.342 28.2377 107.134C28.2377 107.75 28.1017 108.302 27.8297 108.79C27.5497 109.278 27.1577 109.662 26.6537 109.942C26.1417 110.214 25.5457 110.35 24.8657 110.35C24.1857 110.35 23.5897 110.214 23.0777 109.942C22.5657 109.67 22.1737 109.29 21.9017 108.802C21.6297 108.314 21.4937 107.758 21.4937 107.134C21.4937 106.51 21.6297 105.966 21.9017 105.502C22.1737 105.03 22.5417 104.67 23.0057 104.422C23.4617 104.166 23.9697 104.038 24.5297 104.038ZM24.5057 104.89C24.0177 104.882 23.6017 104.982 23.2577 105.19C22.9137 105.39 22.6537 105.666 22.4777 106.018C22.3017 106.37 22.2137 106.754 22.2137 107.17C22.2137 107.794 22.4137 108.326 22.8137 108.766C23.2137 109.206 23.7777 109.45 24.5057 109.498V104.89ZM135.112 378.35C135.752 377.817 136.262 377.373 136.642 377.02C137.022 376.66 137.338 376.287 137.592 375.9C137.845 375.513 137.972 375.133 137.972 374.76C137.972 374.42 137.892 374.153 137.732 373.96C137.572 373.767 137.325 373.67 136.992 373.67C136.658 373.67 136.402 373.783 136.222 374.01C136.042 374.23 135.948 374.533 135.942 374.92H134.582C134.608 374.12 134.845 373.513 135.292 373.1C135.745 372.687 136.318 372.48 137.012 372.48C137.772 372.48 138.355 372.683 138.762 373.09C139.168 373.49 139.372 374.02 139.372 374.68C139.372 375.2 139.232 375.697 138.952 376.17C138.672 376.643 138.352 377.057 137.992 377.41C137.632 377.757 137.162 378.177 136.582 378.67H139.532V379.83H134.592V378.79L135.112 378.35ZM140.414 376.19C140.414 375.037 140.621 374.133 141.034 373.48C141.454 372.827 142.147 372.5 143.114 372.5C144.081 372.5 144.771 372.827 145.184 373.48C145.604 374.133 145.814 375.037 145.814 376.19C145.814 377.35 145.604 378.26 145.184 378.92C144.771 379.58 144.081 379.91 143.114 379.91C142.147 379.91 141.454 379.58 141.034 378.92C140.621 378.26 140.414 377.35 140.414 376.19ZM144.434 376.19C144.434 375.697 144.401 375.283 144.334 374.95C144.274 374.61 144.147 374.333 143.954 374.12C143.767 373.907 143.487 373.8 143.114 373.8C142.741 373.8 142.457 373.907 142.264 374.12C142.077 374.333 141.951 374.61 141.884 374.95C141.824 375.283 141.794 375.697 141.794 376.19C141.794 376.697 141.824 377.123 141.884 377.47C141.944 377.81 142.071 378.087 142.264 378.3C142.457 378.507 142.741 378.61 143.114 378.61C143.487 378.61 143.771 378.507 143.964 378.3C144.157 378.087 144.284 377.81 144.344 377.47C144.404 377.123 144.434 376.697 144.434 376.19ZM146.709 373.93V372.64H149.119V379.93H147.679V373.93H146.709ZM155.402 373.85H152.162V375.56C152.302 375.387 152.502 375.247 152.762 375.14C153.022 375.027 153.298 374.97 153.592 374.97C154.125 374.97 154.562 375.087 154.902 375.32C155.242 375.553 155.488 375.853 155.642 376.22C155.795 376.58 155.872 376.967 155.872 377.38C155.872 378.147 155.652 378.763 155.212 379.23C154.778 379.697 154.158 379.93 153.352 379.93C152.592 379.93 151.985 379.74 151.532 379.36C151.078 378.98 150.822 378.483 150.762 377.87H152.122C152.182 378.137 152.315 378.35 152.522 378.51C152.735 378.67 153.005 378.75 153.332 378.75C153.725 378.75 154.022 378.627 154.222 378.38C154.422 378.133 154.522 377.807 154.522 377.4C154.522 376.987 154.418 376.673 154.212 376.46C154.012 376.24 153.715 376.13 153.322 376.13C153.042 376.13 152.808 376.2 152.622 376.34C152.435 376.48 152.302 376.667 152.222 376.9H150.882V372.62H155.402V373.85ZM55.1117 269.35C55.7517 268.817 56.2617 268.373 56.6417 268.02C57.0217 267.66 57.3383 267.287 57.5917 266.9C57.845 266.513 57.9717 266.133 57.9717 265.76C57.9717 265.42 57.8917 265.153 57.7317 264.96C57.5717 264.767 57.325 264.67 56.9917 264.67C56.6583 264.67 56.4017 264.783 56.2217 265.01C56.0417 265.23 55.9483 265.533 55.9417 265.92H54.5817C54.6083 265.12 54.845 264.513 55.2917 264.1C55.745 263.687 56.3183 263.48 57.0117 263.48C57.7717 263.48 58.355 263.683 58.7617 264.09C59.1683 264.49 59.3717 265.02 59.3717 265.68C59.3717 266.2 59.2317 266.697 58.9517 267.17C58.6717 267.643 58.3517 268.057 57.9917 268.41C57.6317 268.757 57.1617 269.177 56.5817 269.67H59.5317V270.83H54.5917V269.79L55.1117 269.35ZM65.3139 264.85H62.0739V266.56C62.2139 266.387 62.4139 266.247 62.6739 266.14C62.9339 266.027 63.2105 265.97 63.5039 265.97C64.0372 265.97 64.4739 266.087 64.8139 266.32C65.1539 266.553 65.4005 266.853 65.5539 267.22C65.7072 267.58 65.7839 267.967 65.7839 268.38C65.7839 269.147 65.5639 269.763 65.1239 270.23C64.6905 270.697 64.0705 270.93 63.2639 270.93C62.5039 270.93 61.8972 270.74 61.4439 270.36C60.9905 269.98 60.7339 269.483 60.6739 268.87H62.0339C62.0939 269.137 62.2272 269.35 62.4339 269.51C62.6472 269.67 62.9172 269.75 63.2439 269.75C63.6372 269.75 63.9339 269.627 64.1339 269.38C64.3339 269.133 64.4339 268.807 64.4339 268.4C64.4339 267.987 64.3305 267.673 64.1239 267.46C63.9239 267.24 63.6272 267.13 63.2339 267.13C62.9539 267.13 62.7205 267.2 62.5339 267.34C62.3472 267.48 62.2139 267.667 62.1339 267.9H60.7939V263.62H65.3139V264.85ZM66.6894 265.43C66.6894 264.923 66.8361 264.527 67.1294 264.24C67.4294 263.953 67.8127 263.81 68.2794 263.81C68.7461 263.81 69.1261 263.953 69.4194 264.24C69.7194 264.527 69.8694 264.923 69.8694 265.43C69.8694 265.943 69.7194 266.343 69.4194 266.63C69.1261 266.917 68.7461 267.06 68.2794 267.06C67.8127 267.06 67.4294 266.917 67.1294 266.63C66.8361 266.343 66.6894 265.943 66.6894 265.43ZM73.1094 263.93L69.1794 270.93H67.8194L71.7394 263.93H73.1094ZM68.2694 264.65C67.9027 264.65 67.7194 264.91 67.7194 265.43C67.7194 265.957 67.9027 266.22 68.2694 266.22C68.4494 266.22 68.5894 266.157 68.6894 266.03C68.7894 265.897 68.8394 265.697 68.8394 265.43C68.8394 264.91 68.6494 264.65 68.2694 264.65ZM71.0794 269.42C71.0794 268.907 71.2261 268.51 71.5194 268.23C71.8194 267.943 72.2027 267.8 72.6694 267.8C73.1361 267.8 73.5127 267.943 73.7994 268.23C74.0927 268.51 74.2394 268.907 74.2394 269.42C74.2394 269.933 74.0927 270.333 73.7994 270.62C73.5127 270.907 73.1361 271.05 72.6694 271.05C72.1961 271.05 71.8127 270.907 71.5194 270.62C71.2261 270.333 71.0794 269.933 71.0794 269.42ZM72.6594 268.64C72.2794 268.64 72.0894 268.9 72.0894 269.42C72.0894 269.947 72.2794 270.21 72.6594 270.21C73.0327 270.21 73.2194 269.947 73.2194 269.42C73.2194 268.9 73.0327 268.64 72.6594 268.64ZM53.6717 354.19C53.6717 353.037 53.8783 352.133 54.2917 351.48C54.7117 350.827 55.405 350.5 56.3717 350.5C57.3383 350.5 58.0283 350.827 58.4417 351.48C58.8617 352.133 59.0717 353.037 59.0717 354.19C59.0717 355.35 58.8617 356.26 58.4417 356.92C58.0283 357.58 57.3383 357.91 56.3717 357.91C55.405 357.91 54.7117 357.58 54.2917 356.92C53.8783 356.26 53.6717 355.35 53.6717 354.19ZM57.6917 354.19C57.6917 353.697 57.6583 353.283 57.5917 352.95C57.5317 352.61 57.405 352.333 57.2117 352.12C57.025 351.907 56.745 351.8 56.3717 351.8C55.9983 351.8 55.715 351.907 55.5217 352.12C55.335 352.333 55.2083 352.61 55.1417 352.95C55.0817 353.283 55.0517 353.697 55.0517 354.19C55.0517 354.697 55.0817 355.123 55.1417 355.47C55.2017 355.81 55.3283 356.087 55.5217 356.3C55.715 356.507 55.9983 356.61 56.3717 356.61C56.745 356.61 57.0283 356.507 57.2217 356.3C57.415 356.087 57.5417 355.81 57.6017 355.47C57.6617 355.123 57.6917 354.697 57.6917 354.19ZM59.9765 352.43C59.9765 351.923 60.1232 351.527 60.4165 351.24C60.7165 350.953 61.0999 350.81 61.5665 350.81C62.0332 350.81 62.4132 350.953 62.7065 351.24C63.0065 351.527 63.1565 351.923 63.1565 352.43C63.1565 352.943 63.0065 353.343 62.7065 353.63C62.4132 353.917 62.0332 354.06 61.5665 354.06C61.0999 354.06 60.7165 353.917 60.4165 353.63C60.1232 353.343 59.9765 352.943 59.9765 352.43ZM66.3965 350.93L62.4665 357.93H61.1065L65.0265 350.93H66.3965ZM61.5565 351.65C61.1899 351.65 61.0065 351.91 61.0065 352.43C61.0065 352.957 61.1899 353.22 61.5565 353.22C61.7365 353.22 61.8765 353.157 61.9765 353.03C62.0765 352.897 62.1265 352.697 62.1265 352.43C62.1265 351.91 61.9365 351.65 61.5565 351.65ZM64.3665 356.42C64.3665 355.907 64.5132 355.51 64.8065 355.23C65.1065 354.943 65.4899 354.8 65.9565 354.8C66.4232 354.8 66.7999 354.943 67.0865 355.23C67.3799 355.51 67.5265 355.907 67.5265 356.42C67.5265 356.933 67.3799 357.333 67.0865 357.62C66.7999 357.907 66.4232 358.05 65.9565 358.05C65.4832 358.05 65.0999 357.907 64.8065 357.62C64.5132 357.333 64.3665 356.933 64.3665 356.42ZM65.9465 355.64C65.5665 355.64 65.3765 355.9 65.3765 356.42C65.3765 356.947 65.5665 357.21 65.9465 357.21C66.3199 357.21 66.5065 356.947 66.5065 356.42C66.5065 355.9 66.3199 355.64 65.9465 355.64ZM58.5717 176.85H55.3317V178.56C55.4717 178.387 55.6717 178.247 55.9317 178.14C56.1917 178.027 56.4683 177.97 56.7617 177.97C57.295 177.97 57.7317 178.087 58.0717 178.32C58.4117 178.553 58.6583 178.853 58.8117 179.22C58.965 179.58 59.0417 179.967 59.0417 180.38C59.0417 181.147 58.8217 181.763 58.3817 182.23C57.9483 182.697 57.3283 182.93 56.5217 182.93C55.7617 182.93 55.155 182.74 54.7017 182.36C54.2483 181.98 53.9917 181.483 53.9317 180.87H55.2917C55.3517 181.137 55.485 181.35 55.6917 181.51C55.905 181.67 56.175 181.75 56.5017 181.75C56.895 181.75 57.1917 181.627 57.3917 181.38C57.5917 181.133 57.6917 180.807 57.6917 180.4C57.6917 179.987 57.5883 179.673 57.3817 179.46C57.1817 179.24 56.885 179.13 56.4917 179.13C56.2117 179.13 55.9783 179.2 55.7917 179.34C55.605 179.48 55.4717 179.667 55.3917 179.9H54.0517V175.62H58.5717V176.85ZM60.1072 179.19C60.1072 178.037 60.3139 177.133 60.7272 176.48C61.1472 175.827 61.8406 175.5 62.8072 175.5C63.7739 175.5 64.4639 175.827 64.8772 176.48C65.2972 177.133 65.5072 178.037 65.5072 179.19C65.5072 180.35 65.2972 181.26 64.8772 181.92C64.4639 182.58 63.7739 182.91 62.8072 182.91C61.8406 182.91 61.1472 182.58 60.7272 181.92C60.3139 181.26 60.1072 180.35 60.1072 179.19ZM64.1272 179.19C64.1272 178.697 64.0939 178.283 64.0272 177.95C63.9672 177.61 63.8406 177.333 63.6472 177.12C63.4606 176.907 63.1806 176.8 62.8072 176.8C62.4339 176.8 62.1506 176.907 61.9572 177.12C61.7706 177.333 61.6439 177.61 61.5772 177.95C61.5172 178.283 61.4872 178.697 61.4872 179.19C61.4872 179.697 61.5172 180.123 61.5772 180.47C61.6372 180.81 61.7639 181.087 61.9572 181.3C62.1506 181.507 62.4339 181.61 62.8072 181.61C63.1806 181.61 63.4639 181.507 63.6572 181.3C63.8506 181.087 63.9772 180.81 64.0372 180.47C64.0972 180.123 64.1272 179.697 64.1272 179.19ZM66.4121 177.43C66.4121 176.923 66.5587 176.527 66.8521 176.24C67.1521 175.953 67.5354 175.81 68.0021 175.81C68.4687 175.81 68.8487 175.953 69.1421 176.24C69.4421 176.527 69.5921 176.923 69.5921 177.43C69.5921 177.943 69.4421 178.343 69.1421 178.63C68.8487 178.917 68.4687 179.06 68.0021 179.06C67.5354 179.06 67.1521 178.917 66.8521 178.63C66.5587 178.343 66.4121 177.943 66.4121 177.43ZM72.8321 175.93L68.9021 182.93H67.5421L71.4621 175.93H72.8321ZM67.9921 176.65C67.6254 176.65 67.4421 176.91 67.4421 177.43C67.4421 177.957 67.6254 178.22 67.9921 178.22C68.1721 178.22 68.3121 178.157 68.4121 178.03C68.5121 177.897 68.5621 177.697 68.5621 177.43C68.5621 176.91 68.3721 176.65 67.9921 176.65ZM70.8021 181.42C70.8021 180.907 70.9487 180.51 71.2421 180.23C71.5421 179.943 71.9254 179.8 72.3921 179.8C72.8587 179.8 73.2354 179.943 73.5221 180.23C73.8154 180.51 73.9621 180.907 73.9621 181.42C73.9621 181.933 73.8154 182.333 73.5221 182.62C73.2354 182.907 72.8587 183.05 72.3921 183.05C71.9187 183.05 71.5354 182.907 71.2421 182.62C70.9487 182.333 70.8021 181.933 70.8021 181.42ZM72.3821 180.64C72.0021 180.64 71.8121 180.9 71.8121 181.42C71.8121 181.947 72.0021 182.21 72.3821 182.21C72.7554 182.21 72.9421 181.947 72.9421 181.42C72.9421 180.9 72.7554 180.64 72.3821 180.64ZM58.3117 89.7L55.6517 95.93H54.2317L56.9117 89.86H53.4917V88.66H58.3117V89.7ZM64.0502 89.85H60.8102V91.56C60.9502 91.3867 61.1502 91.2467 61.4102 91.14C61.6702 91.0267 61.9469 90.97 62.2402 90.97C62.7735 90.97 63.2102 91.0867 63.5502 91.32C63.8902 91.5533 64.1369 91.8533 64.2902 92.22C64.4435 92.58 64.5202 92.9667 64.5202 93.38C64.5202 94.1467 64.3002 94.7633 63.8602 95.23C63.4269 95.6967 62.8069 95.93 62.0002 95.93C61.2402 95.93 60.6335 95.74 60.1802 95.36C59.7269 94.98 59.4702 94.4833 59.4102 93.87H60.7702C60.8302 94.1367 60.9635 94.35 61.1702 94.51C61.3835 94.67 61.6535 94.75 61.9802 94.75C62.3735 94.75 62.6702 94.6267 62.8702 94.38C63.0702 94.1333 63.1702 93.8067 63.1702 93.4C63.1702 92.9867 63.0669 92.6733 62.8602 92.46C62.6602 92.24 62.3635 92.13 61.9702 92.13C61.6902 92.13 61.4569 92.2 61.2702 92.34C61.0835 92.48 60.9502 92.6667 60.8702 92.9H59.5302V88.62H64.0502V89.85ZM65.4257 90.43C65.4257 89.9233 65.5724 89.5267 65.8657 89.24C66.1657 88.9533 66.5491 88.81 67.0157 88.81C67.4824 88.81 67.8624 88.9533 68.1557 89.24C68.4557 89.5267 68.6057 89.9233 68.6057 90.43C68.6057 90.9433 68.4557 91.3433 68.1557 91.63C67.8624 91.9167 67.4824 92.06 67.0157 92.06C66.5491 92.06 66.1657 91.9167 65.8657 91.63C65.5724 91.3433 65.4257 90.9433 65.4257 90.43ZM71.8457 88.93L67.9157 95.93H66.5557L70.4757 88.93H71.8457ZM67.0057 89.65C66.6391 89.65 66.4557 89.91 66.4557 90.43C66.4557 90.9567 66.6391 91.22 67.0057 91.22C67.1857 91.22 67.3257 91.1567 67.4257 91.03C67.5257 90.8967 67.5757 90.6967 67.5757 90.43C67.5757 89.91 67.3857 89.65 67.0057 89.65ZM69.8157 94.42C69.8157 93.9067 69.9624 93.51 70.2557 93.23C70.5557 92.9433 70.9391 92.8 71.4057 92.8C71.8724 92.8 72.2491 92.9433 72.5357 93.23C72.8291 93.51 72.9757 93.9067 72.9757 94.42C72.9757 94.9333 72.8291 95.3333 72.5357 95.62C72.2491 95.9067 71.8724 96.05 71.4057 96.05C70.9324 96.05 70.5491 95.9067 70.2557 95.62C69.9624 95.3333 69.8157 94.9333 69.8157 94.42ZM71.3957 93.64C71.0157 93.64 70.8257 93.9 70.8257 94.42C70.8257 94.9467 71.0157 95.21 71.3957 95.21C71.7691 95.21 71.9557 94.9467 71.9557 94.42C71.9557 93.9 71.7691 93.64 71.3957 93.64ZM53.5017 1.93V0.64H55.9117V7.93H54.4717V1.93H53.5017ZM57.2947 4.19C57.2947 3.03667 57.5014 2.13333 57.9147 1.48C58.3347 0.826667 59.0281 0.5 59.9947 0.5C60.9614 0.5 61.6514 0.826667 62.0647 1.48C62.4847 2.13333 62.6947 3.03667 62.6947 4.19C62.6947 5.35 62.4847 6.26 62.0647 6.92C61.6514 7.58 60.9614 7.91 59.9947 7.91C59.0281 7.91 58.3347 7.58 57.9147 6.92C57.5014 6.26 57.2947 5.35 57.2947 4.19ZM61.3147 4.19C61.3147 3.69667 61.2814 3.28333 61.2147 2.95C61.1547 2.61 61.0281 2.33333 60.8347 2.12C60.6481 1.90667 60.3681 1.8 59.9947 1.8C59.6214 1.8 59.3381 1.90667 59.1447 2.12C58.9581 2.33333 58.8314 2.61 58.7647 2.95C58.7047 3.28333 58.6747 3.69667 58.6747 4.19C58.6747 4.69667 58.7047 5.12333 58.7647 5.47C58.8247 5.81 58.9514 6.08667 59.1447 6.3C59.3381 6.50667 59.6214 6.61 59.9947 6.61C60.3681 6.61 60.6514 6.50667 60.8447 6.3C61.0381 6.08667 61.1647 5.81 61.2247 5.47C61.2847 5.12333 61.3147 4.69667 61.3147 4.19ZM63.7596 4.19C63.7596 3.03667 63.9662 2.13333 64.3796 1.48C64.7996 0.826667 65.4929 0.5 66.4596 0.5C67.4262 0.5 68.1162 0.826667 68.5296 1.48C68.9496 2.13333 69.1596 3.03667 69.1596 4.19C69.1596 5.35 68.9496 6.26 68.5296 6.92C68.1162 7.58 67.4262 7.91 66.4596 7.91C65.4929 7.91 64.7996 7.58 64.3796 6.92C63.9662 6.26 63.7596 5.35 63.7596 4.19ZM67.7796 4.19C67.7796 3.69667 67.7462 3.28333 67.6796 2.95C67.6196 2.61 67.4929 2.33333 67.2996 2.12C67.1129 1.90667 66.8329 1.8 66.4596 1.8C66.0862 1.8 65.8029 1.90667 65.6096 2.12C65.4229 2.33333 65.2962 2.61 65.2296 2.95C65.1696 3.28333 65.1396 3.69667 65.1396 4.19C65.1396 4.69667 65.1696 5.12333 65.2296 5.47C65.2896 5.81 65.4162 6.08667 65.6096 6.3C65.8029 6.50667 66.0862 6.61 66.4596 6.61C66.8329 6.61 67.1162 6.50667 67.3096 6.3C67.5029 6.08667 67.6296 5.81 67.6896 5.47C67.7496 5.12333 67.7796 4.69667 67.7796 4.19ZM70.0644 2.43C70.0644 1.92333 70.2111 1.52667 70.5044 1.24C70.8044 0.953333 71.1877 0.81 71.6544 0.81C72.1211 0.81 72.5011 0.953333 72.7944 1.24C73.0944 1.52667 73.2444 1.92333 73.2444 2.43C73.2444 2.94333 73.0944 3.34333 72.7944 3.63C72.5011 3.91667 72.1211 4.06 71.6544 4.06C71.1877 4.06 70.8044 3.91667 70.5044 3.63C70.2111 3.34333 70.0644 2.94333 70.0644 2.43ZM76.4844 0.93L72.5544 7.93H71.1944L75.1144 0.93H76.4844ZM71.6444 1.65C71.2777 1.65 71.0944 1.91 71.0944 2.43C71.0944 2.95667 71.2777 3.22 71.6444 3.22C71.8244 3.22 71.9644 3.15667 72.0644 3.03C72.1644 2.89667 72.2144 2.69667 72.2144 2.43C72.2144 1.91 72.0244 1.65 71.6444 1.65ZM74.4544 6.42C74.4544 5.90667 74.6011 5.51 74.8944 5.23C75.1944 4.94333 75.5777 4.8 76.0444 4.8C76.5111 4.8 76.8877 4.94333 77.1744 5.23C77.4677 5.51 77.6144 5.90667 77.6144 6.42C77.6144 6.93333 77.4677 7.33333 77.1744 7.62C76.8877 7.90667 76.5111 8.05 76.0444 8.05C75.5711 8.05 75.1877 7.90667 74.8944 7.62C74.6011 7.33333 74.4544 6.93333 74.4544 6.42ZM76.0344 5.64C75.6544 5.64 75.4644 5.9 75.4644 6.42C75.4644 6.94667 75.6544 7.21 76.0344 7.21C76.4077 7.21 76.5944 6.94667 76.5944 6.42C76.5944 5.9 76.4077 5.64 76.0344 5.64ZM200.112 378.35C200.752 377.817 201.262 377.373 201.642 377.02C202.022 376.66 202.338 376.287 202.592 375.9C202.845 375.513 202.972 375.133 202.972 374.76C202.972 374.42 202.892 374.153 202.732 373.96C202.572 373.767 202.325 373.67 201.992 373.67C201.658 373.67 201.402 373.783 201.222 374.01C201.042 374.23 200.948 374.533 200.942 374.92H199.582C199.608 374.12 199.845 373.513 200.292 373.1C200.745 372.687 201.318 372.48 202.012 372.48C202.772 372.48 203.355 372.683 203.762 373.09C204.168 373.49 204.372 374.02 204.372 374.68C204.372 375.2 204.232 375.697 203.952 376.17C203.672 376.643 203.352 377.057 202.992 377.41C202.632 377.757 202.162 378.177 201.582 378.67H204.532V379.83H199.592V378.79L200.112 378.35ZM205.414 376.19C205.414 375.037 205.621 374.133 206.034 373.48C206.454 372.827 207.147 372.5 208.114 372.5C209.081 372.5 209.771 372.827 210.184 373.48C210.604 374.133 210.814 375.037 210.814 376.19C210.814 377.35 210.604 378.26 210.184 378.92C209.771 379.58 209.081 379.91 208.114 379.91C207.147 379.91 206.454 379.58 206.034 378.92C205.621 378.26 205.414 377.35 205.414 376.19ZM209.434 376.19C209.434 375.697 209.401 375.283 209.334 374.95C209.274 374.61 209.147 374.333 208.954 374.12C208.767 373.907 208.487 373.8 208.114 373.8C207.741 373.8 207.457 373.907 207.264 374.12C207.077 374.333 206.951 374.61 206.884 374.95C206.824 375.283 206.794 375.697 206.794 376.19C206.794 376.697 206.824 377.123 206.884 377.47C206.944 377.81 207.071 378.087 207.264 378.3C207.457 378.507 207.741 378.61 208.114 378.61C208.487 378.61 208.771 378.507 208.964 378.3C209.157 378.087 209.284 377.81 209.344 377.47C209.404 377.123 209.434 376.697 209.434 376.19ZM211.709 373.93V372.64H214.119V379.93H212.679V373.93H211.709ZM219.282 374.46C219.215 374.18 219.098 373.97 218.932 373.83C218.772 373.69 218.538 373.62 218.232 373.62C217.772 373.62 217.432 373.807 217.212 374.18C216.998 374.547 216.888 375.147 216.882 375.98C217.042 375.713 217.275 375.507 217.582 375.36C217.888 375.207 218.222 375.13 218.582 375.13C219.015 375.13 219.398 375.223 219.732 375.41C220.065 375.597 220.325 375.87 220.512 376.23C220.698 376.583 220.792 377.01 220.792 377.51C220.792 377.983 220.695 378.407 220.502 378.78C220.315 379.147 220.038 379.433 219.672 379.64C219.305 379.847 218.868 379.95 218.362 379.95C217.668 379.95 217.122 379.797 216.722 379.49C216.328 379.183 216.052 378.757 215.892 378.21C215.738 377.657 215.662 376.977 215.662 376.17C215.662 374.95 215.872 374.03 216.292 373.41C216.712 372.783 217.375 372.47 218.282 372.47C218.982 372.47 219.525 372.66 219.912 373.04C220.298 373.42 220.522 373.893 220.582 374.46H219.282ZM218.262 376.28C217.908 376.28 217.612 376.383 217.372 376.59C217.132 376.797 217.012 377.097 217.012 377.49C217.012 377.883 217.122 378.193 217.342 378.42C217.568 378.647 217.885 378.76 218.292 378.76C218.652 378.76 218.935 378.65 219.142 378.43C219.355 378.21 219.462 377.913 219.462 377.54C219.462 377.153 219.358 376.847 219.152 376.62C218.952 376.393 218.655 376.28 218.262 376.28ZM265.112 378.35C265.752 377.817 266.262 377.373 266.642 377.02C267.022 376.66 267.338 376.287 267.592 375.9C267.845 375.513 267.972 375.133 267.972 374.76C267.972 374.42 267.892 374.153 267.732 373.96C267.572 373.767 267.325 373.67 266.992 373.67C266.658 373.67 266.402 373.783 266.222 374.01C266.042 374.23 265.948 374.533 265.942 374.92H264.582C264.608 374.12 264.845 373.513 265.292 373.1C265.745 372.687 266.318 372.48 267.012 372.48C267.772 372.48 268.355 372.683 268.762 373.09C269.168 373.49 269.372 374.02 269.372 374.68C269.372 375.2 269.232 375.697 268.952 376.17C268.672 376.643 268.352 377.057 267.992 377.41C267.632 377.757 267.162 378.177 266.582 378.67H269.532V379.83H264.592V378.79L265.112 378.35ZM270.414 376.19C270.414 375.037 270.621 374.133 271.034 373.48C271.454 372.827 272.147 372.5 273.114 372.5C274.081 372.5 274.771 372.827 275.184 373.48C275.604 374.133 275.814 375.037 275.814 376.19C275.814 377.35 275.604 378.26 275.184 378.92C274.771 379.58 274.081 379.91 273.114 379.91C272.147 379.91 271.454 379.58 271.034 378.92C270.621 378.26 270.414 377.35 270.414 376.19ZM274.434 376.19C274.434 375.697 274.401 375.283 274.334 374.95C274.274 374.61 274.147 374.333 273.954 374.12C273.767 373.907 273.487 373.8 273.114 373.8C272.741 373.8 272.457 373.907 272.264 374.12C272.077 374.333 271.951 374.61 271.884 374.95C271.824 375.283 271.794 375.697 271.794 376.19C271.794 376.697 271.824 377.123 271.884 377.47C271.944 377.81 272.071 378.087 272.264 378.3C272.457 378.507 272.741 378.61 273.114 378.61C273.487 378.61 273.771 378.507 273.964 378.3C274.157 378.087 274.284 377.81 274.344 377.47C274.404 377.123 274.434 376.697 274.434 376.19ZM276.709 373.93V372.64H279.119V379.93H277.679V373.93H276.709ZM285.142 373.7L282.482 379.93H281.062L283.742 373.86H280.322V372.66H285.142V373.7ZM331.112 378.35C331.752 377.817 332.262 377.373 332.642 377.02C333.022 376.66 333.338 376.287 333.592 375.9C333.845 375.513 333.972 375.133 333.972 374.76C333.972 374.42 333.892 374.153 333.732 373.96C333.572 373.767 333.325 373.67 332.992 373.67C332.658 373.67 332.402 373.783 332.222 374.01C332.042 374.23 331.948 374.533 331.942 374.92H330.582C330.608 374.12 330.845 373.513 331.292 373.1C331.745 372.687 332.318 372.48 333.012 372.48C333.772 372.48 334.355 372.683 334.762 373.09C335.168 373.49 335.372 374.02 335.372 374.68C335.372 375.2 335.232 375.697 334.952 376.17C334.672 376.643 334.352 377.057 333.992 377.41C333.632 377.757 333.162 378.177 332.582 378.67H335.532V379.83H330.592V378.79L331.112 378.35ZM336.414 376.19C336.414 375.037 336.621 374.133 337.034 373.48C337.454 372.827 338.147 372.5 339.114 372.5C340.081 372.5 340.771 372.827 341.184 373.48C341.604 374.133 341.814 375.037 341.814 376.19C341.814 377.35 341.604 378.26 341.184 378.92C340.771 379.58 340.081 379.91 339.114 379.91C338.147 379.91 337.454 379.58 337.034 378.92C336.621 378.26 336.414 377.35 336.414 376.19ZM340.434 376.19C340.434 375.697 340.401 375.283 340.334 374.95C340.274 374.61 340.147 374.333 339.954 374.12C339.767 373.907 339.487 373.8 339.114 373.8C338.741 373.8 338.457 373.907 338.264 374.12C338.077 374.333 337.951 374.61 337.884 374.95C337.824 375.283 337.794 375.697 337.794 376.19C337.794 376.697 337.824 377.123 337.884 377.47C337.944 377.81 338.071 378.087 338.264 378.3C338.457 378.507 338.741 378.61 339.114 378.61C339.487 378.61 339.771 378.507 339.964 378.3C340.157 378.087 340.284 377.81 340.344 377.47C340.404 377.123 340.434 376.697 340.434 376.19ZM342.709 373.93V372.64H345.119V379.93H343.679V373.93H342.709ZM347.722 376.07C347.055 375.723 346.722 375.187 346.722 374.46C346.722 374.1 346.812 373.773 346.992 373.48C347.178 373.18 347.455 372.943 347.822 372.77C348.195 372.59 348.648 372.5 349.182 372.5C349.715 372.5 350.165 372.59 350.532 372.77C350.905 372.943 351.182 373.18 351.362 373.48C351.548 373.773 351.642 374.1 351.642 374.46C351.642 374.827 351.552 375.15 351.372 375.43C351.192 375.703 350.952 375.917 350.652 376.07C351.018 376.23 351.305 376.463 351.512 376.77C351.718 377.077 351.822 377.44 351.822 377.86C351.822 378.313 351.705 378.71 351.472 379.05C351.245 379.383 350.932 379.64 350.532 379.82C350.132 380 349.682 380.09 349.182 380.09C348.682 380.09 348.232 380 347.832 379.82C347.438 379.64 347.125 379.383 346.892 379.05C346.665 378.71 346.552 378.313 346.552 377.86C346.552 377.44 346.655 377.077 346.862 376.77C347.068 376.457 347.355 376.223 347.722 376.07ZM350.282 374.66C350.282 374.333 350.182 374.08 349.982 373.9C349.788 373.72 349.522 373.63 349.182 373.63C348.848 373.63 348.582 373.72 348.382 373.9C348.188 374.08 348.092 374.337 348.092 374.67C348.092 374.97 348.192 375.21 348.392 375.39C348.598 375.57 348.862 375.66 349.182 375.66C349.502 375.66 349.765 375.57 349.972 375.39C350.178 375.203 350.282 374.96 350.282 374.66ZM349.182 376.68C348.802 376.68 348.492 376.777 348.252 376.97C348.018 377.163 347.902 377.44 347.902 377.8C347.902 378.133 348.015 378.407 348.242 378.62C348.475 378.827 348.788 378.93 349.182 378.93C349.575 378.93 349.885 378.823 350.112 378.61C350.338 378.397 350.452 378.127 350.452 377.8C350.452 377.447 350.335 377.173 350.102 376.98C349.868 376.78 349.562 376.68 349.182 376.68ZM395.112 378.35C395.752 377.817 396.262 377.373 396.642 377.02C397.022 376.66 397.338 376.287 397.592 375.9C397.845 375.513 397.972 375.133 397.972 374.76C397.972 374.42 397.892 374.153 397.732 373.96C397.572 373.767 397.325 373.67 396.992 373.67C396.658 373.67 396.402 373.783 396.222 374.01C396.042 374.23 395.948 374.533 395.942 374.92H394.582C394.608 374.12 394.845 373.513 395.292 373.1C395.745 372.687 396.318 372.48 397.012 372.48C397.772 372.48 398.355 372.683 398.762 373.09C399.168 373.49 399.372 374.02 399.372 374.68C399.372 375.2 399.232 375.697 398.952 376.17C398.672 376.643 398.352 377.057 397.992 377.41C397.632 377.757 397.162 378.177 396.582 378.67H399.532V379.83H394.592V378.79L395.112 378.35ZM400.414 376.19C400.414 375.037 400.621 374.133 401.034 373.48C401.454 372.827 402.147 372.5 403.114 372.5C404.081 372.5 404.771 372.827 405.184 373.48C405.604 374.133 405.814 375.037 405.814 376.19C405.814 377.35 405.604 378.26 405.184 378.92C404.771 379.58 404.081 379.91 403.114 379.91C402.147 379.91 401.454 379.58 401.034 378.92C400.621 378.26 400.414 377.35 400.414 376.19ZM404.434 376.19C404.434 375.697 404.401 375.283 404.334 374.95C404.274 374.61 404.147 374.333 403.954 374.12C403.767 373.907 403.487 373.8 403.114 373.8C402.741 373.8 402.457 373.907 402.264 374.12C402.077 374.333 401.951 374.61 401.884 374.95C401.824 375.283 401.794 375.697 401.794 376.19C401.794 376.697 401.824 377.123 401.884 377.47C401.944 377.81 402.071 378.087 402.264 378.3C402.457 378.507 402.741 378.61 403.114 378.61C403.487 378.61 403.771 378.507 403.964 378.3C404.157 378.087 404.284 377.81 404.344 377.47C404.404 377.123 404.434 376.697 404.434 376.19ZM406.709 373.93V372.64H409.119V379.93H407.679V373.93H406.709ZM412.122 377.88C412.175 378.173 412.295 378.4 412.482 378.56C412.675 378.713 412.932 378.79 413.252 378.79C413.665 378.79 413.965 378.62 414.152 378.28C414.338 377.933 414.432 377.353 414.432 376.54C414.278 376.753 414.062 376.92 413.782 377.04C413.508 377.16 413.212 377.22 412.892 377.22C412.465 377.22 412.078 377.133 411.732 376.96C411.392 376.78 411.122 376.517 410.922 376.17C410.722 375.817 410.622 375.39 410.622 374.89C410.622 374.15 410.842 373.563 411.282 373.13C411.722 372.69 412.322 372.47 413.082 372.47C414.028 372.47 414.695 372.773 415.082 373.38C415.475 373.987 415.672 374.9 415.672 376.12C415.672 376.987 415.595 377.697 415.442 378.25C415.295 378.803 415.038 379.223 414.672 379.51C414.312 379.797 413.818 379.94 413.192 379.94C412.698 379.94 412.278 379.847 411.932 379.66C411.585 379.467 411.318 379.217 411.132 378.91C410.952 378.597 410.848 378.253 410.822 377.88H412.122ZM413.182 376.08C413.528 376.08 413.802 375.973 414.002 375.76C414.202 375.547 414.302 375.26 414.302 374.9C414.302 374.507 414.195 374.203 413.982 373.99C413.775 373.77 413.492 373.66 413.132 373.66C412.772 373.66 412.485 373.773 412.272 374C412.065 374.22 411.962 374.513 411.962 374.88C411.962 375.233 412.062 375.523 412.262 375.75C412.468 375.97 412.775 376.08 413.182 376.08ZM460.112 378.35C460.752 377.817 461.262 377.373 461.642 377.02C462.022 376.66 462.338 376.287 462.592 375.9C462.845 375.513 462.972 375.133 462.972 374.76C462.972 374.42 462.892 374.153 462.732 373.96C462.572 373.767 462.325 373.67 461.992 373.67C461.658 373.67 461.402 373.783 461.222 374.01C461.042 374.23 460.948 374.533 460.942 374.92H459.582C459.608 374.12 459.845 373.513 460.292 373.1C460.745 372.687 461.318 372.48 462.012 372.48C462.772 372.48 463.355 372.683 463.762 373.09C464.168 373.49 464.372 374.02 464.372 374.68C464.372 375.2 464.232 375.697 463.952 376.17C463.672 376.643 463.352 377.057 462.992 377.41C462.632 377.757 462.162 378.177 461.582 378.67H464.532V379.83H459.592V378.79L460.112 378.35ZM465.414 376.19C465.414 375.037 465.621 374.133 466.034 373.48C466.454 372.827 467.147 372.5 468.114 372.5C469.081 372.5 469.771 372.827 470.184 373.48C470.604 374.133 470.814 375.037 470.814 376.19C470.814 377.35 470.604 378.26 470.184 378.92C469.771 379.58 469.081 379.91 468.114 379.91C467.147 379.91 466.454 379.58 466.034 378.92C465.621 378.26 465.414 377.35 465.414 376.19ZM469.434 376.19C469.434 375.697 469.401 375.283 469.334 374.95C469.274 374.61 469.147 374.333 468.954 374.12C468.767 373.907 468.487 373.8 468.114 373.8C467.741 373.8 467.457 373.907 467.264 374.12C467.077 374.333 466.951 374.61 466.884 374.95C466.824 375.283 466.794 375.697 466.794 376.19C466.794 376.697 466.824 377.123 466.884 377.47C466.944 377.81 467.071 378.087 467.264 378.3C467.457 378.507 467.741 378.61 468.114 378.61C468.487 378.61 468.771 378.507 468.964 378.3C469.157 378.087 469.284 377.81 469.344 377.47C469.404 377.123 469.434 376.697 469.434 376.19ZM472.319 378.35C472.959 377.817 473.469 377.373 473.849 377.02C474.229 376.66 474.545 376.287 474.799 375.9C475.052 375.513 475.179 375.133 475.179 374.76C475.179 374.42 475.099 374.153 474.939 373.96C474.779 373.767 474.532 373.67 474.199 373.67C473.865 373.67 473.609 373.783 473.429 374.01C473.249 374.23 473.155 374.533 473.149 374.92H471.789C471.815 374.12 472.052 373.513 472.499 373.1C472.952 372.687 473.525 372.48 474.219 372.48C474.979 372.48 475.562 372.683 475.969 373.09C476.375 373.49 476.579 374.02 476.579 374.68C476.579 375.2 476.439 375.697 476.159 376.17C475.879 376.643 475.559 377.057 475.199 377.41C474.839 377.757 474.369 378.177 473.789 378.67H476.739V379.83H471.799V378.79L472.319 378.35ZM477.621 376.19C477.621 375.037 477.828 374.133 478.241 373.48C478.661 372.827 479.354 372.5 480.321 372.5C481.288 372.5 481.978 372.827 482.391 373.48C482.811 374.133 483.021 375.037 483.021 376.19C483.021 377.35 482.811 378.26 482.391 378.92C481.978 379.58 481.288 379.91 480.321 379.91C479.354 379.91 478.661 379.58 478.241 378.92C477.828 378.26 477.621 377.35 477.621 376.19ZM481.641 376.19C481.641 375.697 481.608 375.283 481.541 374.95C481.481 374.61 481.354 374.333 481.161 374.12C480.974 373.907 480.694 373.8 480.321 373.8C479.948 373.8 479.664 373.907 479.471 374.12C479.284 374.333 479.158 374.61 479.091 374.95C479.031 375.283 479.001 375.697 479.001 376.19C479.001 376.697 479.031 377.123 479.091 377.47C479.151 377.81 479.278 378.087 479.471 378.3C479.664 378.507 479.948 378.61 480.321 378.61C480.694 378.61 480.978 378.507 481.171 378.3C481.364 378.087 481.491 377.81 481.551 377.47C481.611 377.123 481.641 376.697 481.641 376.19ZM524.112 378.35C524.752 377.817 525.262 377.373 525.642 377.02C526.022 376.66 526.338 376.287 526.592 375.9C526.845 375.513 526.972 375.133 526.972 374.76C526.972 374.42 526.892 374.153 526.732 373.96C526.572 373.767 526.325 373.67 525.992 373.67C525.658 373.67 525.402 373.783 525.222 374.01C525.042 374.23 524.948 374.533 524.942 374.92H523.582C523.608 374.12 523.845 373.513 524.292 373.1C524.745 372.687 525.318 372.48 526.012 372.48C526.772 372.48 527.355 372.683 527.762 373.09C528.168 373.49 528.372 374.02 528.372 374.68C528.372 375.2 528.232 375.697 527.952 376.17C527.672 376.643 527.352 377.057 526.992 377.41C526.632 377.757 526.162 378.177 525.582 378.67H528.532V379.83H523.592V378.79L524.112 378.35ZM529.414 376.19C529.414 375.037 529.621 374.133 530.034 373.48C530.454 372.827 531.147 372.5 532.114 372.5C533.08 372.5 533.771 372.827 534.184 373.48C534.604 374.133 534.814 375.037 534.814 376.19C534.814 377.35 534.604 378.26 534.184 378.92C533.771 379.58 533.08 379.91 532.114 379.91C531.147 379.91 530.454 379.58 530.034 378.92C529.621 378.26 529.414 377.35 529.414 376.19ZM533.434 376.19C533.434 375.697 533.401 375.283 533.334 374.95C533.274 374.61 533.147 374.333 532.954 374.12C532.767 373.907 532.487 373.8 532.114 373.8C531.74 373.8 531.457 373.907 531.264 374.12C531.077 374.333 530.951 374.61 530.884 374.95C530.824 375.283 530.794 375.697 530.794 376.19C530.794 376.697 530.824 377.123 530.884 377.47C530.944 377.81 531.071 378.087 531.264 378.3C531.457 378.507 531.74 378.61 532.114 378.61C532.487 378.61 532.771 378.507 532.964 378.3C533.157 378.087 533.284 377.81 533.344 377.47C533.404 377.123 533.434 376.697 533.434 376.19ZM536.319 378.35C536.959 377.817 537.469 377.373 537.849 377.02C538.229 376.66 538.545 376.287 538.799 375.9C539.052 375.513 539.179 375.133 539.179 374.76C539.179 374.42 539.099 374.153 538.939 373.96C538.779 373.767 538.532 373.67 538.199 373.67C537.865 373.67 537.609 373.783 537.429 374.01C537.249 374.23 537.155 374.533 537.149 374.92H535.789C535.815 374.12 536.052 373.513 536.499 373.1C536.952 372.687 537.525 372.48 538.219 372.48C538.979 372.48 539.562 372.683 539.969 373.09C540.375 373.49 540.579 374.02 540.579 374.68C540.579 375.2 540.439 375.697 540.159 376.17C539.879 376.643 539.559 377.057 539.199 377.41C538.839 377.757 538.369 378.177 537.789 378.67H540.739V379.83H535.799V378.79L536.319 378.35ZM541.451 373.93V372.64H543.861V379.93H542.421V373.93H541.451ZM590.112 378.35C590.752 377.817 591.262 377.373 591.642 377.02C592.022 376.66 592.338 376.287 592.592 375.9C592.845 375.513 592.972 375.133 592.972 374.76C592.972 374.42 592.892 374.153 592.732 373.96C592.572 373.767 592.325 373.67 591.992 373.67C591.658 373.67 591.402 373.783 591.222 374.01C591.042 374.23 590.948 374.533 590.942 374.92H589.582C589.608 374.12 589.845 373.513 590.292 373.1C590.745 372.687 591.318 372.48 592.012 372.48C592.772 372.48 593.355 372.683 593.762 373.09C594.168 373.49 594.372 374.02 594.372 374.68C594.372 375.2 594.232 375.697 593.952 376.17C593.672 376.643 593.352 377.057 592.992 377.41C592.632 377.757 592.162 378.177 591.582 378.67H594.532V379.83H589.592V378.79L590.112 378.35ZM595.414 376.19C595.414 375.037 595.621 374.133 596.034 373.48C596.454 372.827 597.147 372.5 598.114 372.5C599.08 372.5 599.771 372.827 600.184 373.48C600.604 374.133 600.814 375.037 600.814 376.19C600.814 377.35 600.604 378.26 600.184 378.92C599.771 379.58 599.08 379.91 598.114 379.91C597.147 379.91 596.454 379.58 596.034 378.92C595.621 378.26 595.414 377.35 595.414 376.19ZM599.434 376.19C599.434 375.697 599.401 375.283 599.334 374.95C599.274 374.61 599.147 374.333 598.954 374.12C598.767 373.907 598.487 373.8 598.114 373.8C597.74 373.8 597.457 373.907 597.264 374.12C597.077 374.333 596.951 374.61 596.884 374.95C596.824 375.283 596.794 375.697 596.794 376.19C596.794 376.697 596.824 377.123 596.884 377.47C596.944 377.81 597.071 378.087 597.264 378.3C597.457 378.507 597.74 378.61 598.114 378.61C598.487 378.61 598.771 378.507 598.964 378.3C599.157 378.087 599.284 377.81 599.344 377.47C599.404 377.123 599.434 376.697 599.434 376.19ZM602.319 378.35C602.959 377.817 603.469 377.373 603.849 377.02C604.229 376.66 604.545 376.287 604.799 375.9C605.052 375.513 605.179 375.133 605.179 374.76C605.179 374.42 605.099 374.153 604.939 373.96C604.779 373.767 604.532 373.67 604.199 373.67C603.865 373.67 603.609 373.783 603.429 374.01C603.249 374.23 603.155 374.533 603.149 374.92H601.789C601.815 374.12 602.052 373.513 602.499 373.1C602.952 372.687 603.525 372.48 604.219 372.48C604.979 372.48 605.562 372.683 605.969 373.09C606.375 373.49 606.579 374.02 606.579 374.68C606.579 375.2 606.439 375.697 606.159 376.17C605.879 376.643 605.559 377.057 605.199 377.41C604.839 377.757 604.369 378.177 603.789 378.67H606.739V379.83H601.799V378.79L602.319 378.35ZM608.061 378.35C608.701 377.817 609.211 377.373 609.591 377.02C609.971 376.66 610.288 376.287 610.541 375.9C610.794 375.513 610.921 375.133 610.921 374.76C610.921 374.42 610.841 374.153 610.681 373.96C610.521 373.767 610.274 373.67 609.941 373.67C609.608 373.67 609.351 373.783 609.171 374.01C608.991 374.23 608.898 374.533 608.891 374.92H607.531C607.558 374.12 607.794 373.513 608.241 373.1C608.694 372.687 609.268 372.48 609.961 372.48C610.721 372.48 611.304 372.683 611.711 373.09C612.118 373.49 612.321 374.02 612.321 374.68C612.321 375.2 612.181 375.697 611.901 376.17C611.621 376.643 611.301 377.057 610.941 377.41C610.581 377.757 610.111 378.177 609.531 378.67H612.481V379.83H607.541V378.79L608.061 378.35ZM655.112 378.35C655.752 377.817 656.262 377.373 656.642 377.02C657.022 376.66 657.338 376.287 657.592 375.9C657.845 375.513 657.972 375.133 657.972 374.76C657.972 374.42 657.892 374.153 657.732 373.96C657.572 373.767 657.325 373.67 656.992 373.67C656.658 373.67 656.402 373.783 656.222 374.01C656.042 374.23 655.948 374.533 655.942 374.92H654.582C654.608 374.12 654.845 373.513 655.292 373.1C655.745 372.687 656.318 372.48 657.012 372.48C657.772 372.48 658.355 372.683 658.762 373.09C659.168 373.49 659.372 374.02 659.372 374.68C659.372 375.2 659.232 375.697 658.952 376.17C658.672 376.643 658.352 377.057 657.992 377.41C657.632 377.757 657.162 378.177 656.582 378.67H659.532V379.83H654.592V378.79L655.112 378.35ZM660.414 376.19C660.414 375.037 660.621 374.133 661.034 373.48C661.454 372.827 662.147 372.5 663.114 372.5C664.08 372.5 664.771 372.827 665.184 373.48C665.604 374.133 665.814 375.037 665.814 376.19C665.814 377.35 665.604 378.26 665.184 378.92C664.771 379.58 664.08 379.91 663.114 379.91C662.147 379.91 661.454 379.58 661.034 378.92C660.621 378.26 660.414 377.35 660.414 376.19ZM664.434 376.19C664.434 375.697 664.401 375.283 664.334 374.95C664.274 374.61 664.147 374.333 663.954 374.12C663.767 373.907 663.487 373.8 663.114 373.8C662.74 373.8 662.457 373.907 662.264 374.12C662.077 374.333 661.951 374.61 661.884 374.95C661.824 375.283 661.794 375.697 661.794 376.19C661.794 376.697 661.824 377.123 661.884 377.47C661.944 377.81 662.071 378.087 662.264 378.3C662.457 378.507 662.74 378.61 663.114 378.61C663.487 378.61 663.771 378.507 663.964 378.3C664.157 378.087 664.284 377.81 664.344 377.47C664.404 377.123 664.434 376.697 664.434 376.19ZM667.319 378.35C667.959 377.817 668.469 377.373 668.849 377.02C669.229 376.66 669.545 376.287 669.799 375.9C670.052 375.513 670.179 375.133 670.179 374.76C670.179 374.42 670.099 374.153 669.939 373.96C669.779 373.767 669.532 373.67 669.199 373.67C668.865 373.67 668.609 373.783 668.429 374.01C668.249 374.23 668.155 374.533 668.149 374.92H666.789C666.815 374.12 667.052 373.513 667.499 373.1C667.952 372.687 668.525 372.48 669.219 372.48C669.979 372.48 670.562 372.683 670.969 373.09C671.375 373.49 671.579 374.02 671.579 374.68C671.579 375.2 671.439 375.697 671.159 376.17C670.879 376.643 670.559 377.057 670.199 377.41C669.839 377.757 669.369 378.177 668.789 378.67H671.739V379.83H666.799V378.79L667.319 378.35ZM672.641 374.56C672.674 373.893 672.908 373.38 673.341 373.02C673.781 372.653 674.358 372.47 675.071 372.47C675.558 372.47 675.974 372.557 676.321 372.73C676.668 372.897 676.928 373.127 677.101 373.42C677.281 373.707 677.371 374.033 677.371 374.4C677.371 374.82 677.261 375.177 677.041 375.47C676.828 375.757 676.571 375.95 676.271 376.05V376.09C676.658 376.21 676.958 376.423 677.171 376.73C677.391 377.037 677.501 377.43 677.501 377.91C677.501 378.31 677.408 378.667 677.221 378.98C677.041 379.293 676.771 379.54 676.411 379.72C676.058 379.893 675.631 379.98 675.131 379.98C674.378 379.98 673.764 379.79 673.291 379.41C672.818 379.03 672.568 378.47 672.541 377.73H673.901C673.914 378.057 674.024 378.32 674.231 378.52C674.444 378.713 674.734 378.81 675.101 378.81C675.441 378.81 675.701 378.717 675.881 378.53C676.068 378.337 676.161 378.09 676.161 377.79C676.161 377.39 676.034 377.103 675.781 376.93C675.528 376.757 675.134 376.67 674.601 376.67H674.311V375.52H674.601C675.548 375.52 676.021 375.203 676.021 374.57C676.021 374.283 675.934 374.06 675.761 373.9C675.594 373.74 675.351 373.66 675.031 373.66C674.718 373.66 674.474 373.747 674.301 373.92C674.134 374.087 674.038 374.3 674.011 374.56H672.641ZM720.112 378.35C720.752 377.817 721.262 377.373 721.642 377.02C722.022 376.66 722.338 376.287 722.592 375.9C722.845 375.513 722.972 375.133 722.972 374.76C722.972 374.42 722.892 374.153 722.732 373.96C722.572 373.767 722.325 373.67 721.992 373.67C721.658 373.67 721.402 373.783 721.222 374.01C721.042 374.23 720.948 374.533 720.942 374.92H719.582C719.608 374.12 719.845 373.513 720.292 373.1C720.745 372.687 721.318 372.48 722.012 372.48C722.772 372.48 723.355 372.683 723.762 373.09C724.168 373.49 724.372 374.02 724.372 374.68C724.372 375.2 724.232 375.697 723.952 376.17C723.672 376.643 723.352 377.057 722.992 377.41C722.632 377.757 722.162 378.177 721.582 378.67H724.532V379.83H719.592V378.79L720.112 378.35ZM725.414 376.19C725.414 375.037 725.621 374.133 726.034 373.48C726.454 372.827 727.147 372.5 728.114 372.5C729.08 372.5 729.771 372.827 730.184 373.48C730.604 374.133 730.814 375.037 730.814 376.19C730.814 377.35 730.604 378.26 730.184 378.92C729.771 379.58 729.08 379.91 728.114 379.91C727.147 379.91 726.454 379.58 726.034 378.92C725.621 378.26 725.414 377.35 725.414 376.19ZM729.434 376.19C729.434 375.697 729.401 375.283 729.334 374.95C729.274 374.61 729.147 374.333 728.954 374.12C728.767 373.907 728.487 373.8 728.114 373.8C727.74 373.8 727.457 373.907 727.264 374.12C727.077 374.333 726.951 374.61 726.884 374.95C726.824 375.283 726.794 375.697 726.794 376.19C726.794 376.697 726.824 377.123 726.884 377.47C726.944 377.81 727.071 378.087 727.264 378.3C727.457 378.507 727.74 378.61 728.114 378.61C728.487 378.61 728.771 378.507 728.964 378.3C729.157 378.087 729.284 377.81 729.344 377.47C729.404 377.123 729.434 376.697 729.434 376.19ZM732.319 378.35C732.959 377.817 733.469 377.373 733.849 377.02C734.229 376.66 734.545 376.287 734.799 375.9C735.052 375.513 735.179 375.133 735.179 374.76C735.179 374.42 735.099 374.153 734.939 373.96C734.779 373.767 734.532 373.67 734.199 373.67C733.865 373.67 733.609 373.783 733.429 374.01C733.249 374.23 733.155 374.533 733.149 374.92H731.789C731.815 374.12 732.052 373.513 732.499 373.1C732.952 372.687 733.525 372.48 734.219 372.48C734.979 372.48 735.562 372.683 735.969 373.09C736.375 373.49 736.579 374.02 736.579 374.68C736.579 375.2 736.439 375.697 736.159 376.17C735.879 376.643 735.559 377.057 735.199 377.41C734.839 377.757 734.369 378.177 733.789 378.67H736.739V379.83H731.799V378.79L732.319 378.35ZM737.561 378.51V377.41L740.831 372.73H742.461V377.29H743.341V378.51H742.461V379.93H741.061V378.51H737.561ZM741.151 374.23L739.101 377.29H741.151V374.23Z" stroke="white"/>
</svg>
