<svg width="1035" height="555" viewBox="0 0 1035 555" fill="none" xmlns="http://www.w3.org/2000/svg">
<path d="M120.54 467.425V5.01867M191.738 479.282V467.425M277.439 479.282V467.425M363.139 479.282V467.425M448.84 479.282V467.425M534.541 479.282V467.425M620.241 479.282V467.425M705.942 479.282V467.425M791.643 479.282V467.425M877.344 479.282V467.425M963.044 479.282V467.425M109.333 120.95H121.199M109.333 236.222H121.199M109.333 351.494H121.199M109.333 466.767H1034.9M109.333 5.67737H121.199M533.644 551.749H528.613L527.648 554.374H526.477L530.511 543.465H531.761L535.78 554.374H534.609L533.644 551.749ZM533.312 550.832L531.128 544.857L528.945 550.832H533.312ZM541.608 545.584C542.642 545.584 543.485 545.905 544.139 546.548C544.793 547.181 545.12 548.103 545.12 549.315V554.374H544.029V549.441C544.029 548.503 543.791 547.787 543.317 547.291C542.853 546.796 542.214 546.548 541.402 546.548C540.569 546.548 539.904 546.812 539.409 547.339C538.913 547.866 538.665 548.64 538.665 549.663V554.374H537.558V545.742H538.665V547.212C538.939 546.685 539.335 546.285 539.852 546.011C540.369 545.726 540.954 545.584 541.608 545.584ZM551.62 545.584C552.654 545.584 553.498 545.905 554.151 546.548C554.805 547.181 555.132 548.103 555.132 549.315V554.374H554.041V549.441C554.041 548.503 553.803 547.787 553.329 547.291C552.865 546.796 552.227 546.548 551.414 546.548C550.581 546.548 549.917 546.812 549.421 547.339C548.925 547.866 548.677 548.64 548.677 549.663V554.374H547.57V545.742H548.677V547.212C548.951 546.685 549.347 546.285 549.864 546.011C550.381 545.726 550.966 545.584 551.62 545.584ZM565.398 549.615C565.398 549.994 565.387 550.284 565.366 550.485H558.199C558.231 551.138 558.389 551.697 558.674 552.16C558.958 552.624 559.333 552.977 559.797 553.219C560.261 553.451 560.767 553.567 561.316 553.567C562.033 553.567 562.634 553.393 563.119 553.046C563.615 552.698 563.942 552.229 564.1 551.639H565.271C565.06 552.482 564.607 553.172 563.911 553.71C563.225 554.237 562.36 554.5 561.316 554.5C560.504 554.5 559.776 554.321 559.132 553.963C558.489 553.594 557.983 553.077 557.613 552.413C557.255 551.739 557.076 550.954 557.076 550.058C557.076 549.162 557.255 548.377 557.613 547.702C557.972 547.028 558.473 546.511 559.117 546.153C559.76 545.795 560.493 545.615 561.316 545.615C562.138 545.615 562.856 545.795 563.467 546.153C564.09 546.511 564.564 546.996 564.891 547.607C565.229 548.208 565.398 548.877 565.398 549.615ZM564.274 549.583C564.285 548.941 564.153 548.393 563.879 547.939C563.615 547.486 563.251 547.144 562.787 546.912C562.323 546.68 561.817 546.564 561.268 546.564C560.446 546.564 559.744 546.827 559.164 547.354C558.584 547.881 558.262 548.624 558.199 549.583H564.274ZM562.692 543.197L559.449 545.078V544.224L562.692 542.201V543.197ZM575.24 549.615C575.24 549.994 575.229 550.284 575.208 550.485H568.041C568.073 551.138 568.231 551.697 568.516 552.16C568.801 552.624 569.175 552.977 569.639 553.219C570.103 553.451 570.609 553.567 571.158 553.567C571.875 553.567 572.476 553.393 572.962 553.046C573.457 552.698 573.784 552.229 573.943 551.639H575.113C574.902 552.482 574.449 553.172 573.753 553.71C573.067 554.237 572.202 554.5 571.158 554.5C570.346 554.5 569.618 554.321 568.975 553.963C568.331 553.594 567.825 553.077 567.456 552.413C567.097 551.739 566.918 550.954 566.918 550.058C566.918 549.162 567.097 548.377 567.456 547.702C567.814 547.028 568.315 546.511 568.959 546.153C569.602 545.795 570.335 545.615 571.158 545.615C571.981 545.615 572.698 545.795 573.31 546.153C573.932 546.511 574.407 546.996 574.734 547.607C575.071 548.208 575.24 548.877 575.24 549.615ZM574.117 549.583C574.127 548.941 573.995 548.393 573.721 547.939C573.457 547.486 573.093 547.144 572.629 546.912C572.165 546.68 571.659 546.564 571.11 546.564C570.288 546.564 569.586 546.827 569.006 547.354C568.426 547.881 568.104 548.624 568.041 549.583H574.117ZM2.02538 368.271H2.94303V373.14H7.07249V369.029H7.99015V373.14H13.0847V374.246H2.02538V368.271ZM5.9808 365.343C5.44286 365.101 5.02622 364.732 4.73088 364.237C4.43555 363.731 4.28788 363.114 4.28788 362.387H5.44286V362.688C5.44286 363.489 5.65909 364.131 6.09155 364.616C6.52401 365.101 7.24653 365.343 8.25912 365.343H13.0847V366.45H4.44609V365.343H5.9808ZM8.74959 361.228C7.86357 361.228 7.08831 361.054 6.4238 360.707C5.74874 360.348 5.2319 359.858 4.87328 359.236C4.50411 358.604 4.31952 357.893 4.31952 357.102C4.31952 356.28 4.50938 355.574 4.8891 354.984C5.26882 354.383 5.75402 353.951 6.34469 353.688H4.44609V352.581H13.0847V353.688H11.1703C11.761 353.962 12.2515 354.399 12.6417 355C13.0214 355.59 13.2113 356.296 13.2113 357.118C13.2113 357.898 13.0267 358.604 12.6575 359.236C12.2884 359.858 11.7663 360.348 11.0912 360.707C10.4161 361.054 9.6356 361.228 8.74959 361.228ZM8.76541 353.688C8.06926 353.688 7.45749 353.83 6.9301 354.114C6.40271 354.399 5.99662 354.789 5.71183 355.284C5.42704 355.769 5.28464 356.307 5.28464 356.897C5.28464 357.508 5.42176 358.056 5.69601 358.541C5.97025 359.026 6.37106 359.41 6.89845 359.695C7.41529 359.969 8.03234 360.106 8.74959 360.106C9.45629 360.106 10.0786 359.969 10.6165 359.695C11.1439 359.41 11.55 359.026 11.8348 358.541C12.1091 358.056 12.2462 357.508 12.2462 356.897C12.2462 356.307 12.1038 355.769 11.819 355.284C11.5342 354.789 11.1281 354.399 10.6007 354.114C10.0733 353.83 9.46156 353.688 8.76541 353.688ZM4.28788 346.008C4.28788 344.975 4.60958 344.132 5.253 343.478C5.88587 342.825 6.8088 342.498 8.02179 342.498H13.0847V343.589H8.14837C7.20961 343.589 6.49236 343.826 5.99662 344.3C5.50087 344.764 5.253 345.402 5.253 346.213C5.253 347.046 5.51669 347.71 6.04408 348.205C6.57147 348.7 7.34673 348.948 8.36987 348.948H13.0847V350.055H4.44609V348.948H5.91751C5.39012 348.674 4.9893 348.279 4.71506 347.762C4.43027 347.246 4.28788 346.661 4.28788 346.008ZM12.2778 336.367C12.2778 335.64 12.1038 335.034 11.7557 334.549C11.3971 334.054 10.9013 333.732 10.2685 333.585V332.399C11.1017 332.589 11.7821 333 12.3095 333.632C12.8369 334.254 13.1322 335.044 13.1955 336.004H14.1448C14.1237 335.382 14.2397 334.892 14.4929 334.533C14.7566 334.164 15.131 333.98 15.6162 333.98C16.0908 333.98 16.4653 334.149 16.7395 334.486C17.0243 334.823 17.1667 335.271 17.1667 335.83V337.411H16.4231V336.051C16.4231 335.661 16.3545 335.376 16.2174 335.197C16.0908 335.008 15.8904 334.913 15.6162 334.913C15.1099 334.913 14.8568 335.292 14.8568 336.051V336.778H13.1955C13.1322 337.516 12.916 338.169 12.5468 338.738C12.1671 339.308 11.6555 339.756 11.0121 340.082C10.3581 340.398 9.60923 340.557 8.76541 340.557C7.86885 340.557 7.08831 340.377 6.4238 340.019C5.74874 339.661 5.2319 339.165 4.87328 338.533C4.50411 337.901 4.31952 337.179 4.31952 336.367C4.31952 335.303 4.58321 334.428 5.1106 333.743C5.63799 333.047 6.35524 332.599 7.26235 332.399V333.585C6.64003 333.732 6.15483 334.054 5.80676 334.549C5.44813 335.034 5.26882 335.64 5.26882 336.367C5.26882 336.947 5.40067 337.469 5.66436 337.932C5.92806 338.396 6.3236 338.765 6.85099 339.039C7.36783 339.302 8.00597 339.434 8.76541 339.434C9.52485 339.434 10.1683 339.302 10.6957 339.039C11.223 338.765 11.6186 338.396 11.8823 337.932C12.146 337.469 12.2778 336.947 12.2778 336.367ZM8.74959 330.861C7.86357 330.861 7.08831 330.687 6.4238 330.34C5.74874 329.981 5.2319 329.491 4.87328 328.869C4.50411 328.237 4.31952 327.526 4.31952 326.735C4.31952 325.913 4.50938 325.207 4.8891 324.617C5.26882 324.016 5.75402 323.584 6.34469 323.32H4.44609V322.214H13.0847V323.32H11.1703C11.761 323.595 12.2515 324.032 12.6417 324.633C13.0214 325.223 13.2113 325.929 13.2113 326.751C13.2113 327.531 13.0267 328.237 12.6575 328.869C12.2884 329.491 11.7663 329.981 11.0912 330.34C10.4161 330.687 9.6356 330.861 8.74959 330.861ZM8.76541 323.32C8.06926 323.32 7.45749 323.463 6.9301 323.747C6.40271 324.032 5.99662 324.422 5.71183 324.917C5.42704 325.402 5.28464 325.939 5.28464 326.53C5.28464 327.141 5.42176 327.689 5.69601 328.174C5.97025 328.659 6.37106 329.043 6.89845 329.328C7.41529 329.602 8.03234 329.739 8.74959 329.739C9.45629 329.739 10.0786 329.602 10.6165 329.328C11.1439 329.043 11.55 328.659 11.8348 328.174C12.1091 327.689 12.2462 327.141 12.2462 326.53C12.2462 325.939 12.1038 325.402 11.819 324.917C11.5342 324.422 11.1281 324.032 10.6007 323.747C10.0733 323.463 9.46156 323.32 8.76541 323.32ZM2.81646 319.134C2.81646 319.356 2.73735 319.545 2.57914 319.703C2.42092 319.861 2.22579 319.941 1.99373 319.941C1.76168 319.941 1.57182 319.861 1.42415 319.703C1.26594 319.545 1.18683 319.356 1.18683 319.134C1.18683 318.913 1.26594 318.723 1.42415 318.565C1.57182 318.407 1.76168 318.328 1.99373 318.328C2.22579 318.328 2.42092 318.407 2.57914 318.565C2.73735 318.723 2.81646 318.913 2.81646 319.134ZM4.44609 318.581H13.0847V319.688H4.44609V318.581ZM13.2113 313.103C13.2113 314.094 12.9845 314.905 12.531 315.538C12.0669 316.159 11.4393 316.507 10.6482 316.581V315.443C11.1334 315.39 11.5289 315.163 11.8348 314.763C12.1302 314.352 12.2778 313.804 12.2778 313.119C12.2778 312.518 12.1354 312.049 11.8506 311.712C11.5658 311.364 11.2125 311.19 10.7906 311.19C10.4952 311.19 10.2526 311.285 10.0628 311.475C9.87293 311.664 9.72526 311.907 9.61978 312.202C9.50376 312.486 9.38246 312.876 9.25588 313.372C9.08712 314.015 8.91835 314.536 8.74959 314.937C8.58082 315.337 8.33295 315.68 8.00597 315.964C7.66844 316.238 7.22016 316.375 6.66113 316.375C6.23922 316.375 5.84895 316.249 5.49032 315.996C5.1317 315.743 4.84691 315.385 4.63595 314.921C4.425 314.457 4.31952 313.93 4.31952 313.34C4.31952 312.413 4.55685 311.664 5.0315 311.095C5.4956 310.526 6.13901 310.22 6.96174 310.178V311.285C6.45545 311.317 6.04936 311.517 5.74347 311.886C5.42704 312.244 5.26882 312.739 5.26882 313.372C5.26882 313.93 5.40067 314.383 5.66436 314.731C5.92806 315.079 6.25504 315.253 6.64531 315.253C6.98284 315.253 7.26235 315.153 7.48386 314.953C7.69481 314.742 7.86358 314.484 7.99015 314.178C8.10617 313.872 8.23802 313.461 8.38569 312.945C8.55445 312.323 8.71795 311.828 8.87616 311.459C9.03438 311.09 9.26643 310.774 9.57232 310.51C9.8782 310.247 10.2843 310.11 10.7906 310.099C11.2547 310.099 11.6713 310.226 12.0405 310.479C12.3991 310.732 12.6839 311.085 12.8949 311.538C13.1058 311.991 13.2113 312.513 13.2113 313.103ZM8.74959 304.184C7.86357 304.184 7.08831 304.01 6.4238 303.662C5.74874 303.304 5.2319 302.814 4.87328 302.192C4.50411 301.56 4.31952 300.848 4.31952 300.058C4.31952 299.236 4.50938 298.53 4.8891 297.94C5.26882 297.339 5.75402 296.907 6.34469 296.643H4.44609V295.537H13.0847V296.643H11.1703C11.761 296.917 12.2515 297.355 12.6417 297.955C13.0214 298.546 13.2113 299.252 13.2113 300.074C13.2113 300.854 13.0267 301.56 12.6575 302.192C12.2884 302.814 11.7663 303.304 11.0912 303.662C10.4161 304.01 9.6356 304.184 8.74959 304.184ZM8.76541 296.643C8.06926 296.643 7.45749 296.785 6.9301 297.07C6.40271 297.355 5.99662 297.745 5.71183 298.24C5.42704 298.725 5.28464 299.262 5.28464 299.852C5.28464 300.464 5.42176 301.012 5.69601 301.496C5.97025 301.981 6.37106 302.366 6.89845 302.651C7.41529 302.925 8.03234 303.062 8.74959 303.062C9.45629 303.062 10.0786 302.925 10.6165 302.651C11.1439 302.366 11.55 301.981 11.8348 301.496C12.1091 301.012 12.2462 300.464 12.2462 299.852C12.2462 299.262 12.1038 298.725 11.819 298.24C11.5342 297.745 11.1281 297.355 10.6007 297.07C10.0733 296.785 9.46156 296.643 8.76541 296.643ZM4.44609 285.896L17.1509 291.018V292.172L13.0373 290.497L4.44609 294.038V292.821L11.819 289.88L4.44609 287.035V285.896ZM8.74959 284.902C7.86357 284.902 7.08831 284.728 6.4238 284.38C5.74874 284.022 5.2319 283.531 4.87328 282.91C4.50411 282.277 4.31952 281.566 4.31952 280.775C4.31952 279.953 4.50938 279.247 4.8891 278.657C5.26882 278.056 5.75402 277.624 6.34469 277.361H4.44609V276.254H13.0847V277.361H11.1703C11.761 277.635 12.2515 278.072 12.6417 278.673C13.0214 279.263 13.2113 279.969 13.2113 280.791C13.2113 281.571 13.0267 282.277 12.6575 282.91C12.2884 283.531 11.7663 284.022 11.0912 284.38C10.4161 284.728 9.6356 284.902 8.74959 284.902ZM8.76541 277.361C8.06926 277.361 7.45749 277.503 6.9301 277.788C6.40271 278.072 5.99662 278.462 5.71183 278.957C5.42704 279.442 5.28464 279.98 5.28464 280.57C5.28464 281.181 5.42176 281.729 5.69601 282.214C5.97025 282.699 6.37106 283.084 6.89845 283.368C7.41529 283.642 8.03234 283.779 8.74959 283.779C9.45629 283.779 10.0786 283.642 10.6165 283.368C11.1439 283.084 11.55 282.699 11.8348 282.214C12.1091 281.729 12.2462 281.181 12.2462 280.57C12.2462 279.98 12.1038 279.442 11.819 278.957C11.5342 278.462 11.1281 278.072 10.6007 277.788C10.0733 277.503 9.46156 277.361 8.76541 277.361ZM4.28788 269.681C4.28788 268.648 4.60958 267.805 5.253 267.151C5.88587 266.498 6.8088 266.171 8.02179 266.171H13.0847V267.262H8.14837C7.20961 267.262 6.49236 267.499 5.99662 267.973C5.50087 268.437 5.253 269.075 5.253 269.886C5.253 270.719 5.51669 271.383 6.04408 271.878C6.57147 272.374 7.34673 272.621 8.36987 272.621H13.0847V273.728H4.44609V272.621H5.91751C5.39012 272.347 4.9893 271.952 4.71506 271.436C4.43027 270.919 4.28788 270.334 4.28788 269.681ZM5.37957 262.285H10.7431C11.2705 262.285 11.6344 262.185 11.8348 261.985C12.0352 261.785 12.1354 261.432 12.1354 260.926V259.914H13.0847V261.1C13.0847 261.88 12.9054 262.459 12.5468 262.839C12.1776 263.218 11.5764 263.408 10.7431 263.408H5.37957V264.609H4.44609V263.408H2.27852V262.285H4.44609V259.914H5.37957V262.285ZM8.3224 245.941C8.70212 245.941 8.99219 245.952 9.1926 245.973V253.134C9.84656 253.103 10.4056 252.945 10.8697 252.66C11.3338 252.375 11.6871 252.001 11.9297 251.538C12.1618 251.074 12.2778 250.568 12.2778 250.02C12.2778 249.303 12.1038 248.703 11.7557 248.218C11.4076 247.722 10.9383 247.396 10.3476 247.238V246.068C11.1914 246.278 11.8823 246.732 12.4202 247.427C12.9476 248.112 13.2113 248.977 13.2113 250.02C13.2113 250.831 13.032 251.559 12.6734 252.202C12.3042 252.844 11.7873 253.35 11.1228 253.719C10.4478 254.077 9.66197 254.257 8.76541 254.257C7.86885 254.257 7.08304 254.077 6.40798 253.719C5.73292 253.361 5.21608 252.86 4.85746 252.217C4.49883 251.574 4.31952 250.842 4.31952 250.02C4.31952 249.198 4.49883 248.481 4.85746 247.87C5.21608 247.248 5.70128 246.774 6.31305 246.447C6.91427 246.11 7.58406 245.941 8.3224 245.941ZM8.29076 247.064C7.64735 247.053 7.09886 247.185 6.64531 247.459C6.19175 247.722 5.84895 248.086 5.6169 248.55C5.38485 249.013 5.26882 249.519 5.26882 250.067C5.26882 250.889 5.53252 251.59 6.0599 252.17C6.58729 252.75 7.33091 253.071 8.29076 253.134V247.064ZM1.8988 248.645L3.78158 251.885H2.92721L0.902039 248.645H1.8988ZM5.37957 242.478H10.7431C11.2705 242.478 11.6344 242.378 11.8348 242.178C12.0352 241.977 12.1354 241.624 12.1354 241.118V240.107H13.0847V241.292C13.0847 242.072 12.9054 242.652 12.5468 243.031C12.1776 243.411 11.5764 243.6 10.7431 243.6H5.37957V244.802H4.44609V243.6H2.27852V242.478H4.44609V240.107H5.37957V242.478ZM8.3224 230.472C8.70212 230.472 8.99219 230.483 9.1926 230.504V237.665C9.84656 237.633 10.4056 237.475 10.8697 237.191C11.3338 236.906 11.6871 236.532 11.9297 236.068C12.1618 235.605 12.2778 235.099 12.2778 234.551C12.2778 233.834 12.1038 233.233 11.7557 232.749C11.4076 232.253 10.9383 231.927 10.3476 231.768V230.599C11.1914 230.809 11.8823 231.263 12.4202 231.958C12.9476 232.643 13.2113 233.507 13.2113 234.551C13.2113 235.362 13.032 236.09 12.6734 236.732C12.3042 237.375 11.7873 237.881 11.1228 238.25C10.4478 238.608 9.66197 238.788 8.76541 238.788C7.86885 238.788 7.08304 238.608 6.40798 238.25C5.73292 237.892 5.21608 237.391 4.85746 236.748C4.49883 236.105 4.31952 235.373 4.31952 234.551C4.31952 233.729 4.49883 233.012 4.85746 232.401C5.21608 231.779 5.70128 231.305 6.31305 230.978C6.91427 230.641 7.58406 230.472 8.3224 230.472ZM8.29076 231.595C7.64735 231.584 7.09886 231.716 6.64531 231.99C6.19175 232.253 5.84895 232.617 5.6169 233.081C5.38485 233.544 5.26882 234.05 5.26882 234.598C5.26882 235.42 5.53252 236.121 6.0599 236.701C6.58729 237.28 7.33091 237.602 8.29076 237.665V231.595ZM1.8988 233.175L3.78158 236.416H2.92721L0.902039 233.175H1.8988ZM8.74959 224.615C7.86357 224.615 7.08831 224.441 6.4238 224.094C5.74874 223.735 5.2319 223.245 4.87328 222.623C4.50411 221.991 4.31952 221.28 4.31952 220.489C4.31952 219.667 4.50938 218.961 4.8891 218.371C5.26882 217.77 5.75402 217.338 6.34469 217.074H4.44609V215.968H13.0847V217.074H11.1703C11.761 217.348 12.2515 217.786 12.6417 218.387C13.0214 218.977 13.2113 219.683 13.2113 220.505C13.2113 221.285 13.0267 221.991 12.6575 222.623C12.2884 223.245 11.7663 223.735 11.0912 224.094C10.4161 224.441 9.6356 224.615 8.74959 224.615ZM8.76541 217.074C8.06926 217.074 7.45749 217.217 6.9301 217.501C6.40271 217.786 5.99662 218.176 5.71183 218.671C5.42704 219.156 5.28464 219.693 5.28464 220.284C5.28464 220.895 5.42176 221.443 5.69601 221.928C5.97025 222.413 6.37106 222.797 6.89845 223.082C7.41529 223.356 8.03234 223.493 8.74959 223.493C9.45629 223.493 10.0786 223.356 10.6165 223.082C11.1439 222.797 11.55 222.413 11.8348 221.928C12.1091 221.443 12.2462 220.895 12.2462 220.284C12.2462 219.693 12.1038 219.156 11.819 218.671C11.5342 218.176 11.1281 217.786 10.6007 217.501C10.0733 217.217 9.46156 217.074 8.76541 217.074ZM4.44609 205.964H13.0847V207.071H11.5658C12.1038 207.323 12.5151 207.713 12.7999 208.24C13.0847 208.767 13.2271 209.358 13.2271 210.011C13.2271 211.044 12.9107 211.887 12.2778 212.54C11.6344 213.194 10.7062 213.521 9.49321 213.521H4.44609V212.43H9.36663C10.3054 212.43 11.0226 212.198 11.5184 211.734C12.0141 211.26 12.262 210.617 12.262 209.805C12.262 208.973 11.9983 208.309 11.4709 207.814C10.9435 207.318 10.1683 207.071 9.14513 207.071H4.44609V205.964ZM8.76541 199.605C7.86885 199.605 7.08831 199.426 6.4238 199.068C5.74874 198.709 5.2319 198.214 4.87328 197.582C4.50411 196.949 4.31952 196.227 4.31952 195.416C4.31952 194.351 4.58321 193.477 5.1106 192.792C5.63799 192.096 6.35524 191.648 7.26235 191.448V192.634C6.64003 192.781 6.15483 193.103 5.80676 193.598C5.44813 194.083 5.26882 194.689 5.26882 195.416C5.26882 195.996 5.40067 196.517 5.66436 196.981C5.92806 197.445 6.3236 197.814 6.85099 198.088C7.36783 198.351 8.00597 198.483 8.76541 198.483C9.52485 198.483 10.1683 198.351 10.6957 198.088C11.223 197.814 11.6186 197.445 11.8823 196.981C12.146 196.517 12.2778 195.996 12.2778 195.416C12.2778 194.689 12.1038 194.083 11.7557 193.598C11.3971 193.103 10.9013 192.781 10.2685 192.634V191.448C11.1545 191.648 11.8665 192.096 12.4044 192.792C12.9423 193.487 13.2113 194.362 13.2113 195.416C13.2113 196.227 13.032 196.949 12.6734 197.582C12.3042 198.214 11.7873 198.709 11.1228 199.068C10.4478 199.426 9.66197 199.605 8.76541 199.605ZM2.81646 188.851C2.81646 189.072 2.73735 189.262 2.57914 189.42C2.42092 189.578 2.22579 189.657 1.99373 189.657C1.76168 189.657 1.57182 189.578 1.42415 189.42C1.26594 189.262 1.18683 189.072 1.18683 188.851C1.18683 188.63 1.26594 188.44 1.42415 188.282C1.57182 188.124 1.76168 188.045 1.99373 188.045C2.22579 188.045 2.42092 188.124 2.57914 188.282C2.73735 188.44 2.81646 188.63 2.81646 188.851ZM4.44609 188.298H13.0847V189.404H4.44609V188.298ZM4.28788 181.745C4.28788 180.712 4.60958 179.869 5.253 179.215C5.88587 178.562 6.8088 178.235 8.02179 178.235H13.0847V179.326H8.14837C7.20961 179.326 6.49236 179.563 5.99662 180.037C5.50087 180.501 5.253 181.139 5.253 181.95C5.253 182.783 5.51669 183.447 6.04408 183.942C6.57147 184.437 7.34673 184.685 8.36987 184.685H13.0847V185.792H4.44609V184.685H5.91751C5.39012 184.411 4.9893 184.016 4.71506 183.499C4.43027 182.983 4.28788 182.398 4.28788 181.745ZM8.3224 167.978C8.70212 167.978 8.99219 167.989 9.1926 168.01V175.171C9.84656 175.139 10.4056 174.981 10.8697 174.697C11.3338 174.412 11.6871 174.038 11.9297 173.574C12.1618 173.111 12.2778 172.605 12.2778 172.057C12.2778 171.34 12.1038 170.739 11.7557 170.255C11.4076 169.759 10.9383 169.432 10.3476 169.274V168.105C11.1914 168.315 11.8823 168.768 12.4202 169.464C12.9476 170.149 13.2113 171.013 13.2113 172.057C13.2113 172.868 13.032 173.595 12.6734 174.238C12.3042 174.881 11.7873 175.387 11.1228 175.756C10.4478 176.114 9.66197 176.293 8.76541 176.293C7.86885 176.293 7.08304 176.114 6.40798 175.756C5.73292 175.398 5.21608 174.897 4.85746 174.254C4.49883 173.611 4.31952 172.879 4.31952 172.057C4.31952 171.235 4.49883 170.518 4.85746 169.907C5.21608 169.285 5.70128 168.811 6.31305 168.484C6.91427 168.147 7.58406 167.978 8.3224 167.978ZM8.29076 169.1C7.64735 169.09 7.09886 169.222 6.64531 169.496C6.19175 169.759 5.84895 170.123 5.6169 170.587C5.38485 171.05 5.26882 171.556 5.26882 172.104C5.26882 172.926 5.53252 173.627 6.0599 174.207C6.58729 174.786 7.33091 175.108 8.29076 175.171V169.1ZM1.8988 170.681L3.78158 173.922H2.92721L0.902039 170.681H1.8988ZM4.28788 155.678C4.28788 154.666 4.60958 153.844 5.253 153.212C5.88587 152.569 6.8088 152.247 8.02179 152.247H13.0847V153.338H8.14837C7.20961 153.338 6.49236 153.565 5.99662 154.018C5.50087 154.471 5.253 155.088 5.253 155.867C5.253 156.679 5.52197 157.327 6.0599 157.812C6.59784 158.297 7.37838 158.539 8.40151 158.539H13.0847V159.63H8.14837C7.20961 159.63 6.49236 159.856 5.99662 160.31C5.50087 160.763 5.253 161.385 5.253 162.175C5.253 162.987 5.52197 163.635 6.0599 164.12C6.59784 164.604 7.37838 164.847 8.40151 164.847H13.0847V165.953H4.44609V164.847H5.93333C5.39539 164.573 4.9893 164.183 4.71506 163.677C4.43027 163.171 4.28788 162.607 4.28788 161.985C4.28788 161.237 4.46719 160.584 4.82581 160.025C5.18444 159.456 5.71183 159.045 6.40798 158.792C5.72238 158.56 5.20026 158.165 4.84164 157.606C4.47246 157.037 4.28788 156.394 4.28788 155.678ZM8.74959 150.295C7.86357 150.295 7.08831 150.122 6.4238 149.774C5.74874 149.415 5.2319 148.925 4.87328 148.304C4.50411 147.671 4.31952 146.96 4.31952 146.169C4.31952 145.347 4.50938 144.641 4.8891 144.051C5.26882 143.45 5.75402 143.018 6.34469 142.755H4.44609V141.648H13.0847V142.755H11.1703C11.761 143.029 12.2515 143.466 12.6417 144.067C13.0214 144.657 13.2113 145.363 13.2113 146.185C13.2113 146.965 13.0267 147.671 12.6575 148.304C12.2884 148.925 11.7663 149.415 11.0912 149.774C10.4161 150.122 9.6356 150.295 8.74959 150.295ZM8.76541 142.755C8.06926 142.755 7.45749 142.897 6.9301 143.182C6.40271 143.466 5.99662 143.856 5.71183 144.351C5.42704 144.836 5.28464 145.374 5.28464 145.964C5.28464 146.575 5.42176 147.123 5.69601 147.608C5.97025 148.093 6.37106 148.477 6.89845 148.762C7.41529 149.036 8.03234 149.173 8.74959 149.173C9.45629 149.173 10.0786 149.036 10.6165 148.762C11.1439 148.477 11.55 148.093 11.8348 147.608C12.1091 147.123 12.2462 146.575 12.2462 145.964C12.2462 145.374 12.1038 144.836 11.819 144.351C11.5342 143.856 11.1281 143.466 10.6007 143.182C10.0733 142.897 9.46156 142.755 8.76541 142.755ZM8.74959 135.289C7.86357 135.289 7.08831 135.116 6.4238 134.768C5.74874 134.409 5.2319 133.919 4.87328 133.298C4.50411 132.665 4.31952 131.954 4.31952 131.163C4.31952 130.341 4.50938 129.635 4.8891 129.045C5.26882 128.444 5.75402 128.012 6.34469 127.749H4.44609V126.642H13.0847V127.749H11.1703C11.761 128.023 12.2515 128.46 12.6417 129.061C13.0214 129.651 13.2113 130.357 13.2113 131.179C13.2113 131.959 13.0267 132.665 12.6575 133.298C12.2884 133.919 11.7663 134.409 11.0912 134.768C10.4161 135.116 9.6356 135.289 8.74959 135.289ZM8.76541 127.749C8.06926 127.749 7.45749 127.891 6.9301 128.176C6.40271 128.46 5.99662 128.85 5.71183 129.345C5.42704 129.83 5.28464 130.368 5.28464 130.958C5.28464 131.569 5.42176 132.117 5.69601 132.602C5.97025 133.087 6.37106 133.471 6.89845 133.756C7.41529 134.03 8.03234 134.167 8.74959 134.167C9.45629 134.167 10.0786 134.03 10.6165 133.756C11.1439 133.471 11.55 133.087 11.8348 132.602C12.1091 132.117 12.2462 131.569 12.2462 130.958C12.2462 130.368 12.1038 129.83 11.819 129.345C11.5342 128.85 11.1281 128.46 10.6007 128.176C10.0733 127.891 9.46156 127.749 8.76541 127.749ZM4.44609 116.638H13.0847V117.745H11.5658C12.1038 117.998 12.5151 118.388 12.7999 118.915C13.0847 119.442 13.2271 120.032 13.2271 120.685C13.2271 121.718 12.9107 122.561 12.2778 123.215C11.6344 123.868 10.7062 124.195 9.49321 124.195H4.44609V123.104H9.36663C10.3054 123.104 11.0226 122.872 11.5184 122.408C12.0141 121.934 12.262 121.291 12.262 120.48C12.262 119.647 11.9983 118.983 11.4709 118.488C10.9435 117.992 10.1683 117.745 9.14513 117.745H4.44609V116.638ZM28.0204 343.206C28.0204 342.194 28.3421 341.372 28.9855 340.74C29.6184 340.097 30.5413 339.776 31.7543 339.776H36.8172V340.867H31.8809C30.9421 340.867 30.2249 341.093 29.7291 341.546C29.2334 341.999 28.9855 342.616 28.9855 343.396C28.9855 344.207 29.2545 344.856 29.7924 345.34C30.3304 345.825 31.1109 346.068 32.134 346.068H36.8172V347.158H31.8809C30.9421 347.158 30.2249 347.385 29.7291 347.838C29.2334 348.291 28.9855 348.913 28.9855 349.704C28.9855 350.515 29.2545 351.163 29.7924 351.648C30.3304 352.133 31.1109 352.375 32.134 352.375H36.8172V353.482H28.1786V352.375H29.6658C29.1279 352.101 28.7218 351.711 28.4476 351.205C28.1628 350.7 28.0204 350.136 28.0204 349.514C28.0204 348.766 28.1997 348.112 28.5583 347.554C28.9169 346.984 29.4443 346.573 30.1405 346.321C29.4549 346.089 28.9328 345.693 28.5741 345.135C28.205 344.566 28.0204 343.923 28.0204 343.206ZM36.9438 333.54C36.9438 334.351 36.7645 335.084 36.4059 335.737C36.0367 336.38 35.5199 336.891 34.8553 337.271C34.1803 337.639 33.3945 337.824 32.4979 337.824C31.6014 337.824 30.8208 337.634 30.1563 337.255C29.4813 336.875 28.9644 336.359 28.6058 335.706C28.2366 335.052 28.052 334.32 28.052 333.508C28.052 332.697 28.2366 331.964 28.6058 331.311C28.9644 330.647 29.4813 330.13 30.1563 329.761C30.8208 329.382 31.6014 329.192 32.4979 329.192C33.3839 329.192 34.1645 329.382 34.8395 329.761C35.5146 330.141 36.0367 330.663 36.4059 331.327C36.7645 331.99 36.9438 332.728 36.9438 333.54ZM35.9787 333.54C35.9787 332.971 35.8521 332.444 35.599 331.959C35.3353 331.474 34.945 331.084 34.4282 330.789C33.9008 330.483 33.2574 330.331 32.4979 330.331C31.7385 330.331 31.1003 330.478 30.5835 330.773C30.0561 331.068 29.6658 331.458 29.4127 331.943C29.149 332.428 29.0172 332.955 29.0172 333.524C29.0172 334.093 29.149 334.62 29.4127 335.105C29.6658 335.59 30.0561 335.98 30.5835 336.275C31.1003 336.559 31.7385 336.702 32.4979 336.702C33.2574 336.702 33.9008 336.559 34.4282 336.275C34.945 335.98 35.3353 335.595 35.599 335.121C35.8521 334.636 35.9787 334.109 35.9787 333.54ZM26.549 326.622C26.549 326.843 26.4699 327.033 26.3116 327.191C26.1534 327.349 25.9583 327.428 25.7262 327.428C25.4942 327.428 25.3043 327.349 25.1567 327.191C24.9984 327.033 24.9193 326.843 24.9193 326.622C24.9193 326.4 24.9984 326.211 25.1567 326.053C25.3043 325.895 25.4942 325.816 25.7262 325.816C25.9583 325.816 26.1534 325.895 26.3116 326.053C26.4699 326.211 26.549 326.4 26.549 326.622ZM28.1786 326.069H36.8172V327.175H28.1786V326.069ZM28.0204 319.516C28.0204 318.483 28.3421 317.64 28.9855 316.986C29.6184 316.333 30.5413 316.006 31.7543 316.006H36.8172V317.097H31.8809C30.9421 317.097 30.2249 317.334 29.7291 317.808C29.2334 318.272 28.9855 318.91 28.9855 319.721C28.9855 320.554 29.2492 321.218 29.7766 321.713C30.304 322.208 31.0792 322.456 32.1024 322.456H36.8172V323.563H28.1786V322.456H29.65C29.1226 322.182 28.7218 321.787 28.4476 321.27C28.1628 320.754 28.0204 320.169 28.0204 319.516ZM36.9438 310.587C36.9438 311.577 36.717 312.389 36.2635 313.021C35.7994 313.643 35.1718 313.991 34.3807 314.064V312.926C34.8659 312.874 35.2614 312.647 35.5673 312.246C35.8627 311.835 36.0103 311.287 36.0103 310.602C36.0103 310.002 35.8679 309.533 35.5831 309.195C35.2984 308.848 34.945 308.674 34.5231 308.674C34.2278 308.674 33.9852 308.769 33.7953 308.958C33.6054 309.148 33.4578 309.39 33.3523 309.685C33.2363 309.97 33.115 310.36 32.9884 310.855C32.8196 311.498 32.6509 312.02 32.4821 312.42C32.3133 312.821 32.0655 313.163 31.7385 313.448C31.401 313.722 30.9527 313.859 30.3936 313.859C29.9717 313.859 29.5815 313.732 29.2228 313.48C28.8642 313.227 28.5794 312.868 28.3685 312.405C28.1575 311.941 28.052 311.414 28.052 310.824C28.052 309.896 28.2894 309.148 28.764 308.579C29.2281 308.01 29.8715 307.704 30.6942 307.662V308.769C30.188 308.8 29.7819 309 29.476 309.369C29.1595 309.728 29.0013 310.223 29.0013 310.855C29.0013 311.414 29.1332 311.867 29.3969 312.215C29.6606 312.563 29.9875 312.737 30.3778 312.737C30.7153 312.737 30.9949 312.636 31.2164 312.436C31.4273 312.225 31.5961 311.967 31.7227 311.662C31.8387 311.356 31.9705 310.945 32.1182 310.428C32.287 309.807 32.4505 309.311 32.6087 308.942C32.7669 308.574 32.9989 308.257 33.3048 307.994C33.6107 307.73 34.0168 307.593 34.5231 307.583C34.9872 307.583 35.4038 307.709 35.773 307.962C36.1316 308.215 36.4164 308.568 36.6274 309.021C36.8383 309.475 36.9438 309.996 36.9438 310.587ZM28.1786 293.684H36.8172V294.791H35.2984C35.8363 295.044 36.2477 295.434 36.5324 295.961C36.8172 296.488 36.9596 297.078 36.9596 297.731C36.9596 298.764 36.6432 299.607 36.0103 300.261C35.3669 300.914 34.4387 301.241 33.2257 301.241H28.1786V300.15H33.0991C34.0379 300.15 34.7551 299.918 35.2509 299.454C35.7466 298.98 35.9945 298.337 35.9945 297.526C35.9945 296.693 35.7308 296.029 35.2034 295.534C34.676 295.038 33.9008 294.791 32.8776 294.791H28.1786V293.684ZM28.0204 287.111C28.0204 286.078 28.3421 285.235 28.9855 284.581C29.6184 283.928 30.5413 283.601 31.7543 283.601H36.8172V284.692H31.8809C30.9421 284.692 30.2249 284.929 29.7291 285.403C29.2334 285.867 28.9855 286.505 28.9855 287.316C28.9855 288.149 29.2492 288.813 29.7766 289.308C30.304 289.803 31.0792 290.051 32.1024 290.051H36.8172V291.158H28.1786V290.051H29.65C29.1226 289.777 28.7218 289.382 28.4476 288.865C28.1628 288.349 28.0204 287.764 28.0204 287.111ZM32.0549 273.344C32.4346 273.344 32.7247 273.355 32.9251 273.376V280.537C33.5791 280.506 34.1381 280.347 34.6022 280.063C35.0663 279.778 35.4197 279.404 35.6623 278.94C35.8943 278.477 36.0103 277.971 36.0103 277.423C36.0103 276.706 35.8363 276.105 35.4882 275.621C35.1401 275.125 34.6708 274.799 34.0801 274.64V273.471C34.9239 273.681 35.6148 274.135 36.1527 274.83C36.6801 275.515 36.9438 276.379 36.9438 277.423C36.9438 278.234 36.7645 278.962 36.4059 279.604C36.0367 280.247 35.5199 280.753 34.8553 281.122C34.1803 281.48 33.3945 281.66 32.4979 281.66C31.6014 281.66 30.8155 281.48 30.1405 281.122C29.4654 280.764 28.9486 280.263 28.59 279.62C28.2313 278.977 28.052 278.245 28.052 277.423C28.052 276.601 28.2313 275.884 28.59 275.273C28.9486 274.651 29.4338 274.177 30.0456 273.85C30.6468 273.513 31.3166 273.344 32.0549 273.344ZM32.0233 274.467C31.3799 274.456 30.8314 274.588 30.3778 274.862C29.9243 275.125 29.5815 275.489 29.3494 275.953C29.1174 276.416 29.0013 276.922 29.0013 277.47C29.0013 278.292 29.265 278.993 29.7924 279.573C30.3198 280.152 31.0634 280.474 32.0233 280.537V274.467ZM29.1121 263.582V265.59H36.8172V266.697H29.1121V267.898H28.1786V266.697H27.5774C26.6386 266.697 25.9477 266.46 25.5047 265.985C25.0617 265.501 24.8402 264.721 24.8402 263.646H25.7895C25.7895 264.362 25.9267 264.868 26.2009 265.163C26.4751 265.448 26.934 265.59 27.5774 265.59H28.1786V263.582H29.1121ZM36.9438 258.062C36.9438 258.874 36.7645 259.606 36.4059 260.26C36.0367 260.902 35.5199 261.414 34.8553 261.793C34.1803 262.162 33.3945 262.346 32.4979 262.346C31.6014 262.346 30.8208 262.157 30.1563 261.777C29.4813 261.398 28.9644 260.881 28.6058 260.228C28.2366 259.574 28.052 258.842 28.052 258.031C28.052 257.219 28.2366 256.487 28.6058 255.833C28.9644 255.169 29.4813 254.653 30.1563 254.284C30.8208 253.904 31.6014 253.715 32.4979 253.715C33.3839 253.715 34.1645 253.904 34.8395 254.284C35.5146 254.663 36.0367 255.185 36.4059 255.849C36.7645 256.513 36.9438 257.251 36.9438 258.062ZM35.9787 258.062C35.9787 257.493 35.8521 256.966 35.599 256.481C35.3353 255.996 34.945 255.607 34.4282 255.311C33.9008 255.006 33.2574 254.853 32.4979 254.853C31.7385 254.853 31.1003 255 30.5835 255.296C30.0561 255.591 29.6658 255.981 29.4127 256.465C29.149 256.95 29.0172 257.477 29.0172 258.046C29.0172 258.615 29.149 259.142 29.4127 259.627C29.6658 260.112 30.0561 260.502 30.5835 260.797C31.1003 261.082 31.7385 261.224 32.4979 261.224C33.2574 261.224 33.9008 261.082 34.4282 260.797C34.945 260.502 35.3353 260.117 35.599 259.643C35.8521 259.158 35.9787 258.631 35.9787 258.062ZM26.549 251.144C26.549 251.366 26.4699 251.555 26.3116 251.713C26.1534 251.871 25.9583 251.95 25.7262 251.95C25.4942 251.95 25.3043 251.871 25.1567 251.713C24.9984 251.555 24.9193 251.366 24.9193 251.144C24.9193 250.923 24.9984 250.733 25.1567 250.575C25.3043 250.417 25.4942 250.338 25.7262 250.338C25.9583 250.338 26.1534 250.417 26.3116 250.575C26.4699 250.733 26.549 250.923 26.549 251.144ZM28.1786 250.591H36.8172V251.697H28.1786V250.591ZM36.9438 245.113C36.9438 246.104 36.717 246.915 36.2635 247.547C35.7994 248.169 35.1718 248.517 34.3807 248.591V247.453C34.8659 247.4 35.2614 247.173 35.5673 246.773C35.8627 246.362 36.0103 245.814 36.0103 245.129C36.0103 244.528 35.8679 244.059 35.5831 243.722C35.2984 243.374 34.945 243.2 34.5231 243.2C34.2278 243.2 33.9852 243.295 33.7953 243.485C33.6054 243.674 33.4578 243.917 33.3523 244.212C33.2363 244.496 33.115 244.886 32.9884 245.382C32.8196 246.025 32.6509 246.546 32.4821 246.947C32.3133 247.347 32.0655 247.69 31.7385 247.974C31.401 248.248 30.9527 248.385 30.3936 248.385C29.9717 248.385 29.5815 248.259 29.2228 248.006C28.8642 247.753 28.5794 247.395 28.3685 246.931C28.1575 246.467 28.052 245.94 28.052 245.35C28.052 244.423 28.2894 243.674 28.764 243.105C29.2281 242.536 29.8715 242.23 30.6942 242.188V243.295C30.188 243.326 29.7819 243.527 29.476 243.896C29.1595 244.254 29.0013 244.749 29.0013 245.382C29.0013 245.94 29.1332 246.393 29.3969 246.741C29.6606 247.089 29.9875 247.263 30.3778 247.263C30.7153 247.263 30.9949 247.163 31.2164 246.963C31.4273 246.752 31.5961 246.494 31.7227 246.188C31.8387 245.882 31.9705 245.471 32.1182 244.955C32.287 244.333 32.4505 243.838 32.6087 243.469C32.7669 243.1 32.9989 242.784 33.3048 242.52C33.6107 242.257 34.0168 242.12 34.5231 242.109C34.9872 242.109 35.4038 242.236 35.773 242.489C36.1316 242.742 36.4164 243.095 36.6274 243.548C36.8383 244.001 36.9438 244.523 36.9438 245.113ZM32.4821 236.194C31.5961 236.194 30.8208 236.015 30.1563 235.656C29.4813 235.298 28.9644 234.808 28.6058 234.186C28.2366 233.554 28.052 232.842 28.052 232.052C28.052 231.293 28.2366 230.608 28.6058 229.997C28.975 229.386 29.4549 228.938 30.0456 228.653H25.1092V227.546H36.8172V228.653H34.887C35.4882 228.917 35.984 229.349 36.3742 229.949C36.754 230.55 36.9438 231.256 36.9438 232.068C36.9438 232.858 36.7592 233.57 36.3901 234.202C36.0209 234.824 35.4988 235.314 34.8237 235.672C34.1486 236.02 33.3681 236.194 32.4821 236.194ZM32.4979 228.653C31.8018 228.653 31.19 228.795 30.6626 229.08C30.1352 229.364 29.7291 229.754 29.4443 230.25C29.1595 230.735 29.0172 231.272 29.0172 231.862C29.0172 232.474 29.1543 233.022 29.4285 233.506C29.7028 233.991 30.1036 234.376 30.631 234.66C31.1478 234.934 31.7648 235.071 32.4821 235.071C33.1888 235.071 33.8111 234.934 34.3491 234.66C34.8764 234.376 35.2825 233.991 35.5673 233.506C35.8416 233.022 35.9787 232.474 35.9787 231.862C35.9787 231.272 35.8363 230.735 35.5515 230.25C35.2667 229.754 34.8606 229.364 34.3332 229.08C33.8058 228.795 33.1941 228.653 32.4979 228.653ZM32.4821 225.526C31.5961 225.526 30.8208 225.352 30.1563 225.004C29.4813 224.646 28.9644 224.156 28.6058 223.534C28.2366 222.902 28.052 222.19 28.052 221.4C28.052 220.578 28.2419 219.872 28.6216 219.282C29.0013 218.681 29.4865 218.249 30.0772 217.985H28.1786V216.879H36.8172V217.985H34.9028C35.4935 218.259 35.984 218.697 36.3742 219.297C36.754 219.888 36.9438 220.594 36.9438 221.416C36.9438 222.196 36.7592 222.902 36.3901 223.534C36.0209 224.156 35.4988 224.646 34.8237 225.004C34.1486 225.352 33.3681 225.526 32.4821 225.526ZM32.4979 217.985C31.8018 217.985 31.19 218.128 30.6626 218.412C30.1352 218.697 29.7291 219.087 29.4443 219.582C29.1595 220.067 29.0172 220.604 29.0172 221.194C29.0172 221.806 29.1543 222.354 29.4285 222.839C29.7028 223.323 30.1036 223.708 30.631 223.993C31.1478 224.267 31.7648 224.404 32.4821 224.404C33.1888 224.404 33.8111 224.267 34.3491 223.993C34.8764 223.708 35.2825 223.323 35.5673 222.839C35.8416 222.354 35.9787 221.806 35.9787 221.194C35.9787 220.604 35.8363 220.067 35.5515 219.582C35.2667 219.087 34.8606 218.697 34.3332 218.412C33.8058 218.128 33.1941 217.985 32.4979 217.985ZM28.0204 210.305C28.0204 209.272 28.3421 208.429 28.9855 207.776C29.6184 207.122 30.5413 206.796 31.7543 206.796H36.8172V207.887H31.8809C30.9421 207.887 30.2249 208.124 29.7291 208.598C29.2334 209.062 28.9855 209.699 28.9855 210.511C28.9855 211.343 29.2492 212.007 29.7766 212.503C30.304 212.998 31.0792 213.246 32.1024 213.246H36.8172V214.352H28.1786V213.246H29.65C29.1226 212.972 28.7218 212.576 28.4476 212.06C28.1628 211.544 28.0204 210.959 28.0204 210.305ZM36.9438 201.376C36.9438 202.367 36.717 203.179 36.2635 203.811C35.7994 204.433 35.1718 204.78 34.3807 204.854V203.716C34.8659 203.663 35.2614 203.437 35.5673 203.036C35.8627 202.625 36.0103 202.077 36.0103 201.392C36.0103 200.791 35.8679 200.322 35.5831 199.985C35.2984 199.637 34.945 199.463 34.5231 199.463C34.2278 199.463 33.9852 199.558 33.7953 199.748C33.6054 199.938 33.4578 200.18 33.3523 200.475C33.2363 200.76 33.115 201.15 32.9884 201.645C32.8196 202.288 32.6509 202.81 32.4821 203.21C32.3133 203.611 32.0655 203.953 31.7385 204.238C31.401 204.512 30.9527 204.649 30.3936 204.649C29.9717 204.649 29.5815 204.522 29.2228 204.269C28.8642 204.016 28.5794 203.658 28.3685 203.194C28.1575 202.731 28.052 202.204 28.052 201.613C28.052 200.686 28.2894 199.938 28.764 199.369C29.2281 198.799 29.8715 198.494 30.6942 198.452V199.558C30.188 199.59 29.7819 199.79 29.476 200.159C29.1595 200.517 29.0013 201.013 29.0013 201.645C29.0013 202.204 29.1332 202.657 29.3969 203.005C29.6606 203.352 29.9875 203.526 30.3778 203.526C30.7153 203.526 30.9949 203.426 31.2164 203.226C31.4273 203.015 31.5961 202.757 31.7227 202.451C31.8387 202.146 31.9705 201.735 32.1182 201.218C32.287 200.596 32.4505 200.101 32.6087 199.732C32.7669 199.363 32.9989 199.047 33.3048 198.784C33.6107 198.52 34.0168 198.383 34.5231 198.373C34.9872 198.373 35.4038 198.499 35.773 198.752C36.1316 199.005 36.4164 199.358 36.6274 199.811C36.8383 200.264 36.9438 200.786 36.9438 201.376ZM25.1092 190.845H36.8172V191.951H25.1092V190.845ZM25.7579 188.197V186.916L29.1754 188.307V189.114L25.7579 188.197ZM32.4821 185.726C31.5961 185.726 30.8208 185.552 30.1563 185.205C29.4813 184.846 28.9644 184.356 28.6058 183.734C28.2366 183.102 28.052 182.391 28.052 181.6C28.052 180.778 28.2419 180.072 28.6216 179.482C29.0013 178.881 29.4865 178.449 30.0772 178.185H28.1786V177.079H36.8172V178.185H34.9028C35.4935 178.459 35.984 178.897 36.3742 179.498C36.754 180.088 36.9438 180.794 36.9438 181.616C36.9438 182.396 36.7592 183.102 36.3901 183.734C36.0209 184.356 35.4988 184.846 34.8237 185.205C34.1486 185.552 33.3681 185.726 32.4821 185.726ZM32.4979 178.185C31.8018 178.185 31.19 178.328 30.6626 178.612C30.1352 178.897 29.7291 179.287 29.4443 179.782C29.1595 180.267 29.0172 180.804 29.0172 181.395C29.0172 182.006 29.1543 182.554 29.4285 183.039C29.7028 183.524 30.1036 183.908 30.631 184.193C31.1478 184.467 31.7648 184.604 32.4821 184.604C33.1888 184.604 33.8111 184.467 34.3491 184.193C34.8764 183.908 35.2825 183.524 35.5673 183.039C35.8416 182.554 35.9787 182.006 35.9787 181.395C35.9787 180.804 35.8363 180.267 35.5515 179.782C35.2667 179.287 34.8606 178.897 34.3332 178.612C33.8058 178.328 33.1941 178.185 32.4979 178.185ZM28.0204 170.505C28.0204 169.473 28.3421 168.63 28.9855 167.976C29.6184 167.323 30.5413 166.996 31.7543 166.996H36.8172V168.087H31.8809C30.9421 168.087 30.2249 168.324 29.7291 168.798C29.2334 169.262 28.9855 169.899 28.9855 170.711C28.9855 171.544 29.2492 172.208 29.7766 172.703C30.304 173.198 31.0792 173.446 32.1024 173.446H36.8172V174.553H28.1786V173.446H29.65C29.1226 173.172 28.7218 172.777 28.4476 172.26C28.1628 171.744 28.0204 171.159 28.0204 170.505ZM28.0204 160.501C28.0204 159.469 28.3421 158.626 28.9855 157.972C29.6184 157.319 30.5413 156.992 31.7543 156.992H36.8172V158.083H31.8809C30.9421 158.083 30.2249 158.32 29.7291 158.794C29.2334 159.258 28.9855 159.895 28.9855 160.707C28.9855 161.54 29.2492 162.204 29.7766 162.699C30.304 163.194 31.0792 163.442 32.1024 163.442H36.8172V164.549H28.1786V163.442H29.65C29.1226 163.168 28.7218 162.773 28.4476 162.256C28.1628 161.74 28.0204 161.155 28.0204 160.501ZM32.0549 146.735C32.4346 146.735 32.7247 146.746 32.9251 146.767V153.928C33.5791 153.896 34.1381 153.738 34.6022 153.454C35.0663 153.169 35.4197 152.795 35.6623 152.331C35.8943 151.868 36.0103 151.362 36.0103 150.814C36.0103 150.097 35.8363 149.496 35.4882 149.011C35.1401 148.516 34.6708 148.189 34.0801 148.031V146.861C34.9239 147.072 35.6148 147.525 36.1527 148.221C36.6801 148.906 36.9438 149.77 36.9438 150.814C36.9438 151.625 36.7645 152.352 36.4059 152.995C36.0367 153.638 35.5199 154.144 34.8553 154.513C34.1803 154.871 33.3945 155.05 32.4979 155.05C31.6014 155.05 30.8155 154.871 30.1405 154.513C29.4654 154.155 28.9486 153.654 28.59 153.011C28.2313 152.368 28.052 151.636 28.052 150.814C28.052 149.992 28.2313 149.275 28.59 148.664C28.9486 148.042 29.4338 147.568 30.0456 147.241C30.6468 146.904 31.3166 146.735 32.0549 146.735ZM32.0233 147.857C31.3799 147.847 30.8314 147.979 30.3778 148.253C29.9243 148.516 29.5815 148.88 29.3494 149.343C29.1174 149.807 29.0013 150.313 29.0013 150.861C29.0013 151.683 29.265 152.384 29.7924 152.964C30.3198 153.543 31.0634 153.865 32.0233 153.928V147.857ZM25.6313 149.438L27.5141 152.679H26.6597L24.6345 149.438H25.6313ZM32.0549 136.901C32.4346 136.901 32.7247 136.911 32.9251 136.932V144.094C33.5791 144.062 34.1381 143.904 34.6022 143.62C35.0663 143.335 35.4197 142.961 35.6623 142.497C35.8943 142.033 36.0103 141.528 36.0103 140.98C36.0103 140.263 35.8363 139.662 35.4882 139.177C35.1401 138.682 34.6708 138.355 34.0801 138.197V137.027C34.9239 137.238 35.6148 137.691 36.1527 138.387C36.6801 139.072 36.9438 139.936 36.9438 140.98C36.9438 141.791 36.7645 142.518 36.4059 143.161C36.0367 143.804 35.5199 144.31 34.8553 144.679C34.1803 145.037 33.3945 145.216 32.4979 145.216C31.6014 145.216 30.8155 145.037 30.1405 144.679C29.4654 144.32 28.9486 143.82 28.59 143.177C28.2313 142.534 28.052 141.802 28.052 140.98C28.052 140.157 28.2313 139.441 28.59 138.83C28.9486 138.208 29.4338 137.733 30.0456 137.407C30.6468 137.069 31.3166 136.901 32.0549 136.901ZM32.0233 138.023C31.3799 138.013 30.8314 138.144 30.3778 138.418C29.9243 138.682 29.5815 139.046 29.3494 139.509C29.1174 139.973 29.0013 140.479 29.0013 141.027C29.0013 141.849 29.265 142.55 29.7924 143.129C30.3198 143.709 31.0634 144.031 32.0233 144.094V138.023ZM177.854 498.279C178.698 497.576 179.371 496.992 179.872 496.527C180.373 496.052 180.79 495.56 181.124 495.051C181.458 494.542 181.625 494.041 181.625 493.549C181.625 493.101 181.52 492.75 181.309 492.495C181.098 492.241 180.772 492.113 180.333 492.113C179.893 492.113 179.555 492.263 179.318 492.561C179.08 492.851 178.957 493.251 178.949 493.76H177.155C177.191 492.706 177.503 491.907 178.092 491.362C178.689 490.818 179.445 490.546 180.359 490.546C181.361 490.546 182.131 490.813 182.667 491.349C183.203 491.876 183.471 492.574 183.471 493.444C183.471 494.129 183.286 494.783 182.917 495.407C182.548 496.03 182.126 496.575 181.651 497.04C181.177 497.497 180.557 498.05 179.792 498.7H183.682V500.228H177.169V498.858L177.854 498.279ZM184.845 495.433C184.845 493.914 185.118 492.724 185.663 491.863C186.216 491.002 187.13 490.572 188.405 490.572C189.679 490.572 190.589 491.002 191.134 491.863C191.688 492.724 191.965 493.914 191.965 495.433C191.965 496.961 191.688 498.16 191.134 499.03C190.589 499.899 189.679 500.334 188.405 500.334C187.13 500.334 186.216 499.899 185.663 499.03C185.118 498.16 184.845 496.961 184.845 495.433ZM190.145 495.433C190.145 494.783 190.101 494.239 190.013 493.8C189.934 493.352 189.767 492.987 189.512 492.706C189.266 492.425 188.897 492.285 188.405 492.285C187.913 492.285 187.539 492.425 187.284 492.706C187.038 492.987 186.871 493.352 186.783 493.8C186.704 494.239 186.665 494.783 186.665 495.433C186.665 496.101 186.704 496.663 186.783 497.119C186.862 497.567 187.029 497.932 187.284 498.213C187.539 498.485 187.913 498.621 188.405 498.621C188.897 498.621 189.271 498.485 189.526 498.213C189.781 497.932 189.948 497.567 190.027 497.119C190.106 496.663 190.145 496.101 190.145 495.433ZM193.145 492.456V490.756H196.322V500.36H194.424V492.456H193.145ZM204.606 492.35H200.334V494.603C200.519 494.375 200.783 494.19 201.125 494.05C201.468 493.901 201.833 493.826 202.22 493.826C202.923 493.826 203.499 493.98 203.947 494.287C204.395 494.594 204.72 494.99 204.923 495.473C205.125 495.947 205.226 496.456 205.226 497.001C205.226 498.011 204.936 498.823 204.356 499.438C203.784 500.053 202.967 500.36 201.903 500.36C200.901 500.36 200.101 500.11 199.504 499.609C198.906 499.109 198.568 498.454 198.488 497.646H200.282C200.361 497.998 200.536 498.279 200.809 498.49C201.09 498.7 201.446 498.806 201.877 498.806C202.396 498.806 202.787 498.643 203.05 498.318C203.314 497.993 203.446 497.563 203.446 497.027C203.446 496.483 203.31 496.07 203.037 495.789C202.773 495.499 202.382 495.354 201.864 495.354C201.495 495.354 201.187 495.446 200.941 495.631C200.695 495.815 200.519 496.061 200.413 496.368H198.647V490.73H204.606V492.35ZM72.3764 354.682C73.2203 353.98 73.8927 353.396 74.3937 352.93C74.8947 352.456 75.3122 351.964 75.6463 351.455C75.9803 350.945 76.1473 350.445 76.1473 349.953C76.1473 349.505 76.0418 349.154 75.8308 348.899C75.6199 348.644 75.2947 348.517 74.8552 348.517C74.4157 348.517 74.0773 348.666 73.84 348.965C73.6026 349.255 73.4796 349.654 73.4708 350.164H71.6777C71.7128 349.11 72.0249 348.311 72.6138 347.766C73.2115 347.222 73.9674 346.949 74.8815 346.949C75.8836 346.949 76.6527 347.217 77.1889 347.753C77.7251 348.28 77.9931 348.978 77.9931 349.848C77.9931 350.533 77.8086 351.187 77.4394 351.81C77.0702 352.434 76.6483 352.979 76.1736 353.444C75.699 353.901 75.0793 354.454 74.3146 355.104H78.2041V356.632H71.6908V355.262L72.3764 354.682ZM85.8277 348.754H81.5559V351.007C81.7405 350.778 82.0042 350.594 82.347 350.454C82.6898 350.304 83.0546 350.23 83.4413 350.23C84.1445 350.23 84.7202 350.383 85.1685 350.691C85.6168 350.998 85.942 351.393 86.1442 351.876C86.3464 352.351 86.4474 352.86 86.4474 353.405C86.4474 354.415 86.1574 355.227 85.5772 355.842C85.0059 356.456 84.1884 356.764 83.1249 356.764C82.1228 356.764 81.323 356.514 80.7253 356.013C80.1276 355.512 79.7891 354.858 79.71 354.05H81.5032C81.5823 354.401 81.7581 354.682 82.0306 354.893C82.3118 355.104 82.6678 355.209 83.0985 355.209C83.6171 355.209 84.0083 355.047 84.272 354.722C84.5357 354.397 84.6675 353.967 84.6675 353.431C84.6675 352.886 84.5313 352.474 84.2588 352.192C83.9951 351.903 83.6039 351.758 83.0853 351.758C82.7162 351.758 82.4085 351.85 82.1624 352.034C81.9163 352.219 81.7405 352.465 81.635 352.772H79.8683V347.134H85.8277V348.754ZM87.6414 349.518C87.6414 348.851 87.8348 348.328 88.2215 347.95C88.617 347.573 89.1225 347.384 89.7377 347.384C90.353 347.384 90.8541 347.573 91.2408 347.95C91.6364 348.328 91.8341 348.851 91.8341 349.518C91.8341 350.194 91.6364 350.721 91.2408 351.099C90.8541 351.477 90.353 351.666 89.7377 351.666C89.1225 351.666 88.617 351.477 88.2215 351.099C87.8348 350.721 87.6414 350.194 87.6414 349.518ZM96.106 347.542L90.9244 356.764H89.1312L94.2997 347.542H96.106ZM89.7246 348.491C89.2411 348.491 88.9994 348.833 88.9994 349.518C88.9994 350.212 89.2411 350.559 89.7246 350.559C89.9619 350.559 90.1465 350.475 90.2783 350.309C90.4102 350.133 90.4761 349.869 90.4761 349.518C90.4761 348.833 90.2256 348.491 89.7246 348.491ZM93.4295 354.775C93.4295 354.098 93.6228 353.576 94.0096 353.207C94.4051 352.829 94.9106 352.64 95.5258 352.64C96.1411 352.64 96.6378 352.829 97.0157 353.207C97.4025 353.576 97.5958 354.098 97.5958 354.775C97.5958 355.451 97.4025 355.978 97.0157 356.355C96.6378 356.733 96.1411 356.922 95.5258 356.922C94.9018 356.922 94.3964 356.733 94.0096 356.355C93.6228 355.978 93.4295 355.451 93.4295 354.775ZM95.5127 353.747C95.0116 353.747 94.7611 354.09 94.7611 354.775C94.7611 355.468 95.0116 355.815 95.5127 355.815C96.0049 355.815 96.251 355.468 96.251 354.775C96.251 354.09 96.0049 353.747 95.5127 353.747ZM70.4778 466.45C70.4778 464.931 70.7503 463.741 71.2953 462.88C71.8491 462.02 72.7632 461.589 74.0377 461.589C75.3122 461.589 76.222 462.02 76.767 462.88C77.3207 463.741 77.5976 464.931 77.5976 466.45C77.5976 467.979 77.3207 469.177 76.767 470.047C76.222 470.916 75.3122 471.351 74.0377 471.351C72.7632 471.351 71.8491 470.916 71.2953 470.047C70.7503 469.177 70.4778 467.979 70.4778 466.45ZM75.7781 466.45C75.7781 465.8 75.7342 465.256 75.6463 464.817C75.5672 464.369 75.4001 464.004 75.1452 463.723C74.8991 463.442 74.53 463.302 74.0377 463.302C73.5455 463.302 73.1719 463.442 72.917 463.723C72.6709 464.004 72.5039 464.369 72.416 464.817C72.3369 465.256 72.2973 465.8 72.2973 466.45C72.2973 467.118 72.3369 467.68 72.416 468.137C72.4951 468.585 72.6621 468.949 72.917 469.23C73.1719 469.502 73.5455 469.638 74.0377 469.638C74.53 469.638 74.9035 469.502 75.1584 469.23C75.4133 468.949 75.5803 468.585 75.6594 468.137C75.7386 467.68 75.7781 467.118 75.7781 466.45ZM78.7906 464.132C78.7906 463.464 78.984 462.942 79.3707 462.564C79.7663 462.186 80.2717 461.998 80.887 461.998C81.5023 461.998 82.0033 462.186 82.39 462.564C82.7856 462.942 82.9834 463.464 82.9834 464.132C82.9834 464.808 82.7856 465.335 82.39 465.713C82.0033 466.09 81.5023 466.279 80.887 466.279C80.2717 466.279 79.7663 466.09 79.3707 465.713C78.984 465.335 78.7906 464.808 78.7906 464.132ZM87.2552 462.156L82.0736 471.377H80.2805L85.4489 462.156H87.2552ZM80.8738 463.104C80.3904 463.104 80.1486 463.447 80.1486 464.132C80.1486 464.826 80.3904 465.173 80.8738 465.173C81.1111 465.173 81.2957 465.089 81.4276 464.922C81.5594 464.747 81.6253 464.483 81.6253 464.132C81.6253 463.447 81.3748 463.104 80.8738 463.104ZM84.5787 469.388C84.5787 468.712 84.7721 468.189 85.1588 467.821C85.5544 467.443 86.0598 467.254 86.6751 467.254C87.2904 467.254 87.787 467.443 88.165 467.821C88.5517 468.189 88.7451 468.712 88.7451 469.388C88.7451 470.064 88.5517 470.591 88.165 470.969C87.787 471.347 87.2904 471.536 86.6751 471.536C86.051 471.536 85.5456 471.347 85.1588 470.969C84.7721 470.591 84.5787 470.064 84.5787 469.388ZM86.6619 468.361C86.1609 468.361 85.9104 468.703 85.9104 469.388C85.9104 470.082 86.1609 470.429 86.6619 470.429C87.1541 470.429 87.4002 470.082 87.4002 469.388C87.4002 468.703 87.1541 468.361 86.6619 468.361ZM76.9384 232.823H72.6665V235.076C72.8511 234.847 73.1148 234.663 73.4576 234.523C73.8004 234.373 74.1652 234.299 74.5519 234.299C75.2551 234.299 75.8308 234.452 76.2791 234.76C76.7274 235.067 77.0526 235.462 77.2548 235.945C77.457 236.42 77.558 236.929 77.558 237.474C77.558 238.484 77.268 239.296 76.6879 239.911C76.1165 240.525 75.2991 240.833 74.2355 240.833C73.2335 240.833 72.4336 240.583 71.8359 240.082C71.2382 239.581 70.8998 238.927 70.8206 238.119H72.6138C72.6929 238.47 72.8687 238.751 73.1412 238.962C73.4224 239.173 73.7784 239.278 74.2091 239.278C74.7277 239.278 75.1189 239.116 75.3826 238.791C75.6463 238.466 75.7781 238.036 75.7781 237.5C75.7781 236.955 75.6419 236.543 75.3694 236.262C75.1057 235.972 74.7145 235.827 74.1959 235.827C73.8268 235.827 73.5191 235.919 73.273 236.103C73.0269 236.288 72.8511 236.534 72.7456 236.841H70.9789V231.203H76.9384V232.823ZM78.9629 235.906C78.9629 234.386 79.2354 233.196 79.7804 232.336C80.3341 231.475 81.2483 231.045 82.5228 231.045C83.7973 231.045 84.7071 231.475 85.2521 232.336C85.8058 233.196 86.0827 234.386 86.0827 235.906C86.0827 237.434 85.8058 238.633 85.2521 239.502C84.7071 240.372 83.7973 240.807 82.5228 240.807C81.2483 240.807 80.3341 240.372 79.7804 239.502C79.2354 238.633 78.9629 237.434 78.9629 235.906ZM84.2632 235.906C84.2632 235.256 84.2193 234.711 84.1314 234.272C84.0522 233.824 83.8852 233.46 83.6303 233.179C83.3842 232.898 83.015 232.757 82.5228 232.757C82.0306 232.757 81.657 232.898 81.4021 233.179C81.156 233.46 80.989 233.824 80.9011 234.272C80.822 234.711 80.7824 235.256 80.7824 235.906C80.7824 236.573 80.822 237.135 80.9011 237.592C80.9802 238.04 81.1472 238.404 81.4021 238.686C81.657 238.958 82.0306 239.094 82.5228 239.094C83.015 239.094 83.3886 238.958 83.6435 238.686C83.8984 238.404 84.0654 238.04 84.1445 237.592C84.2236 237.135 84.2632 236.573 84.2632 235.906ZM87.2757 233.587C87.2757 232.92 87.4691 232.397 87.8558 232.019C88.2514 231.642 88.7568 231.453 89.3721 231.453C89.9874 231.453 90.4884 231.642 90.8751 232.019C91.2707 232.397 91.4684 232.92 91.4684 233.587C91.4684 234.263 91.2707 234.79 90.8751 235.168C90.4884 235.546 89.9874 235.735 89.3721 235.735C88.7568 235.735 88.2514 235.546 87.8558 235.168C87.4691 234.79 87.2757 234.263 87.2757 233.587ZM95.7403 231.611L90.5587 240.833H88.7656L93.934 231.611H95.7403ZM89.3589 232.56C88.8755 232.56 88.6337 232.902 88.6337 233.587C88.6337 234.281 88.8755 234.628 89.3589 234.628C89.5962 234.628 89.7808 234.544 89.9126 234.378C90.0445 234.202 90.1104 233.938 90.1104 233.587C90.1104 232.902 89.8599 232.56 89.3589 232.56ZM93.0638 238.844C93.0638 238.167 93.2572 237.645 93.6439 237.276C94.0395 236.898 94.5449 236.709 95.1602 236.709C95.7755 236.709 96.2721 236.898 96.65 237.276C97.0368 237.645 97.2302 238.167 97.2302 238.844C97.2302 239.52 97.0368 240.047 96.65 240.424C96.2721 240.802 95.7755 240.991 95.1602 240.991C94.5361 240.991 94.0307 240.802 93.6439 240.424C93.2572 240.047 93.0638 239.52 93.0638 238.844ZM95.147 237.816C94.646 237.816 94.3955 238.159 94.3955 238.844C94.3955 239.537 94.646 239.884 95.147 239.884C95.6392 239.884 95.8853 239.537 95.8853 238.844C95.8853 238.159 95.6392 237.816 95.147 237.816ZM76.5956 118.012L73.0884 126.219H71.2162L74.7497 118.223H70.2405V116.642H76.5956V118.012ZM84.1616 118.209H79.8898V120.462C80.0744 120.234 80.3381 120.049 80.6809 119.909C81.0237 119.76 81.3884 119.685 81.7752 119.685C82.4784 119.685 83.0541 119.839 83.5024 120.146C83.9507 120.453 84.2759 120.849 84.4781 121.332C84.6802 121.806 84.7813 122.315 84.7813 122.86C84.7813 123.87 84.4913 124.682 83.9111 125.297C83.3398 125.912 82.5223 126.219 81.4588 126.219C80.4567 126.219 79.6569 125.969 79.0591 125.468C78.4614 124.968 78.123 124.313 78.0439 123.505H79.837C79.9162 123.857 80.092 124.138 80.3644 124.349C80.6457 124.559 81.0017 124.665 81.4324 124.665C81.951 124.665 82.3421 124.502 82.6058 124.177C82.8695 123.852 83.0014 123.422 83.0014 122.886C83.0014 122.342 82.8651 121.929 82.5927 121.648C82.329 121.358 81.9378 121.213 81.4192 121.213C81.05 121.213 80.7424 121.305 80.4963 121.49C80.2502 121.674 80.0744 121.92 79.9689 122.228H78.2021V116.589H84.1616V118.209ZM85.9753 118.974C85.9753 118.306 86.1686 117.784 86.5554 117.406C86.9509 117.028 87.4563 116.839 88.0716 116.839C88.6869 116.839 89.1879 117.028 89.5747 117.406C89.9702 117.784 90.168 118.306 90.168 118.974C90.168 119.65 89.9702 120.177 89.5747 120.554C89.1879 120.932 88.6869 121.121 88.0716 121.121C87.4563 121.121 86.9509 120.932 86.5554 120.554C86.1686 120.177 85.9753 119.65 85.9753 118.974ZM94.4398 116.997L89.2583 126.219H87.4651L92.6335 116.997H94.4398ZM88.0584 117.946C87.575 117.946 87.3333 118.289 87.3333 118.974C87.3333 119.667 87.575 120.014 88.0584 120.014C88.2958 120.014 88.4804 119.931 88.6122 119.764C88.744 119.588 88.81 119.325 88.81 118.974C88.81 118.289 88.5595 117.946 88.0584 117.946ZM91.7634 124.23C91.7634 123.554 91.9567 123.031 92.3435 122.662C92.739 122.285 93.2444 122.096 93.8597 122.096C94.475 122.096 94.9716 122.285 95.3496 122.662C95.7364 123.031 95.9297 123.554 95.9297 124.23C95.9297 124.906 95.7364 125.433 95.3496 125.811C94.9716 126.189 94.475 126.377 93.8597 126.377C93.2357 126.377 92.7302 126.189 92.3435 125.811C91.9567 125.433 91.7634 124.906 91.7634 124.23ZM93.8465 123.202C93.3455 123.202 93.095 123.545 93.095 124.23C93.095 124.924 93.3455 125.271 93.8465 125.271C94.3388 125.271 94.5849 124.924 94.5849 124.23C94.5849 123.545 94.3388 123.202 93.8465 123.202ZM70.2537 2.38388V0.684436H73.4312V10.2883H71.5326V2.38388H70.2537ZM75.2547 5.3612C75.2547 3.8418 75.5272 2.65175 76.0722 1.79105C76.6259 0.93035 77.5401 0.5 78.8146 0.5C80.0891 0.5 80.9989 0.93035 81.5438 1.79105C82.0976 2.65175 82.3745 3.8418 82.3745 5.3612C82.3745 6.88938 82.0976 8.08821 81.5438 8.95769C80.9989 9.82718 80.0891 10.2619 78.8146 10.2619C77.5401 10.2619 76.6259 9.82718 76.0722 8.95769C75.5272 8.08821 75.2547 6.88938 75.2547 5.3612ZM80.555 5.3612C80.555 4.71128 80.511 4.16676 80.4232 3.72762C80.344 3.27971 80.177 2.91523 79.9221 2.63418C79.676 2.35314 79.3068 2.21262 78.8146 2.21262C78.3224 2.21262 77.9488 2.35314 77.6939 2.63418C77.4478 2.91523 77.2808 3.27971 77.1929 3.72762C77.1138 4.16676 77.0742 4.71128 77.0742 5.3612C77.0742 6.02868 77.1138 6.59077 77.1929 7.04747C77.272 7.49538 77.439 7.85986 77.6939 8.14091C77.9488 8.41317 78.3224 8.5493 78.8146 8.5493C79.3068 8.5493 79.6804 8.41317 79.9353 8.14091C80.1902 7.85986 80.3572 7.49538 80.4363 7.04747C80.5154 6.59077 80.555 6.02868 80.555 5.3612ZM83.7785 5.3612C83.7785 3.8418 84.0509 2.65175 84.5959 1.79105C85.1497 0.93035 86.0638 0.5 87.3383 0.5C88.6129 0.5 89.5226 0.93035 90.0676 1.79105C90.6213 2.65175 90.8982 3.8418 90.8982 5.3612C90.8982 6.88938 90.6213 8.08821 90.0676 8.95769C89.5226 9.82718 88.6129 10.2619 87.3383 10.2619C86.0638 10.2619 85.1497 9.82718 84.5959 8.95769C84.0509 8.08821 83.7785 6.88938 83.7785 5.3612ZM89.0787 5.3612C89.0787 4.71128 89.0348 4.16676 88.9469 3.72762C88.8678 3.27971 88.7007 2.91523 88.4458 2.63418C88.1997 2.35314 87.8306 2.21262 87.3383 2.21262C86.8461 2.21262 86.4725 2.35314 86.2176 2.63418C85.9715 2.91523 85.8045 3.27971 85.7166 3.72762C85.6375 4.16676 85.5979 4.71128 85.5979 5.3612C85.5979 6.02868 85.6375 6.59077 85.7166 7.04747C85.7957 7.49538 85.9627 7.85986 86.2176 8.14091C86.4725 8.41317 86.8461 8.5493 87.3383 8.5493C87.8306 8.5493 88.2041 8.41317 88.459 8.14091C88.7139 7.85986 88.8809 7.49538 88.96 7.04747C89.0392 6.59077 89.0787 6.02868 89.0787 5.3612ZM92.0912 3.04258C92.0912 2.3751 92.2846 1.85253 92.6714 1.47487C93.0669 1.09722 93.5723 0.908394 94.1876 0.908394C94.8029 0.908394 95.3039 1.09722 95.6907 1.47487C96.0862 1.85253 96.284 2.3751 96.284 3.04258C96.284 3.71884 96.0862 4.2458 95.6907 4.62345C95.3039 5.00111 94.8029 5.18994 94.1876 5.18994C93.5723 5.18994 93.0669 5.00111 92.6714 4.62345C92.2846 4.2458 92.0912 3.71884 92.0912 3.04258ZM100.556 1.06648L95.3742 10.2883H93.5811L98.7495 1.06648H100.556ZM94.1744 2.01501C93.691 2.01501 93.4492 2.35753 93.4492 3.04258C93.4492 3.73641 93.691 4.08332 94.1744 4.08332C94.4117 4.08332 94.5963 3.99989 94.7282 3.83302C94.86 3.65736 94.9259 3.39388 94.9259 3.04258C94.9259 2.35753 94.6754 2.01501 94.1744 2.01501ZM97.8793 8.29899C97.8793 7.62273 98.0727 7.10016 98.4594 6.73129C98.855 6.35364 99.3604 6.16481 99.9757 6.16481C100.591 6.16481 101.088 6.35364 101.466 6.73129C101.852 7.10016 102.046 7.62273 102.046 8.29899C102.046 8.97526 101.852 9.50222 101.466 9.87987C101.088 10.2575 100.591 10.4464 99.9757 10.4464C99.3516 10.4464 98.8462 10.2575 98.4594 9.87987C98.0727 9.50222 97.8793 8.97526 97.8793 8.29899ZM99.9625 7.27142C99.4615 7.27142 99.211 7.61395 99.211 8.29899C99.211 8.99282 99.4615 9.33974 99.9625 9.33974C100.455 9.33974 100.701 8.99282 100.701 8.29899C100.701 7.61395 100.455 7.27142 99.9625 7.27142ZM263.555 498.279C264.399 497.576 265.071 496.992 265.572 496.527C266.073 496.052 266.491 495.56 266.825 495.051C267.159 494.542 267.326 494.041 267.326 493.549C267.326 493.101 267.22 492.75 267.009 492.495C266.798 492.241 266.473 492.113 266.034 492.113C265.594 492.113 265.256 492.263 265.019 492.561C264.781 492.851 264.658 493.251 264.649 493.76H262.856C262.891 492.706 263.203 491.907 263.792 491.362C264.39 490.818 265.146 490.546 266.06 490.546C267.062 490.546 267.831 490.813 268.367 491.349C268.904 491.876 269.172 492.574 269.172 493.444C269.172 494.129 268.987 494.783 268.618 495.407C268.249 496.03 267.827 496.575 267.352 497.04C266.878 497.497 266.258 498.05 265.493 498.7H269.383V500.228H262.869V498.858L263.555 498.279ZM270.546 495.433C270.546 493.914 270.818 492.724 271.363 491.863C271.917 491.002 272.831 490.572 274.106 490.572C275.38 490.572 276.29 491.002 276.835 491.863C277.389 492.724 277.666 493.914 277.666 495.433C277.666 496.961 277.389 498.16 276.835 499.03C276.29 499.899 275.38 500.334 274.106 500.334C272.831 500.334 271.917 499.899 271.363 499.03C270.818 498.16 270.546 496.961 270.546 495.433ZM275.846 495.433C275.846 494.783 275.802 494.239 275.714 493.8C275.635 493.352 275.468 492.987 275.213 492.706C274.967 492.425 274.598 492.285 274.106 492.285C273.613 492.285 273.24 492.425 272.985 492.706C272.739 492.987 272.572 493.352 272.484 493.8C272.405 494.239 272.365 494.783 272.365 495.433C272.365 496.101 272.405 496.663 272.484 497.119C272.563 497.567 272.73 497.932 272.985 498.213C273.24 498.485 273.613 498.621 274.106 498.621C274.598 498.621 274.971 498.485 275.226 498.213C275.481 497.932 275.648 497.567 275.727 497.119C275.806 496.663 275.846 496.101 275.846 495.433ZM278.845 492.456V490.756H282.023V500.36H280.124V492.456H278.845ZM288.83 493.154C288.742 492.785 288.588 492.509 288.369 492.324C288.158 492.14 287.85 492.047 287.446 492.047C286.839 492.047 286.391 492.293 286.101 492.785C285.82 493.268 285.675 494.059 285.666 495.157C285.877 494.805 286.184 494.533 286.589 494.34C286.993 494.138 287.433 494.037 287.907 494.037C288.479 494.037 288.984 494.16 289.424 494.406C289.863 494.651 290.206 495.012 290.452 495.486C290.698 495.951 290.821 496.513 290.821 497.172C290.821 497.796 290.694 498.353 290.439 498.845C290.193 499.328 289.828 499.706 289.344 499.978C288.861 500.25 288.285 500.387 287.617 500.387C286.703 500.387 285.982 500.185 285.455 499.781C284.936 499.377 284.572 498.814 284.361 498.094C284.158 497.365 284.057 496.47 284.057 495.407C284.057 493.8 284.334 492.588 284.888 491.771C285.442 490.945 286.316 490.532 287.512 490.532C288.435 490.532 289.151 490.783 289.661 491.283C290.171 491.784 290.465 492.408 290.544 493.154H288.83ZM287.485 495.552C287.02 495.552 286.628 495.688 286.312 495.96C285.996 496.232 285.837 496.628 285.837 497.146C285.837 497.664 285.982 498.072 286.272 498.371C286.571 498.67 286.989 498.819 287.525 498.819C288 498.819 288.373 498.674 288.646 498.384C288.927 498.094 289.068 497.703 289.068 497.212C289.068 496.702 288.931 496.298 288.659 496C288.395 495.701 288.004 495.552 287.485 495.552ZM349.256 498.279C350.1 497.576 350.772 496.992 351.273 496.527C351.774 496.052 352.192 495.56 352.526 495.051C352.86 494.542 353.027 494.041 353.027 493.549C353.027 493.101 352.921 492.75 352.71 492.495C352.499 492.241 352.174 492.113 351.734 492.113C351.295 492.113 350.957 492.263 350.719 492.561C350.482 492.851 350.359 493.251 350.35 493.76H348.557C348.592 492.706 348.904 491.907 349.493 491.362C350.091 490.818 350.847 490.546 351.761 490.546C352.763 490.546 353.532 490.813 354.068 491.349C354.604 491.876 354.872 492.574 354.872 493.444C354.872 494.129 354.688 494.783 354.319 495.407C353.949 496.03 353.528 496.575 353.053 497.04C352.578 497.497 351.959 498.05 351.194 498.7H355.083V500.228H348.57V498.858L349.256 498.279ZM356.246 495.433C356.246 493.914 356.519 492.724 357.064 491.863C357.618 491.002 358.532 490.572 359.806 490.572C361.081 490.572 361.991 491.002 362.536 491.863C363.089 492.724 363.366 493.914 363.366 495.433C363.366 496.961 363.089 498.16 362.536 499.03C361.991 499.899 361.081 500.334 359.806 500.334C358.532 500.334 357.618 499.899 357.064 499.03C356.519 498.16 356.246 496.961 356.246 495.433ZM361.547 495.433C361.547 494.783 361.503 494.239 361.415 493.8C361.336 493.352 361.169 492.987 360.914 492.706C360.668 492.425 360.299 492.285 359.806 492.285C359.314 492.285 358.941 492.425 358.686 492.706C358.44 492.987 358.273 493.352 358.185 493.8C358.106 494.239 358.066 494.783 358.066 495.433C358.066 496.101 358.106 496.663 358.185 497.119C358.264 497.567 358.431 497.932 358.686 498.213C358.941 498.485 359.314 498.621 359.806 498.621C360.299 498.621 360.672 498.485 360.927 498.213C361.182 497.932 361.349 497.567 361.428 497.119C361.507 496.663 361.547 496.101 361.547 495.433ZM364.546 492.456V490.756H367.724V500.36H365.825V492.456H364.546ZM375.665 492.153L372.158 500.36H370.285L373.819 492.364H369.31V490.783H375.665V492.153ZM436.275 498.279C437.119 497.576 437.791 496.992 438.292 496.527C438.793 496.052 439.211 495.56 439.545 495.051C439.879 494.542 440.046 494.041 440.046 493.549C440.046 493.101 439.94 492.75 439.729 492.495C439.518 492.241 439.193 492.113 438.754 492.113C438.314 492.113 437.976 492.263 437.738 492.561C437.501 492.851 437.378 493.251 437.369 493.76H435.576C435.611 492.706 435.923 491.907 436.512 491.362C437.11 490.818 437.866 490.546 438.78 490.546C439.782 490.546 440.551 490.813 441.087 491.349C441.624 491.876 441.892 492.574 441.892 493.444C441.892 494.129 441.707 494.783 441.338 495.407C440.969 496.03 440.547 496.575 440.072 497.04C439.597 497.497 438.978 498.05 438.213 498.7H442.103V500.228H435.589V498.858L436.275 498.279ZM443.266 495.433C443.266 493.914 443.538 492.724 444.083 491.863C444.637 491.002 445.551 490.572 446.826 490.572C448.1 490.572 449.01 491.002 449.555 491.863C450.109 492.724 450.385 493.914 450.385 495.433C450.385 496.961 450.109 498.16 449.555 499.03C449.01 499.899 448.1 500.334 446.826 500.334C445.551 500.334 444.637 499.899 444.083 499.03C443.538 498.16 443.266 496.961 443.266 495.433ZM448.566 495.433C448.566 494.783 448.522 494.239 448.434 493.8C448.355 493.352 448.188 492.987 447.933 492.706C447.687 492.425 447.318 492.285 446.826 492.285C446.333 492.285 445.96 492.425 445.705 492.706C445.459 492.987 445.292 493.352 445.204 493.8C445.125 494.239 445.085 494.783 445.085 495.433C445.085 496.101 445.125 496.663 445.204 497.119C445.283 497.567 445.45 497.932 445.705 498.213C445.96 498.485 446.333 498.621 446.826 498.621C447.318 498.621 447.691 498.485 447.946 498.213C448.201 497.932 448.368 497.567 448.447 497.119C448.526 496.663 448.566 496.101 448.566 495.433ZM451.565 492.456V490.756H454.743V500.36H452.844V492.456H451.565ZM458.175 495.275C457.296 494.818 456.856 494.111 456.856 493.154C456.856 492.68 456.975 492.249 457.212 491.863C457.459 491.468 457.823 491.156 458.307 490.928C458.799 490.691 459.397 490.572 460.1 490.572C460.803 490.572 461.396 490.691 461.88 490.928C462.372 491.156 462.737 491.468 462.974 491.863C463.22 492.249 463.343 492.68 463.343 493.154C463.343 493.637 463.225 494.063 462.987 494.432C462.75 494.792 462.434 495.073 462.038 495.275C462.521 495.486 462.899 495.793 463.172 496.197C463.444 496.601 463.581 497.08 463.581 497.633C463.581 498.23 463.427 498.753 463.119 499.201C462.82 499.64 462.407 499.978 461.88 500.215C461.352 500.452 460.759 500.571 460.1 500.571C459.441 500.571 458.847 500.452 458.32 500.215C457.801 499.978 457.388 499.64 457.081 499.201C456.782 498.753 456.632 498.23 456.632 497.633C456.632 497.08 456.768 496.601 457.041 496.197C457.313 495.784 457.691 495.477 458.175 495.275ZM461.55 493.418C461.55 492.987 461.418 492.653 461.155 492.416C460.9 492.179 460.548 492.061 460.1 492.061C459.66 492.061 459.309 492.179 459.045 492.416C458.79 492.653 458.663 492.992 458.663 493.431C458.663 493.826 458.795 494.142 459.058 494.379C459.331 494.616 459.678 494.735 460.1 494.735C460.522 494.735 460.869 494.616 461.141 494.379C461.414 494.133 461.55 493.813 461.55 493.418ZM460.1 496.079C459.599 496.079 459.19 496.206 458.874 496.461C458.566 496.715 458.412 497.08 458.412 497.554C458.412 497.993 458.562 498.353 458.86 498.634C459.168 498.907 459.581 499.043 460.1 499.043C460.618 499.043 461.027 498.902 461.326 498.621C461.625 498.34 461.774 497.984 461.774 497.554C461.774 497.089 461.62 496.729 461.313 496.474C461.005 496.21 460.601 496.079 460.1 496.079ZM520.657 498.279C521.501 497.576 522.173 496.992 522.674 496.527C523.175 496.052 523.593 495.56 523.927 495.051C524.261 494.542 524.428 494.041 524.428 493.549C524.428 493.101 524.323 492.75 524.112 492.495C523.901 492.241 523.575 492.113 523.136 492.113C522.696 492.113 522.358 492.263 522.121 492.561C521.883 492.851 521.76 493.251 521.752 493.76H519.958C519.994 492.706 520.306 491.907 520.895 491.362C521.492 490.818 522.248 490.546 523.162 490.546C524.164 490.546 524.933 490.813 525.47 491.349C526.006 491.876 526.274 492.574 526.274 493.444C526.274 494.129 526.089 494.783 525.72 495.407C525.351 496.03 524.929 496.575 524.454 497.04C523.98 497.497 523.36 498.05 522.595 498.7H526.485V500.228H519.972V498.858L520.657 498.279ZM527.648 495.433C527.648 493.914 527.92 492.724 528.465 491.863C529.019 491.002 529.933 490.572 531.208 490.572C532.482 490.572 533.392 491.002 533.937 491.863C534.491 492.724 534.768 493.914 534.768 495.433C534.768 496.961 534.491 498.16 533.937 499.03C533.392 499.899 532.482 500.334 531.208 500.334C529.933 500.334 529.019 499.899 528.465 499.03C527.92 498.16 527.648 496.961 527.648 495.433ZM532.948 495.433C532.948 494.783 532.904 494.239 532.816 493.8C532.737 493.352 532.57 492.987 532.315 492.706C532.069 492.425 531.7 492.285 531.208 492.285C530.716 492.285 530.342 492.425 530.087 492.706C529.841 492.987 529.674 493.352 529.586 493.8C529.507 494.239 529.467 494.783 529.467 495.433C529.467 496.101 529.507 496.663 529.586 497.119C529.665 497.567 529.832 497.932 530.087 498.213C530.342 498.485 530.716 498.621 531.208 498.621C531.7 498.621 532.074 498.485 532.329 498.213C532.583 497.932 532.75 497.567 532.83 497.119C532.909 496.663 532.948 496.101 532.948 495.433ZM535.948 492.456V490.756H539.125V500.36H537.226V492.456H535.948ZM543.085 497.66C543.155 498.046 543.313 498.345 543.559 498.555C543.814 498.757 544.152 498.858 544.574 498.858C545.119 498.858 545.515 498.634 545.761 498.187C546.007 497.73 546.13 496.966 546.13 495.894C545.928 496.175 545.642 496.395 545.273 496.553C544.913 496.711 544.522 496.79 544.1 496.79C543.537 496.79 543.027 496.676 542.57 496.448C542.122 496.21 541.766 495.864 541.502 495.407C541.239 494.941 541.107 494.379 541.107 493.721C541.107 492.746 541.397 491.973 541.977 491.402C542.557 490.822 543.348 490.532 544.35 490.532C545.598 490.532 546.477 490.932 546.987 491.731C547.506 492.53 547.765 493.734 547.765 495.341C547.765 496.483 547.664 497.418 547.462 498.147C547.268 498.876 546.93 499.429 546.447 499.807C545.972 500.185 545.322 500.373 544.495 500.373C543.845 500.373 543.291 500.25 542.834 500.005C542.377 499.75 542.025 499.42 541.779 499.016C541.542 498.604 541.406 498.151 541.37 497.66H543.085ZM544.482 495.288C544.939 495.288 545.3 495.148 545.563 494.867C545.827 494.586 545.959 494.208 545.959 493.734C545.959 493.216 545.818 492.816 545.537 492.535C545.264 492.245 544.891 492.1 544.416 492.1C543.942 492.1 543.564 492.249 543.282 492.548C543.01 492.838 542.874 493.224 542.874 493.707C542.874 494.173 543.005 494.555 543.269 494.853C543.542 495.143 543.946 495.288 544.482 495.288ZM606.358 498.279C607.202 497.576 607.874 496.992 608.375 496.527C608.876 496.052 609.294 495.56 609.628 495.051C609.962 494.542 610.129 494.041 610.129 493.549C610.129 493.101 610.023 492.75 609.812 492.495C609.601 492.241 609.276 492.113 608.837 492.113C608.397 492.113 608.059 492.263 607.821 492.561C607.584 492.851 607.461 493.251 607.452 493.76H605.659C605.694 492.706 606.006 491.907 606.595 491.362C607.193 490.818 607.949 490.546 608.863 490.546C609.865 490.546 610.634 490.813 611.17 491.349C611.706 491.876 611.975 492.574 611.975 493.444C611.975 494.129 611.79 494.783 611.421 495.407C611.052 496.03 610.63 496.575 610.155 497.04C609.68 497.497 609.061 498.05 608.296 498.7H612.186V500.228H605.672V498.858L606.358 498.279ZM613.349 495.433C613.349 493.914 613.621 492.724 614.166 491.863C614.72 491.002 615.634 490.572 616.909 490.572C618.183 490.572 619.093 491.002 619.638 491.863C620.192 492.724 620.468 493.914 620.468 495.433C620.468 496.961 620.192 498.16 619.638 499.03C619.093 499.899 618.183 500.334 616.909 500.334C615.634 500.334 614.72 499.899 614.166 499.03C613.621 498.16 613.349 496.961 613.349 495.433ZM618.649 495.433C618.649 494.783 618.605 494.239 618.517 493.8C618.438 493.352 618.271 492.987 618.016 492.706C617.77 492.425 617.401 492.285 616.909 492.285C616.416 492.285 616.043 492.425 615.788 492.706C615.542 492.987 615.375 493.352 615.287 493.8C615.208 494.239 615.168 494.783 615.168 495.433C615.168 496.101 615.208 496.663 615.287 497.119C615.366 497.567 615.533 497.932 615.788 498.213C616.043 498.485 616.416 498.621 616.909 498.621C617.401 498.621 617.774 498.485 618.029 498.213C618.284 497.932 618.451 497.567 618.53 497.119C618.609 496.663 618.649 496.101 618.649 495.433ZM622.453 498.279C623.296 497.576 623.969 496.992 624.47 496.527C624.971 496.052 625.388 495.56 625.722 495.051C626.056 494.542 626.223 494.041 626.223 493.549C626.223 493.101 626.118 492.75 625.907 492.495C625.696 492.241 625.371 492.113 624.931 492.113C624.492 492.113 624.153 492.263 623.916 492.561C623.679 492.851 623.556 493.251 623.547 493.76H621.754C621.789 492.706 622.101 491.907 622.69 491.362C623.288 490.818 624.043 490.546 624.958 490.546C625.96 490.546 626.729 490.813 627.265 491.349C627.801 491.876 628.069 492.574 628.069 493.444C628.069 494.129 627.885 494.783 627.515 495.407C627.146 496.03 626.724 496.575 626.25 497.04C625.775 497.497 625.155 498.05 624.391 498.7H628.28V500.228H621.767V498.858L622.453 498.279ZM629.443 495.433C629.443 493.914 629.716 492.724 630.261 491.863C630.815 491.002 631.729 490.572 633.003 490.572C634.278 490.572 635.187 491.002 635.732 491.863C636.286 492.724 636.563 493.914 636.563 495.433C636.563 496.961 636.286 498.16 635.732 499.03C635.187 499.899 634.278 500.334 633.003 500.334C631.729 500.334 630.815 499.899 630.261 499.03C629.716 498.16 629.443 496.961 629.443 495.433ZM634.744 495.433C634.744 494.783 634.7 494.239 634.612 493.8C634.533 493.352 634.366 492.987 634.111 492.706C633.865 492.425 633.495 492.285 633.003 492.285C632.511 492.285 632.137 492.425 631.883 492.706C631.636 492.987 631.469 493.352 631.381 493.8C631.302 494.239 631.263 494.783 631.263 495.433C631.263 496.101 631.302 496.663 631.381 497.119C631.461 497.567 631.628 497.932 631.883 498.213C632.137 498.485 632.511 498.621 633.003 498.621C633.495 498.621 633.869 498.485 634.124 498.213C634.379 497.932 634.546 497.567 634.625 497.119C634.704 496.663 634.744 496.101 634.744 495.433ZM690.74 498.279C691.584 497.576 692.256 496.992 692.757 496.527C693.258 496.052 693.676 495.56 694.01 495.051C694.344 494.542 694.511 494.041 694.511 493.549C694.511 493.101 694.406 492.75 694.195 492.495C693.984 492.241 693.658 492.113 693.219 492.113C692.779 492.113 692.441 492.263 692.204 492.561C691.966 492.851 691.843 493.251 691.834 493.76H690.041C690.077 492.706 690.389 491.907 690.978 491.362C691.575 490.818 692.331 490.546 693.245 490.546C694.247 490.546 695.016 490.813 695.553 491.349C696.089 491.876 696.357 492.574 696.357 493.444C696.357 494.129 696.172 494.783 695.803 495.407C695.434 496.03 695.012 496.575 694.537 497.04C694.063 497.497 693.443 498.05 692.678 498.7H696.568V500.228H690.055V498.858L690.74 498.279ZM697.731 495.433C697.731 493.914 698.003 492.724 698.548 491.863C699.102 491.002 700.016 490.572 701.291 490.572C702.565 490.572 703.475 491.002 704.02 491.863C704.574 492.724 704.851 493.914 704.851 495.433C704.851 496.961 704.574 498.16 704.02 499.03C703.475 499.899 702.565 500.334 701.291 500.334C700.016 500.334 699.102 499.899 698.548 499.03C698.003 498.16 697.731 496.961 697.731 495.433ZM703.031 495.433C703.031 494.783 702.987 494.239 702.899 493.8C702.82 493.352 702.653 492.987 702.398 492.706C702.152 492.425 701.783 492.285 701.291 492.285C700.799 492.285 700.425 492.425 700.17 492.706C699.924 492.987 699.757 493.352 699.669 493.8C699.59 494.239 699.55 494.783 699.55 495.433C699.55 496.101 699.59 496.663 699.669 497.119C699.748 497.567 699.915 497.932 700.17 498.213C700.425 498.485 700.799 498.621 701.291 498.621C701.783 498.621 702.157 498.485 702.412 498.213C702.666 497.932 702.833 497.567 702.913 497.119C702.992 496.663 703.031 496.101 703.031 495.433ZM706.835 498.279C707.679 497.576 708.351 496.992 708.852 496.527C709.353 496.052 709.771 495.56 710.105 495.051C710.439 494.542 710.606 494.041 710.606 493.549C710.606 493.101 710.5 492.75 710.289 492.495C710.078 492.241 709.753 492.113 709.314 492.113C708.874 492.113 708.536 492.263 708.298 492.561C708.061 492.851 707.938 493.251 707.929 493.76H706.136C706.171 492.706 706.483 491.907 707.072 491.362C707.67 490.818 708.426 490.546 709.34 490.546C710.342 490.546 711.111 490.813 711.647 491.349C712.183 491.876 712.451 492.574 712.451 493.444C712.451 494.129 712.267 494.783 711.898 495.407C711.529 496.03 711.107 496.575 710.632 497.04C710.157 497.497 709.538 498.05 708.773 498.7H712.662V500.228H706.149V498.858L706.835 498.279ZM713.601 492.456V490.756H716.779V500.36H714.88V492.456H713.601ZM777.759 498.279C778.603 497.576 779.276 496.992 779.777 496.527C780.278 496.052 780.695 495.56 781.029 495.051C781.363 494.542 781.53 494.041 781.53 493.549C781.53 493.101 781.425 492.75 781.214 492.495C781.003 492.241 780.678 492.113 780.238 492.113C779.799 492.113 779.46 492.263 779.223 492.561C778.986 492.851 778.862 493.251 778.854 493.76H777.061C777.096 492.706 777.408 491.907 777.997 491.362C778.594 490.818 779.35 490.546 780.264 490.546C781.266 490.546 782.036 490.813 782.572 491.349C783.108 491.876 783.376 492.574 783.376 493.444C783.376 494.129 783.191 494.783 782.822 495.407C782.453 496.03 782.031 496.575 781.557 497.04C781.082 497.497 780.462 498.05 779.698 498.7H783.587V500.228H777.074V498.858L777.759 498.279ZM784.75 495.433C784.75 493.914 785.023 492.724 785.568 491.863C786.121 491.002 787.035 490.572 788.31 490.572C789.585 490.572 790.494 491.002 791.039 491.863C791.593 492.724 791.87 493.914 791.87 495.433C791.87 496.961 791.593 498.16 791.039 499.03C790.494 499.899 789.585 500.334 788.31 500.334C787.035 500.334 786.121 499.899 785.568 499.03C785.023 498.16 784.75 496.961 784.75 495.433ZM790.05 495.433C790.05 494.783 790.006 494.239 789.919 493.8C789.839 493.352 789.672 492.987 789.418 492.706C789.171 492.425 788.802 492.285 788.31 492.285C787.818 492.285 787.444 492.425 787.189 492.706C786.943 492.987 786.776 493.352 786.688 493.8C786.609 494.239 786.57 494.783 786.57 495.433C786.57 496.101 786.609 496.663 786.688 497.119C786.767 497.567 786.934 497.932 787.189 498.213C787.444 498.485 787.818 498.621 788.31 498.621C788.802 498.621 789.176 498.485 789.431 498.213C789.686 497.932 789.853 497.567 789.932 497.119C790.011 496.663 790.05 496.101 790.05 495.433ZM793.854 498.279C794.698 497.576 795.37 496.992 795.871 496.527C796.372 496.052 796.79 495.56 797.124 495.051C797.458 494.542 797.625 494.041 797.625 493.549C797.625 493.101 797.519 492.75 797.308 492.495C797.097 492.241 796.772 492.113 796.333 492.113C795.893 492.113 795.555 492.263 795.318 492.561C795.08 492.851 794.957 493.251 794.948 493.76H793.155C793.19 492.706 793.502 491.907 794.091 491.362C794.689 490.818 795.445 490.546 796.359 490.546C797.361 490.546 798.13 490.813 798.666 491.349C799.203 491.876 799.471 492.574 799.471 493.444C799.471 494.129 799.286 494.783 798.917 495.407C798.548 496.03 798.126 496.575 797.651 497.04C797.177 497.497 796.557 498.05 795.792 498.7H799.682V500.228H793.168V498.858L793.854 498.279ZM801.425 498.279C802.269 497.576 802.941 496.992 803.442 496.527C803.943 496.052 804.361 495.56 804.695 495.051C805.029 494.542 805.196 494.041 805.196 493.549C805.196 493.101 805.09 492.75 804.879 492.495C804.668 492.241 804.343 492.113 803.904 492.113C803.464 492.113 803.126 492.263 802.888 492.561C802.651 492.851 802.528 493.251 802.519 493.76H800.726C800.761 492.706 801.073 491.907 801.662 491.362C802.26 490.818 803.016 490.546 803.93 490.546C804.932 490.546 805.701 490.813 806.237 491.349C806.774 491.876 807.042 492.574 807.042 493.444C807.042 494.129 806.857 494.783 806.488 495.407C806.119 496.03 805.697 496.575 805.222 497.04C804.748 497.497 804.128 498.05 803.363 498.7H807.253V500.228H800.739V498.858L801.425 498.279ZM863.46 498.279C864.304 497.576 864.976 496.992 865.477 496.527C865.978 496.052 866.396 495.56 866.73 495.051C867.064 494.542 867.231 494.041 867.231 493.549C867.231 493.101 867.125 492.75 866.915 492.495C866.704 492.241 866.378 492.113 865.939 492.113C865.499 492.113 865.161 492.263 864.924 492.561C864.686 492.851 864.563 493.251 864.554 493.76H862.761C862.796 492.706 863.109 491.907 863.697 491.362C864.295 490.818 865.051 490.546 865.965 490.546C866.967 490.546 867.736 490.813 868.272 491.349C868.809 491.876 869.077 492.574 869.077 493.444C869.077 494.129 868.892 494.783 868.523 495.407C868.154 496.03 867.732 496.575 867.257 497.04C866.783 497.497 866.163 498.05 865.398 498.7H869.288V500.228H862.774V498.858L863.46 498.279ZM870.451 495.433C870.451 493.914 870.723 492.724 871.268 491.863C871.822 491.002 872.736 490.572 874.011 490.572C875.285 490.572 876.195 491.002 876.74 491.863C877.294 492.724 877.571 493.914 877.571 495.433C877.571 496.961 877.294 498.16 876.74 499.03C876.195 499.899 875.285 500.334 874.011 500.334C872.736 500.334 871.822 499.899 871.268 499.03C870.723 498.16 870.451 496.961 870.451 495.433ZM875.751 495.433C875.751 494.783 875.707 494.239 875.619 493.8C875.54 493.352 875.373 492.987 875.118 492.706C874.872 492.425 874.503 492.285 874.011 492.285C873.518 492.285 873.145 492.425 872.89 492.706C872.644 492.987 872.477 493.352 872.389 493.8C872.31 494.239 872.27 494.783 872.27 495.433C872.27 496.101 872.31 496.663 872.389 497.119C872.468 497.567 872.635 497.932 872.89 498.213C873.145 498.485 873.518 498.621 874.011 498.621C874.503 498.621 874.877 498.485 875.131 498.213C875.386 497.932 875.553 497.567 875.632 497.119C875.712 496.663 875.751 496.101 875.751 495.433ZM879.555 498.279C880.399 497.576 881.071 496.992 881.572 496.527C882.073 496.052 882.491 495.56 882.825 495.051C883.159 494.542 883.326 494.041 883.326 493.549C883.326 493.101 883.22 492.75 883.009 492.495C882.798 492.241 882.473 492.113 882.033 492.113C881.594 492.113 881.256 492.263 881.018 492.561C880.781 492.851 880.658 493.251 880.649 493.76H878.856C878.891 492.706 879.203 491.907 879.792 491.362C880.39 490.818 881.146 490.546 882.06 490.546C883.062 490.546 883.831 490.813 884.367 491.349C884.903 491.876 885.171 492.574 885.171 493.444C885.171 494.129 884.987 494.783 884.618 495.407C884.248 496.03 883.827 496.575 883.352 497.04C882.877 497.497 882.258 498.05 881.493 498.7H885.382V500.228H878.869V498.858L879.555 498.279ZM886.572 493.286C886.616 492.408 886.923 491.731 887.495 491.257C888.075 490.774 888.835 490.532 889.776 490.532C890.417 490.532 890.967 490.647 891.424 490.875C891.881 491.095 892.224 491.398 892.452 491.784C892.69 492.162 892.808 492.592 892.808 493.075C892.808 493.628 892.663 494.098 892.373 494.485C892.092 494.862 891.753 495.117 891.358 495.249V495.301C891.868 495.459 892.263 495.741 892.545 496.145C892.835 496.549 892.98 497.067 892.98 497.699C892.98 498.226 892.857 498.696 892.61 499.109C892.373 499.521 892.017 499.846 891.543 500.084C891.077 500.312 890.514 500.426 889.855 500.426C888.862 500.426 888.053 500.176 887.429 499.675C886.805 499.175 886.475 498.437 886.44 497.462H888.233C888.251 497.892 888.396 498.239 888.668 498.503C888.95 498.757 889.332 498.885 889.815 498.885C890.264 498.885 890.606 498.762 890.844 498.516C891.09 498.261 891.213 497.936 891.213 497.541C891.213 497.014 891.046 496.636 890.712 496.408C890.378 496.18 889.859 496.066 889.156 496.066H888.774V494.55H889.156C890.404 494.55 891.028 494.133 891.028 493.299C891.028 492.921 890.914 492.627 890.685 492.416C890.466 492.206 890.145 492.1 889.723 492.1C889.31 492.1 888.989 492.214 888.761 492.443C888.541 492.662 888.413 492.943 888.378 493.286H886.572ZM949.161 498.279C950.005 497.576 950.677 496.992 951.178 496.527C951.679 496.052 952.097 495.56 952.431 495.051C952.765 494.542 952.932 494.041 952.932 493.549C952.932 493.101 952.826 492.75 952.615 492.495C952.404 492.241 952.079 492.113 951.64 492.113C951.2 492.113 950.862 492.263 950.624 492.561C950.387 492.851 950.264 493.251 950.255 493.76H948.462C948.497 492.706 948.809 491.907 949.398 491.362C949.996 490.818 950.752 490.546 951.666 490.546C952.668 490.546 953.437 490.813 953.973 491.349C954.509 491.876 954.777 492.574 954.777 493.444C954.777 494.129 954.593 494.783 954.224 495.407C953.855 496.03 953.433 496.575 952.958 497.04C952.483 497.497 951.864 498.05 951.099 498.7H954.988V500.228H948.475V498.858L949.161 498.279ZM956.152 495.433C956.152 493.914 956.424 492.724 956.969 491.863C957.523 491.002 958.437 490.572 959.711 490.572C960.986 490.572 961.896 491.002 962.441 491.863C962.994 492.724 963.271 493.914 963.271 495.433C963.271 496.961 962.994 498.16 962.441 499.03C961.896 499.899 960.986 500.334 959.711 500.334C958.437 500.334 957.523 499.899 956.969 499.03C956.424 498.16 956.152 496.961 956.152 495.433ZM961.452 495.433C961.452 494.783 961.408 494.239 961.32 493.8C961.241 493.352 961.074 492.987 960.819 492.706C960.573 492.425 960.204 492.285 959.711 492.285C959.219 492.285 958.846 492.425 958.591 492.706C958.345 492.987 958.178 493.352 958.09 493.8C958.011 494.239 957.971 494.783 957.971 495.433C957.971 496.101 958.011 496.663 958.09 497.119C958.169 497.567 958.336 497.932 958.591 498.213C958.846 498.485 959.219 498.621 959.711 498.621C960.204 498.621 960.577 498.485 960.832 498.213C961.087 497.932 961.254 497.567 961.333 497.119C961.412 496.663 961.452 496.101 961.452 495.433ZM965.255 498.279C966.099 497.576 966.772 496.992 967.273 496.527C967.774 496.052 968.191 495.56 968.525 495.051C968.859 494.542 969.026 494.041 969.026 493.549C969.026 493.101 968.921 492.75 968.71 492.495C968.499 492.241 968.174 492.113 967.734 492.113C967.295 492.113 966.956 492.263 966.719 492.561C966.482 492.851 966.359 493.251 966.35 493.76H964.557C964.592 492.706 964.904 491.907 965.493 491.362C966.091 490.818 966.846 490.546 967.761 490.546C968.763 490.546 969.532 490.813 970.068 491.349C970.604 491.876 970.872 492.574 970.872 493.444C970.872 494.129 970.688 494.783 970.318 495.407C969.949 496.03 969.527 496.575 969.053 497.04C968.578 497.497 967.958 498.05 967.194 498.7H971.083V500.228H964.57V498.858L965.255 498.279ZM972.167 498.49V497.04L976.479 490.875H978.628V496.882H979.788V498.49H978.628V500.36H976.782V498.49H972.167ZM976.9 492.851L974.198 496.882H976.9V492.851Z" stroke="white"/>
</svg>
