            <svg width="648" height="525" viewBox="0 0 648 525" fill="none" xmlns="http://www.w3.org/2000/svg">
                <g id="sieges-chartsiege_ 1" clip-path="url(#clip0_153_4774)">
                    <g id="sieges-chart">
                        <g id="siege-100">
                            <path id="Vector"
                                d="M608 502.421C608 498.453 611.214 495.237 615.179 495.237H640.821C644.786 495.237 648 498.453 648 502.421V517.816C648 521.784 644.786 525 640.821 525H615.179C611.214 525 608 521.784 608 517.816V502.421Z"
                                fill="#B01212" />
                            <path id="Vector_2"
                                d="M613.128 493.184C613.128 489.216 616.343 486 620.308 486H635.692C639.657 486 642.872 489.216 642.872 493.184V501.395C642.872 505.362 639.657 508.579 635.692 508.579H620.308C616.343 508.579 613.128 505.362 613.128 501.395V493.184Z"
                                fill="#B01212" />
                        </g>
                        <g id="siege-99">
                            <path id="Vector_3"
                                d="M552 502.421C552 498.453 555.214 495.237 559.179 495.237H584.821C588.786 495.237 592 498.453 592 502.421V517.816C592 521.784 588.786 525 584.821 525H559.179C555.214 525 552 521.784 552 517.816V502.421Z"
                                fill="#B01212" />
                            <path id="Vector_4"
                                d="M557.128 493.184C557.128 489.216 560.343 486 564.308 486H579.692C583.657 486 586.872 489.216 586.872 493.184V501.395C586.872 505.362 583.657 508.579 579.692 508.579H564.308C560.343 508.579 557.128 505.362 557.128 501.395V493.184Z"
                                fill="#B01212" />
                        </g>
                        <g id="siege-90">
                            <path id="Vector_5"
                                d="M608 448.421C608 444.453 611.214 441.237 615.179 441.237H640.821C644.786 441.237 648 444.453 648 448.421V463.816C648 467.784 644.786 471 640.821 471H615.179C611.214 471 608 467.784 608 463.816V448.421Z"
                                fill="#B01212" />
                            <path id="Vector_6"
                                d="M613.128 439.184C613.128 435.216 616.343 432 620.308 432H635.692C639.657 432 642.872 435.216 642.872 439.184V447.395C642.872 451.362 639.657 454.579 635.692 454.579H620.308C616.343 454.579 613.128 451.362 613.128 447.395V439.184Z"
                                fill="#B01212" />
                        </g>
                        <g id="siege-89">
                            <path id="Vector_7"
                                d="M552 448.421C552 444.453 555.214 441.237 559.179 441.237H584.821C588.786 441.237 592 444.453 592 448.421V463.816C592 467.784 588.786 471 584.821 471H559.179C555.214 471 552 467.784 552 463.816V448.421Z"
                                fill="#B01212" />
                            <path id="Vector_8"
                                d="M557.128 439.184C557.128 435.216 560.343 432 564.308 432H579.692C583.657 432 586.872 435.216 586.872 439.184V447.395C586.872 451.362 583.657 454.579 579.692 454.579H564.308C560.343 454.579 557.128 451.362 557.128 447.395V439.184Z"
                                fill="#B01212" />
                        </g>
                        <g id="siege-80">
                            <path id="Vector_9"
                                d="M608 394.421C608 390.453 611.214 387.237 615.179 387.237H640.821C644.786 387.237 648 390.453 648 394.421V409.816C648 413.784 644.786 417 640.821 417H615.179C611.214 417 608 413.784 608 409.816V394.421Z"
                                fill="#B01212" />
                            <path id="Vector_10"
                                d="M613.128 385.184C613.128 381.216 616.343 378 620.308 378H635.692C639.657 378 642.872 381.216 642.872 385.184V393.395C642.872 397.362 639.657 400.579 635.692 400.579H620.308C616.343 400.579 613.128 397.362 613.128 393.395V385.184Z"
                                fill="#B01212" />
                        </g>
                        <g id="siege-79">
                            <path id="Vector_11"
                                d="M552 394.421C552 390.453 555.214 387.237 559.179 387.237H584.821C588.786 387.237 592 390.453 592 394.421V409.816C592 413.784 588.786 417 584.821 417H559.179C555.214 417 552 413.784 552 409.816V394.421Z"
                                fill="#B01212" />
                            <path id="Vector_12"
                                d="M557.128 385.184C557.128 381.216 560.343 378 564.308 378H579.692C583.657 378 586.872 381.216 586.872 385.184V393.395C586.872 397.362 583.657 400.579 579.692 400.579H564.308C560.343 400.579 557.128 397.362 557.128 393.395V385.184Z"
                                fill="#B01212" />
                        </g>
                        <g id="siege-70">
                            <path id="Vector_13"
                                d="M608 340.421C608 336.453 611.214 333.237 615.179 333.237H640.821C644.786 333.237 648 336.453 648 340.421V355.816C648 359.784 644.786 363 640.821 363H615.179C611.214 363 608 359.784 608 355.816V340.421Z"
                                fill="#B01212" />
                            <path id="Vector_14"
                                d="M613.128 331.184C613.128 327.216 616.343 324 620.308 324H635.692C639.657 324 642.872 327.216 642.872 331.184V339.395C642.872 343.362 639.657 346.579 635.692 346.579H620.308C616.343 346.579 613.128 343.362 613.128 339.395V331.184Z"
                                fill="#B01212" />
                        </g>
                        <g id="siege-69">
                            <path id="Vector_15"
                                d="M552 340.421C552 336.453 555.214 333.237 559.179 333.237H584.821C588.786 333.237 592 336.453 592 340.421V355.816C592 359.784 588.786 363 584.821 363H559.179C555.214 363 552 359.784 552 355.816V340.421Z"
                                fill="#B01212" />
                            <path id="Vector_16"
                                d="M557.128 331.184C557.128 327.216 560.343 324 564.308 324H579.692C583.657 324 586.872 327.216 586.872 331.184V339.395C586.872 343.362 583.657 346.579 579.692 346.579H564.308C560.343 346.579 557.128 343.362 557.128 339.395V331.184Z"
                                fill="#B01212" />
                        </g>
                        <g id="siege-60">
                            <path id="Vector_17"
                                d="M608 286.421C608 282.453 611.214 279.237 615.179 279.237H640.821C644.786 279.237 648 282.453 648 286.421V301.816C648 305.784 644.786 309 640.821 309H615.179C611.214 309 608 305.784 608 301.816V286.421Z"
                                fill="#B01212" />
                            <path id="Vector_18"
                                d="M613.128 277.184C613.128 273.216 616.343 270 620.308 270H635.692C639.657 270 642.872 273.216 642.872 277.184V285.395C642.872 289.362 639.657 292.579 635.692 292.579H620.308C616.343 292.579 613.128 289.362 613.128 285.395V277.184Z"
                                fill="#B01212" />
                        </g>
                        <g id="siege-59">
                            <path id="Vector_19"
                                d="M552 286.421C552 282.453 555.214 279.237 559.179 279.237H584.821C588.786 279.237 592 282.453 592 286.421V301.816C592 305.784 588.786 309 584.821 309H559.179C555.214 309 552 305.784 552 301.816V286.421Z"
                                fill="#B01212" />
                            <path id="Vector_20"
                                d="M557.128 277.184C557.128 273.216 560.343 270 564.308 270H579.692C583.657 270 586.872 273.216 586.872 277.184V285.395C586.872 289.362 583.657 292.579 579.692 292.579H564.308C560.343 292.579 557.128 289.362 557.128 285.395V277.184Z"
                                fill="#B01212" />
                        </g>
                        <g id="siege-50">
                            <path id="Vector_21"
                                d="M608 232.421C608 228.453 611.214 225.237 615.179 225.237H640.821C644.786 225.237 648 228.453 648 232.421V247.816C648 251.784 644.786 255 640.821 255H615.179C611.214 255 608 251.784 608 247.816V232.421Z"
                                fill="#B01212" />
                            <path id="Vector_22"
                                d="M613.128 223.184C613.128 219.216 616.343 216 620.308 216H635.692C639.657 216 642.872 219.216 642.872 223.184V231.395C642.872 235.362 639.657 238.579 635.692 238.579H620.308C616.343 238.579 613.128 235.362 613.128 231.395V223.184Z"
                                fill="#B01212" />
                        </g>
                        <g id="siege-49">
                            <path id="Vector_23"
                                d="M552 232.421C552 228.453 555.214 225.237 559.179 225.237H584.821C588.786 225.237 592 228.453 592 232.421V247.816C592 251.784 588.786 255 584.821 255H559.179C555.214 255 552 251.784 552 247.816V232.421Z"
                                fill="#B01212" />
                            <path id="Vector_24"
                                d="M557.128 223.184C557.128 219.216 560.343 216 564.308 216H579.692C583.657 216 586.872 219.216 586.872 223.184V231.395C586.872 235.362 583.657 238.579 579.692 238.579H564.308C560.343 238.579 557.128 235.362 557.128 231.395V223.184Z"
                                fill="#B01212" />
                        </g>
                        <g id="siege-40">
                            <path id="Vector_25"
                                d="M608 178.421C608 174.453 611.214 171.237 615.179 171.237H640.821C644.786 171.237 648 174.453 648 178.421V193.816C648 197.784 644.786 201 640.821 201H615.179C611.214 201 608 197.784 608 193.816V178.421Z"
                                fill="#B01212" />
                            <path id="Vector_26"
                                d="M613.128 169.184C613.128 165.216 616.343 162 620.308 162H635.692C639.657 162 642.872 165.216 642.872 169.184V177.395C642.872 181.362 639.657 184.579 635.692 184.579H620.308C616.343 184.579 613.128 181.362 613.128 177.395V169.184Z"
                                fill="#B01212" />
                        </g>
                        <g id="siege-39">
                            <path id="Vector_27"
                                d="M552 178.421C552 174.453 555.214 171.237 559.179 171.237H584.821C588.786 171.237 592 174.453 592 178.421V193.816C592 197.784 588.786 201 584.821 201H559.179C555.214 201 552 197.784 552 193.816V178.421Z"
                                fill="#B01212" />
                            <path id="Vector_28"
                                d="M557.128 169.184C557.128 165.216 560.343 162 564.308 162H579.692C583.657 162 586.872 165.216 586.872 169.184V177.395C586.872 181.362 583.657 184.579 579.692 184.579H564.308C560.343 184.579 557.128 181.362 557.128 177.395V169.184Z"
                                fill="#B01212" />
                        </g>
                        <g id="siege-30">
                            <path id="Vector_29"
                                d="M608 124.421C608 120.453 611.214 117.237 615.179 117.237H640.821C644.786 117.237 648 120.453 648 124.421V139.816C648 143.784 644.786 147 640.821 147H615.179C611.214 147 608 143.784 608 139.816V124.421Z"
                                fill="#B01212" />
                            <path id="Vector_30"
                                d="M613.128 115.184C613.128 111.216 616.343 108 620.308 108H635.692C639.657 108 642.872 111.216 642.872 115.184V123.395C642.872 127.362 639.657 130.579 635.692 130.579H620.308C616.343 130.579 613.128 127.362 613.128 123.395V115.184Z"
                                fill="#B01212" />
                        </g>
                        <g id="siege-29">
                            <path id="Vector_31"
                                d="M552 124.421C552 120.453 555.214 117.237 559.179 117.237H584.821C588.786 117.237 592 120.453 592 124.421V139.816C592 143.784 588.786 147 584.821 147H559.179C555.214 147 552 143.784 552 139.816V124.421Z"
                                fill="#B01212" />
                            <path id="Vector_32"
                                d="M557.128 115.184C557.128 111.216 560.343 108 564.308 108H579.692C583.657 108 586.872 111.216 586.872 115.184V123.395C586.872 127.362 583.657 130.579 579.692 130.579H564.308C560.343 130.579 557.128 127.362 557.128 123.395V115.184Z"
                                fill="#B01212" />
                        </g>
                        <g id="siege-20">
                            <path id="Vector_33"
                                d="M607 70.4206C607 66.4528 610.214 63.2363 614.179 63.2363H639.821C643.786 63.2363 647 66.4528 647 70.4206V85.8153C647 89.783 643.786 92.9995 639.821 92.9995H614.179C610.214 92.9995 607 89.783 607 85.8153V70.4206Z"
                                fill="#B01212" />
                            <path id="Vector_34"
                                d="M612.128 61.1842C612.128 57.2165 615.343 54 619.308 54H634.692C638.657 54 641.872 57.2165 641.872 61.1842V69.3947C641.872 73.3625 638.657 76.5789 634.692 76.5789H619.308C615.343 76.5789 612.128 73.3625 612.128 69.3947V61.1842Z"
                                fill="#B01212" />
                        </g>
                        <g id="siege-19">
                            <path id="Vector_35"
                                d="M551 70.4206C551 66.4528 554.214 63.2363 558.179 63.2363H583.821C587.786 63.2363 591 66.4528 591 70.4206V85.8153C591 89.783 587.786 92.9995 583.821 92.9995H558.179C554.214 92.9995 551 89.783 551 85.8153V70.4206Z"
                                fill="#B01212" />
                            <path id="Vector_36"
                                d="M556.128 61.1842C556.128 57.2165 559.343 54 563.308 54H578.692C582.657 54 585.872 57.2165 585.872 61.1842V69.3947C585.872 73.3625 582.657 76.5789 578.692 76.5789H563.308C559.343 76.5789 556.128 73.3625 556.128 69.3947V61.1842Z"
                                fill="#B01212" />
                        </g>
                        <g id="siege-10">
                            <path id="Vector_37"
                                d="M607 16.4216C607 12.4538 610.214 9.2373 614.179 9.2373H639.821C643.786 9.2373 647 12.4538 647 16.4216V31.8163C647 35.784 643.786 39.0005 639.821 39.0005H614.179C610.214 39.0005 607 35.784 607 31.8163V16.4216Z"
                                fill="#B01212" />
                            <path id="Vector_38"
                                d="M612.128 7.18421C612.128 3.21648 615.343 0 619.308 0H634.692C638.657 0 641.872 3.21648 641.872 7.18421V15.3947C641.872 19.3625 638.657 22.5789 634.692 22.5789H619.308C615.343 22.5789 612.128 19.3625 612.128 15.3947V7.18421Z"
                                fill="#B01212" />
                        </g>
                        <g id="siege-9">
                            <path id="Vector_39"
                                d="M551 16.4216C551 12.4538 554.214 9.2373 558.179 9.2373H583.821C587.786 9.2373 591 12.4538 591 16.4216V31.8163C591 35.784 587.786 39.0005 583.821 39.0005H558.179C554.214 39.0005 551 35.784 551 31.8163V16.4216Z"
                                fill="#B01212" />
                            <path id="Vector_40"
                                d="M556.128 7.18421C556.128 3.21648 559.343 0 563.308 0H578.692C582.657 0 585.872 3.21648 585.872 7.18421V15.3947C585.872 19.3625 582.657 22.5789 578.692 22.5789H563.308C559.343 22.5789 556.128 19.3625 556.128 15.3947V7.18421Z"
                                fill="#B01212" />
                        </g>
                        <g id="siege-98">
                            <path id="Vector_41"
                                d="M447 502.421C447 498.453 450.214 495.237 454.179 495.237H479.821C483.786 495.237 487 498.453 487 502.421V517.816C487 521.784 483.786 525 479.821 525H454.179C450.214 525 447 521.784 447 517.816V502.421Z"
                                fill="#B01212" />
                            <path id="Vector_42"
                                d="M452.128 493.184C452.128 489.216 455.343 486 459.308 486H474.692C478.657 486 481.872 489.216 481.872 493.184V501.395C481.872 505.362 478.657 508.579 474.692 508.579H459.308C455.343 508.579 452.128 505.362 452.128 501.395V493.184Z"
                                fill="#B01212" />
                        </g>
                        <g id="siege-97">
                            <path id="Vector_43"
                                d="M391 502.421C391 498.453 394.214 495.237 398.179 495.237H423.821C427.786 495.237 431 498.453 431 502.421V517.816C431 521.784 427.786 525 423.821 525H398.179C394.214 525 391 521.784 391 517.816V502.421Z"
                                fill="#B01212" />
                            <path id="Vector_44"
                                d="M396.128 493.184C396.128 489.216 399.343 486 403.308 486H418.692C422.657 486 425.872 489.216 425.872 493.184V501.395C425.872 505.362 422.657 508.579 418.692 508.579H403.308C399.343 508.579 396.128 505.362 396.128 501.395V493.184Z"
                                fill="#B01212" />
                        </g>
                        <g id="siege-96">
                            <path id="Vector_45"
                                d="M335 502.421C335 498.453 338.214 495.237 342.179 495.237H367.821C371.786 495.237 375 498.453 375 502.421V517.816C375 521.784 371.786 525 367.821 525H342.179C338.214 525 335 521.784 335 517.816V502.421Z"
                                fill="#B01212" />
                            <path id="Vector_46"
                                d="M340.128 493.184C340.128 489.216 343.343 486 347.308 486H362.692C366.657 486 369.872 489.216 369.872 493.184V501.395C369.872 505.362 366.657 508.579 362.692 508.579H347.308C343.343 508.579 340.128 505.362 340.128 501.395V493.184Z"
                                fill="#B01212" />
                        </g>
                        <g id="siege-95">
                            <path id="Vector_47"
                                d="M279 502.421C279 498.453 282.214 495.237 286.179 495.237H311.821C315.786 495.237 319 498.453 319 502.421V517.816C319 521.784 315.786 525 311.821 525H286.179C282.214 525 279 521.784 279 517.816V502.421Z"
                                fill="#B01212" />
                            <path id="Vector_48"
                                d="M284.128 493.184C284.128 489.216 287.343 486 291.308 486H306.692C310.657 486 313.872 489.216 313.872 493.184V501.395C313.872 505.362 310.657 508.579 306.692 508.579H291.308C287.343 508.579 284.128 505.362 284.128 501.395V493.184Z"
                                fill="#B01212" />
                        </g>
                        <g id="siege-94">
                            <path id="Vector_49"
                                d="M223 502.421C223 498.453 226.214 495.237 230.179 495.237H255.821C259.786 495.237 263 498.453 263 502.421V517.816C263 521.784 259.786 525 255.821 525H230.179C226.214 525 223 521.784 223 517.816V502.421Z"
                                fill="#B01212" />
                            <path id="Vector_50"
                                d="M228.128 493.184C228.128 489.216 231.343 486 235.308 486H250.692C254.657 486 257.872 489.216 257.872 493.184V501.395C257.872 505.362 254.657 508.579 250.692 508.579H235.308C231.343 508.579 228.128 505.362 228.128 501.395V493.184Z"
                                fill="#B01212" />
                        </g>
                        <g id="siege-93">
                            <path id="Vector_51"
                                d="M167 502.421C167 498.453 170.214 495.237 174.179 495.237H199.821C203.786 495.237 207 498.453 207 502.421V517.816C207 521.784 203.786 525 199.821 525H174.179C170.214 525 167 521.784 167 517.816V502.421Z"
                                fill="#B01212" />
                            <path id="Vector_52"
                                d="M172.128 493.184C172.128 489.216 175.343 486 179.308 486H194.692C198.657 486 201.872 489.216 201.872 493.184V501.395C201.872 505.362 198.657 508.579 194.692 508.579H179.308C175.343 508.579 172.128 505.362 172.128 501.395V493.184Z"
                                fill="#B01212" />
                        </g>
                        <g id="siege-88">
                            <path id="Vector_53"
                                d="M447 448.421C447 444.453 450.214 441.237 454.179 441.237H479.821C483.786 441.237 487 444.453 487 448.421V463.816C487 467.784 483.786 471 479.821 471H454.179C450.214 471 447 467.784 447 463.816V448.421Z"
                                fill="#B01212" />
                            <path id="Vector_54"
                                d="M452.128 439.184C452.128 435.216 455.343 432 459.308 432H474.692C478.657 432 481.872 435.216 481.872 439.184V447.395C481.872 451.362 478.657 454.579 474.692 454.579H459.308C455.343 454.579 452.128 451.362 452.128 447.395V439.184Z"
                                fill="#B01212" />
                        </g>
                        <g id="siege-87">
                            <path id="Vector_55"
                                d="M391 448.421C391 444.453 394.214 441.237 398.179 441.237H423.821C427.786 441.237 431 444.453 431 448.421V463.816C431 467.784 427.786 471 423.821 471H398.179C394.214 471 391 467.784 391 463.816V448.421Z"
                                fill="#B01212" />
                            <path id="Vector_56"
                                d="M396.128 439.184C396.128 435.216 399.343 432 403.308 432H418.692C422.657 432 425.872 435.216 425.872 439.184V447.395C425.872 451.362 422.657 454.579 418.692 454.579H403.308C399.343 454.579 396.128 451.362 396.128 447.395V439.184Z"
                                fill="#B01212" />
                        </g>
                        <g id="siege-86">
                            <path id="Vector_57"
                                d="M335 448.421C335 444.453 338.214 441.237 342.179 441.237H367.821C371.786 441.237 375 444.453 375 448.421V463.816C375 467.784 371.786 471 367.821 471H342.179C338.214 471 335 467.784 335 463.816V448.421Z"
                                fill="#B01212" />
                            <path id="Vector_58"
                                d="M340.128 439.184C340.128 435.216 343.343 432 347.308 432H362.692C366.657 432 369.872 435.216 369.872 439.184V447.395C369.872 451.362 366.657 454.579 362.692 454.579H347.308C343.343 454.579 340.128 451.362 340.128 447.395V439.184Z"
                                fill="#B01212" />
                        </g>
                        <g id="siege-85">
                            <path id="Vector_59"
                                d="M279 448.421C279 444.453 282.214 441.237 286.179 441.237H311.821C315.786 441.237 319 444.453 319 448.421V463.816C319 467.784 315.786 471 311.821 471H286.179C282.214 471 279 467.784 279 463.816V448.421Z"
                                fill="#B01212" />
                            <path id="Vector_60"
                                d="M284.128 439.184C284.128 435.216 287.343 432 291.308 432H306.692C310.657 432 313.872 435.216 313.872 439.184V447.395C313.872 451.362 310.657 454.579 306.692 454.579H291.308C287.343 454.579 284.128 451.362 284.128 447.395V439.184Z"
                                fill="#B01212" />
                        </g>
                        <g id="siege-84">
                            <path id="Vector_61"
                                d="M223 448.421C223 444.453 226.214 441.237 230.179 441.237H255.821C259.786 441.237 263 444.453 263 448.421V463.816C263 467.784 259.786 471 255.821 471H230.179C226.214 471 223 467.784 223 463.816V448.421Z"
                                fill="#B01212" />
                            <path id="Vector_62"
                                d="M228.128 439.184C228.128 435.216 231.343 432 235.308 432H250.692C254.657 432 257.872 435.216 257.872 439.184V447.395C257.872 451.362 254.657 454.579 250.692 454.579H235.308C231.343 454.579 228.128 451.362 228.128 447.395V439.184Z"
                                fill="#B01212" />
                        </g>
                        <g id="siege-83">
                            <path id="Vector_63"
                                d="M167 448.421C167 444.453 170.214 441.237 174.179 441.237H199.821C203.786 441.237 207 444.453 207 448.421V463.816C207 467.784 203.786 471 199.821 471H174.179C170.214 471 167 467.784 167 463.816V448.421Z"
                                fill="#B01212" />
                            <path id="Vector_64"
                                d="M172.128 439.184C172.128 435.216 175.343 432 179.308 432H194.692C198.657 432 201.872 435.216 201.872 439.184V447.395C201.872 451.362 198.657 454.579 194.692 454.579H179.308C175.343 454.579 172.128 451.362 172.128 447.395V439.184Z"
                                fill="#B01212" />
                        </g>
                        <g id="siege-78">
                            <path id="Vector_65"
                                d="M447 394.421C447 390.453 450.214 387.237 454.179 387.237H479.821C483.786 387.237 487 390.453 487 394.421V409.816C487 413.784 483.786 417 479.821 417H454.179C450.214 417 447 413.784 447 409.816V394.421Z"
                                fill="#B01212" />
                            <path id="Vector_66"
                                d="M452.128 385.184C452.128 381.216 455.343 378 459.308 378H474.692C478.657 378 481.872 381.216 481.872 385.184V393.395C481.872 397.362 478.657 400.579 474.692 400.579H459.308C455.343 400.579 452.128 397.362 452.128 393.395V385.184Z"
                                fill="#B01212" />
                        </g>
                        <g id="siege-77">
                            <path id="Vector_67"
                                d="M391 394.421C391 390.453 394.214 387.237 398.179 387.237H423.821C427.786 387.237 431 390.453 431 394.421V409.816C431 413.784 427.786 417 423.821 417H398.179C394.214 417 391 413.784 391 409.816V394.421Z"
                                fill="#B01212" />
                            <path id="Vector_68"
                                d="M396.128 385.184C396.128 381.216 399.343 378 403.308 378H418.692C422.657 378 425.872 381.216 425.872 385.184V393.395C425.872 397.362 422.657 400.579 418.692 400.579H403.308C399.343 400.579 396.128 397.362 396.128 393.395V385.184Z"
                                fill="#B01212" />
                        </g>
                        <g id="siege-76">
                            <path id="Vector_69"
                                d="M335 394.421C335 390.453 338.214 387.237 342.179 387.237H367.821C371.786 387.237 375 390.453 375 394.421V409.816C375 413.784 371.786 417 367.821 417H342.179C338.214 417 335 413.784 335 409.816V394.421Z"
                                fill="#B01212" />
                            <path id="Vector_70"
                                d="M340.128 385.184C340.128 381.216 343.343 378 347.308 378H362.692C366.657 378 369.872 381.216 369.872 385.184V393.395C369.872 397.362 366.657 400.579 362.692 400.579H347.308C343.343 400.579 340.128 397.362 340.128 393.395V385.184Z"
                                fill="#B01212" />
                        </g>
                        <g id="siege-75">
                            <path id="Vector_71"
                                d="M279 394.421C279 390.453 282.214 387.237 286.179 387.237H311.821C315.786 387.237 319 390.453 319 394.421V409.816C319 413.784 315.786 417 311.821 417H286.179C282.214 417 279 413.784 279 409.816V394.421Z"
                                fill="#B01212" />
                            <path id="Vector_72"
                                d="M284.128 385.184C284.128 381.216 287.343 378 291.308 378H306.692C310.657 378 313.872 381.216 313.872 385.184V393.395C313.872 397.362 310.657 400.579 306.692 400.579H291.308C287.343 400.579 284.128 397.362 284.128 393.395V385.184Z"
                                fill="#B01212" />
                        </g>
                        <g id="siege-74">
                            <path id="Vector_73"
                                d="M223 394.421C223 390.453 226.214 387.237 230.179 387.237H255.821C259.786 387.237 263 390.453 263 394.421V409.816C263 413.784 259.786 417 255.821 417H230.179C226.214 417 223 413.784 223 409.816V394.421Z"
                                fill="#B01212" />
                            <path id="Vector_74"
                                d="M228.128 385.184C228.128 381.216 231.343 378 235.308 378H250.692C254.657 378 257.872 381.216 257.872 385.184V393.395C257.872 397.362 254.657 400.579 250.692 400.579H235.308C231.343 400.579 228.128 397.362 228.128 393.395V385.184Z"
                                fill="#B01212" />
                        </g>
                        <g id="siege-73">
                            <path id="Vector_75"
                                d="M167 394.421C167 390.453 170.214 387.237 174.179 387.237H199.821C203.786 387.237 207 390.453 207 394.421V409.816C207 413.784 203.786 417 199.821 417H174.179C170.214 417 167 413.784 167 409.816V394.421Z"
                                fill="#B01212" />
                            <path id="Vector_76"
                                d="M172.128 385.184C172.128 381.216 175.343 378 179.308 378H194.692C198.657 378 201.872 381.216 201.872 385.184V393.395C201.872 397.362 198.657 400.579 194.692 400.579H179.308C175.343 400.579 172.128 397.362 172.128 393.395V385.184Z"
                                fill="#B01212" />
                        </g>
                        <g id="siege-68">
                            <path id="Vector_77"
                                d="M447 340.421C447 336.453 450.214 333.237 454.179 333.237H479.821C483.786 333.237 487 336.453 487 340.421V355.816C487 359.784 483.786 363 479.821 363H454.179C450.214 363 447 359.784 447 355.816V340.421Z"
                                fill="#B01212" />
                            <path id="Vector_78"
                                d="M452.128 331.184C452.128 327.216 455.343 324 459.308 324H474.692C478.657 324 481.872 327.216 481.872 331.184V339.395C481.872 343.362 478.657 346.579 474.692 346.579H459.308C455.343 346.579 452.128 343.362 452.128 339.395V331.184Z"
                                fill="#B01212" />
                        </g>
                        <g id="siege-67">
                            <path id="Vector_79"
                                d="M391 340.421C391 336.453 394.214 333.237 398.179 333.237H423.821C427.786 333.237 431 336.453 431 340.421V355.816C431 359.784 427.786 363 423.821 363H398.179C394.214 363 391 359.784 391 355.816V340.421Z"
                                fill="#B01212" />
                            <path id="Vector_80"
                                d="M396.128 331.184C396.128 327.216 399.343 324 403.308 324H418.692C422.657 324 425.872 327.216 425.872 331.184V339.395C425.872 343.362 422.657 346.579 418.692 346.579H403.308C399.343 346.579 396.128 343.362 396.128 339.395V331.184Z"
                                fill="#B01212" />
                        </g>
                        <g id="siege-66">
                            <path id="Vector_81"
                                d="M335 340.421C335 336.453 338.214 333.237 342.179 333.237H367.821C371.786 333.237 375 336.453 375 340.421V355.816C375 359.784 371.786 363 367.821 363H342.179C338.214 363 335 359.784 335 355.816V340.421Z"
                                fill="#B01212" />
                            <path id="Vector_82"
                                d="M340.128 331.184C340.128 327.216 343.343 324 347.308 324H362.692C366.657 324 369.872 327.216 369.872 331.184V339.395C369.872 343.362 366.657 346.579 362.692 346.579H347.308C343.343 346.579 340.128 343.362 340.128 339.395V331.184Z"
                                fill="#B01212" />
                        </g>
                        <g id="siege-65">
                            <path id="Vector_83"
                                d="M279 340.421C279 336.453 282.214 333.237 286.179 333.237H311.821C315.786 333.237 319 336.453 319 340.421V355.816C319 359.784 315.786 363 311.821 363H286.179C282.214 363 279 359.784 279 355.816V340.421Z"
                                fill="#B01212" />
                            <path id="Vector_84"
                                d="M284.128 331.184C284.128 327.216 287.343 324 291.308 324H306.692C310.657 324 313.872 327.216 313.872 331.184V339.395C313.872 343.362 310.657 346.579 306.692 346.579H291.308C287.343 346.579 284.128 343.362 284.128 339.395V331.184Z"
                                fill="#B01212" />
                        </g>
                        <g id="siege-64">
                            <path id="Vector_85"
                                d="M223 340.421C223 336.453 226.214 333.237 230.179 333.237H255.821C259.786 333.237 263 336.453 263 340.421V355.816C263 359.784 259.786 363 255.821 363H230.179C226.214 363 223 359.784 223 355.816V340.421Z"
                                fill="#B01212" />
                            <path id="Vector_86"
                                d="M228.128 331.184C228.128 327.216 231.343 324 235.308 324H250.692C254.657 324 257.872 327.216 257.872 331.184V339.395C257.872 343.362 254.657 346.579 250.692 346.579H235.308C231.343 346.579 228.128 343.362 228.128 339.395V331.184Z"
                                fill="#B01212" />
                        </g>
                        <g id="siege-63">
                            <path id="Vector_87"
                                d="M167 340.421C167 336.453 170.214 333.237 174.179 333.237H199.821C203.786 333.237 207 336.453 207 340.421V355.816C207 359.784 203.786 363 199.821 363H174.179C170.214 363 167 359.784 167 355.816V340.421Z"
                                fill="#B01212" />
                            <path id="Vector_88"
                                d="M172.128 331.184C172.128 327.216 175.343 324 179.308 324H194.692C198.657 324 201.872 327.216 201.872 331.184V339.395C201.872 343.362 198.657 346.579 194.692 346.579H179.308C175.343 346.579 172.128 343.362 172.128 339.395V331.184Z"
                                fill="#B01212" />
                        </g>
                        <g id="siege-58">
                            <path id="Vector_89"
                                d="M447 286.421C447 282.453 450.214 279.237 454.179 279.237H479.821C483.786 279.237 487 282.453 487 286.421V301.816C487 305.784 483.786 309 479.821 309H454.179C450.214 309 447 305.784 447 301.816V286.421Z"
                                fill="#B01212" />
                            <path id="Vector_90"
                                d="M452.128 277.184C452.128 273.216 455.343 270 459.308 270H474.692C478.657 270 481.872 273.216 481.872 277.184V285.395C481.872 289.362 478.657 292.579 474.692 292.579H459.308C455.343 292.579 452.128 289.362 452.128 285.395V277.184Z"
                                fill="#B01212" />
                        </g>
                        <g id="siege-57">
                            <path id="Vector_91"
                                d="M391 286.421C391 282.453 394.214 279.237 398.179 279.237H423.821C427.786 279.237 431 282.453 431 286.421V301.816C431 305.784 427.786 309 423.821 309H398.179C394.214 309 391 305.784 391 301.816V286.421Z"
                                fill="#B01212" />
                            <path id="Vector_92"
                                d="M396.128 277.184C396.128 273.216 399.343 270 403.308 270H418.692C422.657 270 425.872 273.216 425.872 277.184V285.395C425.872 289.362 422.657 292.579 418.692 292.579H403.308C399.343 292.579 396.128 289.362 396.128 285.395V277.184Z"
                                fill="#B01212" />
                        </g>
                        <g id="siege-56">
                            <path id="Vector_93"
                                d="M335 286.421C335 282.453 338.214 279.237 342.179 279.237H367.821C371.786 279.237 375 282.453 375 286.421V301.816C375 305.784 371.786 309 367.821 309H342.179C338.214 309 335 305.784 335 301.816V286.421Z"
                                fill="#B01212" />
                            <path id="Vector_94"
                                d="M340.128 277.184C340.128 273.216 343.343 270 347.308 270H362.692C366.657 270 369.872 273.216 369.872 277.184V285.395C369.872 289.362 366.657 292.579 362.692 292.579H347.308C343.343 292.579 340.128 289.362 340.128 285.395V277.184Z"
                                fill="#B01212" />
                        </g>
                        <g id="siege-55">
                            <path id="Vector_95"
                                d="M279 286.421C279 282.453 282.214 279.237 286.179 279.237H311.821C315.786 279.237 319 282.453 319 286.421V301.816C319 305.784 315.786 309 311.821 309H286.179C282.214 309 279 305.784 279 301.816V286.421Z"
                                fill="#B01212" />
                            <path id="Vector_96"
                                d="M284.128 277.184C284.128 273.216 287.343 270 291.308 270H306.692C310.657 270 313.872 273.216 313.872 277.184V285.395C313.872 289.362 310.657 292.579 306.692 292.579H291.308C287.343 292.579 284.128 289.362 284.128 285.395V277.184Z"
                                fill="#B01212" />
                        </g>
                        <g id="siege-54">
                            <path id="Vector_97"
                                d="M223 286.421C223 282.453 226.214 279.237 230.179 279.237H255.821C259.786 279.237 263 282.453 263 286.421V301.816C263 305.784 259.786 309 255.821 309H230.179C226.214 309 223 305.784 223 301.816V286.421Z"
                                fill="#B01212" />
                            <path id="Vector_98"
                                d="M228.128 277.184C228.128 273.216 231.343 270 235.308 270H250.692C254.657 270 257.872 273.216 257.872 277.184V285.395C257.872 289.362 254.657 292.579 250.692 292.579H235.308C231.343 292.579 228.128 289.362 228.128 285.395V277.184Z"
                                fill="#B01212" />
                        </g>
                        <g id="siege-53">
                            <path id="Vector_99"
                                d="M167 286.421C167 282.453 170.214 279.237 174.179 279.237H199.821C203.786 279.237 207 282.453 207 286.421V301.816C207 305.784 203.786 309 199.821 309H174.179C170.214 309 167 305.784 167 301.816V286.421Z"
                                fill="#B01212" />
                            <path id="Vector_100"
                                d="M172.128 277.184C172.128 273.216 175.343 270 179.308 270H194.692C198.657 270 201.872 273.216 201.872 277.184V285.395C201.872 289.362 198.657 292.579 194.692 292.579H179.308C175.343 292.579 172.128 289.362 172.128 285.395V277.184Z"
                                fill="#B01212" />
                        </g>
                        <g id="siege-48">
                            <path id="Vector_101"
                                d="M447 232.421C447 228.453 450.214 225.237 454.179 225.237H479.821C483.786 225.237 487 228.453 487 232.421V247.816C487 251.784 483.786 255 479.821 255H454.179C450.214 255 447 251.784 447 247.816V232.421Z"
                                fill="#B01212" />
                            <path id="Vector_102"
                                d="M452.128 223.184C452.128 219.216 455.343 216 459.308 216H474.692C478.657 216 481.872 219.216 481.872 223.184V231.395C481.872 235.362 478.657 238.579 474.692 238.579H459.308C455.343 238.579 452.128 235.362 452.128 231.395V223.184Z"
                                fill="#B01212" />
                        </g>
                        <g id="siege-47">
                            <path id="Vector_103"
                                d="M391 232.421C391 228.453 394.214 225.237 398.179 225.237H423.821C427.786 225.237 431 228.453 431 232.421V247.816C431 251.784 427.786 255 423.821 255H398.179C394.214 255 391 251.784 391 247.816V232.421Z"
                                fill="#B01212" />
                            <path id="Vector_104"
                                d="M396.128 223.184C396.128 219.216 399.343 216 403.308 216H418.692C422.657 216 425.872 219.216 425.872 223.184V231.395C425.872 235.362 422.657 238.579 418.692 238.579H403.308C399.343 238.579 396.128 235.362 396.128 231.395V223.184Z"
                                fill="#B01212" />
                        </g>
                        <g id="siege-46">
                            <path id="Vector_105"
                                d="M335 232.421C335 228.453 338.214 225.237 342.179 225.237H367.821C371.786 225.237 375 228.453 375 232.421V247.816C375 251.784 371.786 255 367.821 255H342.179C338.214 255 335 251.784 335 247.816V232.421Z"
                                fill="#B01212" />
                            <path id="Vector_106"
                                d="M340.128 223.184C340.128 219.216 343.343 216 347.308 216H362.692C366.657 216 369.872 219.216 369.872 223.184V231.395C369.872 235.362 366.657 238.579 362.692 238.579H347.308C343.343 238.579 340.128 235.362 340.128 231.395V223.184Z"
                                fill="#B01212" />
                        </g>
                        <g id="siege-45">
                            <path id="Vector_107"
                                d="M279 232.421C279 228.453 282.214 225.237 286.179 225.237H311.821C315.786 225.237 319 228.453 319 232.421V247.816C319 251.784 315.786 255 311.821 255H286.179C282.214 255 279 251.784 279 247.816V232.421Z"
                                fill="#B01212" />
                            <path id="Vector_108"
                                d="M284.128 223.184C284.128 219.216 287.343 216 291.308 216H306.692C310.657 216 313.872 219.216 313.872 223.184V231.395C313.872 235.362 310.657 238.579 306.692 238.579H291.308C287.343 238.579 284.128 235.362 284.128 231.395V223.184Z"
                                fill="#B01212" />
                        </g>
                        <g id="siege-44">
                            <path id="Vector_109"
                                d="M223 232.421C223 228.453 226.214 225.237 230.179 225.237H255.821C259.786 225.237 263 228.453 263 232.421V247.816C263 251.784 259.786 255 255.821 255H230.179C226.214 255 223 251.784 223 247.816V232.421Z"
                                fill="#B01212" />
                            <path id="Vector_110"
                                d="M228.128 223.184C228.128 219.216 231.343 216 235.308 216H250.692C254.657 216 257.872 219.216 257.872 223.184V231.395C257.872 235.362 254.657 238.579 250.692 238.579H235.308C231.343 238.579 228.128 235.362 228.128 231.395V223.184Z"
                                fill="#B01212" />
                        </g>
                        <g id="siege-43">
                            <path id="Vector_111"
                                d="M167 232.421C167 228.453 170.214 225.237 174.179 225.237H199.821C203.786 225.237 207 228.453 207 232.421V247.816C207 251.784 203.786 255 199.821 255H174.179C170.214 255 167 251.784 167 247.816V232.421Z"
                                fill="#B01212" />
                            <path id="Vector_112"
                                d="M172.128 223.184C172.128 219.216 175.343 216 179.308 216H194.692C198.657 216 201.872 219.216 201.872 223.184V231.395C201.872 235.362 198.657 238.579 194.692 238.579H179.308C175.343 238.579 172.128 235.362 172.128 231.395V223.184Z"
                                fill="#B01212" />
                        </g>
                        <g id="siege-38">
                            <path id="Vector_113"
                                d="M447 178.421C447 174.453 450.214 171.237 454.179 171.237H479.821C483.786 171.237 487 174.453 487 178.421V193.816C487 197.784 483.786 201 479.821 201H454.179C450.214 201 447 197.784 447 193.816V178.421Z"
                                fill="#B01212" />
                            <path id="Vector_114"
                                d="M452.128 169.184C452.128 165.216 455.343 162 459.308 162H474.692C478.657 162 481.872 165.216 481.872 169.184V177.395C481.872 181.362 478.657 184.579 474.692 184.579H459.308C455.343 184.579 452.128 181.362 452.128 177.395V169.184Z"
                                fill="#B01212" />
                        </g>
                        <g id="siege-37">
                            <path id="Vector_115"
                                d="M391 178.421C391 174.453 394.214 171.237 398.179 171.237H423.821C427.786 171.237 431 174.453 431 178.421V193.816C431 197.784 427.786 201 423.821 201H398.179C394.214 201 391 197.784 391 193.816V178.421Z"
                                fill="#B01212" />
                            <path id="Vector_116"
                                d="M396.128 169.184C396.128 165.216 399.343 162 403.308 162H418.692C422.657 162 425.872 165.216 425.872 169.184V177.395C425.872 181.362 422.657 184.579 418.692 184.579H403.308C399.343 184.579 396.128 181.362 396.128 177.395V169.184Z"
                                fill="#B01212" />
                        </g>
                        <g id="siege-36">
                            <path id="Vector_117"
                                d="M335 178.421C335 174.453 338.214 171.237 342.179 171.237H367.821C371.786 171.237 375 174.453 375 178.421V193.816C375 197.784 371.786 201 367.821 201H342.179C338.214 201 335 197.784 335 193.816V178.421Z"
                                fill="#B01212" />
                            <path id="Vector_118"
                                d="M340.128 169.184C340.128 165.216 343.343 162 347.308 162H362.692C366.657 162 369.872 165.216 369.872 169.184V177.395C369.872 181.362 366.657 184.579 362.692 184.579H347.308C343.343 184.579 340.128 181.362 340.128 177.395V169.184Z"
                                fill="#B01212" />
                        </g>
                        <g id="siege-35">
                            <path id="Vector_119"
                                d="M279 178.421C279 174.453 282.214 171.237 286.179 171.237H311.821C315.786 171.237 319 174.453 319 178.421V193.816C319 197.784 315.786 201 311.821 201H286.179C282.214 201 279 197.784 279 193.816V178.421Z"
                                fill="#B01212" />
                            <path id="Vector_120"
                                d="M284.128 169.184C284.128 165.216 287.343 162 291.308 162H306.692C310.657 162 313.872 165.216 313.872 169.184V177.395C313.872 181.362 310.657 184.579 306.692 184.579H291.308C287.343 184.579 284.128 181.362 284.128 177.395V169.184Z"
                                fill="#B01212" />
                        </g>
                        <g id="siege-34">
                            <path id="Vector_121"
                                d="M223 178.421C223 174.453 226.214 171.237 230.179 171.237H255.821C259.786 171.237 263 174.453 263 178.421V193.816C263 197.784 259.786 201 255.821 201H230.179C226.214 201 223 197.784 223 193.816V178.421Z"
                                fill="#B01212" />
                            <path id="Vector_122"
                                d="M228.128 169.184C228.128 165.216 231.343 162 235.308 162H250.692C254.657 162 257.872 165.216 257.872 169.184V177.395C257.872 181.362 254.657 184.579 250.692 184.579H235.308C231.343 184.579 228.128 181.362 228.128 177.395V169.184Z"
                                fill="#B01212" />
                        </g>
                        <g id="siege-33">
                            <path id="Vector_123"
                                d="M167 178.421C167 174.453 170.214 171.237 174.179 171.237H199.821C203.786 171.237 207 174.453 207 178.421V193.816C207 197.784 203.786 201 199.821 201H174.179C170.214 201 167 197.784 167 193.816V178.421Z"
                                fill="#B01212" />
                            <path id="Vector_124"
                                d="M172.128 169.184C172.128 165.216 175.343 162 179.308 162H194.692C198.657 162 201.872 165.216 201.872 169.184V177.395C201.872 181.362 198.657 184.579 194.692 184.579H179.308C175.343 184.579 172.128 181.362 172.128 177.395V169.184Z"
                                fill="#B01212" />
                        </g>
                        <g id="siege-28">
                            <path id="Vector_125"
                                d="M447 124.421C447 120.453 450.214 117.237 454.179 117.237H479.821C483.786 117.237 487 120.453 487 124.421V139.816C487 143.784 483.786 147 479.821 147H454.179C450.214 147 447 143.784 447 139.816V124.421Z"
                                fill="#B01212" />
                            <path id="Vector_126"
                                d="M452.128 115.184C452.128 111.216 455.343 108 459.308 108H474.692C478.657 108 481.872 111.216 481.872 115.184V123.395C481.872 127.362 478.657 130.579 474.692 130.579H459.308C455.343 130.579 452.128 127.362 452.128 123.395V115.184Z"
                                fill="#B01212" />
                        </g>
                        <g id="siege-27">
                            <path id="Vector_127"
                                d="M391 124.421C391 120.453 394.214 117.237 398.179 117.237H423.821C427.786 117.237 431 120.453 431 124.421V139.816C431 143.784 427.786 147 423.821 147H398.179C394.214 147 391 143.784 391 139.816V124.421Z"
                                fill="#B01212" />
                            <path id="Vector_128"
                                d="M396.128 115.184C396.128 111.216 399.343 108 403.308 108H418.692C422.657 108 425.872 111.216 425.872 115.184V123.395C425.872 127.362 422.657 130.579 418.692 130.579H403.308C399.343 130.579 396.128 127.362 396.128 123.395V115.184Z"
                                fill="#B01212" />
                        </g>
                        <g id="siege-26">
                            <path id="Vector_129"
                                d="M335 124.421C335 120.453 338.214 117.237 342.179 117.237H367.821C371.786 117.237 375 120.453 375 124.421V139.816C375 143.784 371.786 147 367.821 147H342.179C338.214 147 335 143.784 335 139.816V124.421Z"
                                fill="#B01212" />
                            <path id="Vector_130"
                                d="M340.128 115.184C340.128 111.216 343.343 108 347.308 108H362.692C366.657 108 369.872 111.216 369.872 115.184V123.395C369.872 127.362 366.657 130.579 362.692 130.579H347.308C343.343 130.579 340.128 127.362 340.128 123.395V115.184Z"
                                fill="#B01212" />
                        </g>
                        <g id="siege-25">
                            <path id="Vector_131"
                                d="M279 124.421C279 120.453 282.214 117.237 286.179 117.237H311.821C315.786 117.237 319 120.453 319 124.421V139.816C319 143.784 315.786 147 311.821 147H286.179C282.214 147 279 143.784 279 139.816V124.421Z"
                                fill="#B01212" />
                            <path id="Vector_132"
                                d="M284.128 115.184C284.128 111.216 287.343 108 291.308 108H306.692C310.657 108 313.872 111.216 313.872 115.184V123.395C313.872 127.362 310.657 130.579 306.692 130.579H291.308C287.343 130.579 284.128 127.362 284.128 123.395V115.184Z"
                                fill="#B01212" />
                        </g>
                        <g id="siege-24">
                            <path id="Vector_133"
                                d="M223 124.421C223 120.453 226.214 117.237 230.179 117.237H255.821C259.786 117.237 263 120.453 263 124.421V139.816C263 143.784 259.786 147 255.821 147H230.179C226.214 147 223 143.784 223 139.816V124.421Z"
                                fill="#B01212" />
                            <path id="Vector_134"
                                d="M228.128 115.184C228.128 111.216 231.343 108 235.308 108H250.692C254.657 108 257.872 111.216 257.872 115.184V123.395C257.872 127.362 254.657 130.579 250.692 130.579H235.308C231.343 130.579 228.128 127.362 228.128 123.395V115.184Z"
                                fill="#B01212" />
                        </g>
                        <g id="siege-23">
                            <path id="Vector_135"
                                d="M167 124.421C167 120.453 170.214 117.237 174.179 117.237H199.821C203.786 117.237 207 120.453 207 124.421V139.816C207 143.784 203.786 147 199.821 147H174.179C170.214 147 167 143.784 167 139.816V124.421Z"
                                fill="#B01212" />
                            <path id="Vector_136"
                                d="M172.128 115.184C172.128 111.216 175.343 108 179.308 108H194.692C198.657 108 201.872 111.216 201.872 115.184V123.395C201.872 127.362 198.657 130.579 194.692 130.579H179.308C175.343 130.579 172.128 127.362 172.128 123.395V115.184Z"
                                fill="#B01212" />
                        </g>
                        <g id="siege-18">
                            <path id="Vector_137"
                                d="M446 70.4206C446 66.4528 449.214 63.2363 453.179 63.2363H478.821C482.786 63.2363 486 66.4528 486 70.4206V85.8153C486 89.783 482.786 92.9995 478.821 92.9995H453.179C449.214 92.9995 446 89.783 446 85.8153V70.4206Z"
                                fill="#B01212" />
                            <path id="Vector_138"
                                d="M451.128 61.1842C451.128 57.2165 454.343 54 458.308 54H473.692C477.657 54 480.872 57.2165 480.872 61.1842V69.3947C480.872 73.3625 477.657 76.5789 473.692 76.5789H458.308C454.343 76.5789 451.128 73.3625 451.128 69.3947V61.1842Z"
                                fill="#B01212" />
                        </g>
                        <g id="siege-17">
                            <path id="Vector_139"
                                d="M390 70.4206C390 66.4528 393.214 63.2363 397.179 63.2363H422.821C426.786 63.2363 430 66.4528 430 70.4206V85.8153C430 89.783 426.786 92.9995 422.821 92.9995H397.179C393.214 92.9995 390 89.783 390 85.8153V70.4206Z"
                                fill="#B01212" />
                            <path id="Vector_140"
                                d="M395.128 61.1842C395.128 57.2165 398.343 54 402.308 54H417.692C421.657 54 424.872 57.2165 424.872 61.1842V69.3947C424.872 73.3625 421.657 76.5789 417.692 76.5789H402.308C398.343 76.5789 395.128 73.3625 395.128 69.3947V61.1842Z"
                                fill="#B01212" />
                        </g>
                        <g id="siege-16">
                            <path id="Vector_141"
                                d="M334 70.4206C334 66.4528 337.214 63.2363 341.179 63.2363H366.821C370.786 63.2363 374 66.4528 374 70.4206V85.8153C374 89.783 370.786 92.9995 366.821 92.9995H341.179C337.214 92.9995 334 89.783 334 85.8153V70.4206Z"
                                fill="#B01212" />
                            <path id="Vector_142"
                                d="M339.128 61.1842C339.128 57.2165 342.343 54 346.308 54H361.692C365.657 54 368.872 57.2165 368.872 61.1842V69.3947C368.872 73.3625 365.657 76.5789 361.692 76.5789H346.308C342.343 76.5789 339.128 73.3625 339.128 69.3947V61.1842Z"
                                fill="#B01212" />
                        </g>
                        <g id="siege-15">
                            <path id="Vector_143"
                                d="M278 70.4206C278 66.4528 281.214 63.2363 285.179 63.2363H310.821C314.786 63.2363 318 66.4528 318 70.4206V85.8153C318 89.783 314.786 92.9995 310.821 92.9995H285.179C281.214 92.9995 278 89.783 278 85.8153V70.4206Z"
                                fill="#B01212" />
                            <path id="Vector_144"
                                d="M283.128 61.1842C283.128 57.2165 286.343 54 290.308 54H305.692C309.657 54 312.872 57.2165 312.872 61.1842V69.3947C312.872 73.3625 309.657 76.5789 305.692 76.5789H290.308C286.343 76.5789 283.128 73.3625 283.128 69.3947V61.1842Z"
                                fill="#B01212" />
                        </g>
                        <g id="siege-14">
                            <path id="Vector_145"
                                d="M222 70.4206C222 66.4528 225.214 63.2363 229.179 63.2363H254.821C258.786 63.2363 262 66.4528 262 70.4206V85.8153C262 89.783 258.786 92.9995 254.821 92.9995H229.179C225.214 92.9995 222 89.783 222 85.8153V70.4206Z"
                                fill="#B01212" />
                            <path id="Vector_146"
                                d="M227.128 61.1842C227.128 57.2165 230.343 54 234.308 54H249.692C253.657 54 256.872 57.2165 256.872 61.1842V69.3947C256.872 73.3625 253.657 76.5789 249.692 76.5789H234.308C230.343 76.5789 227.128 73.3625 227.128 69.3947V61.1842Z"
                                fill="#B01212" />
                        </g>
                        <g id="siege-13">
                            <path id="Vector_147"
                                d="M165 70.4206C165 66.4528 168.214 63.2363 172.179 63.2363H197.821C201.786 63.2363 205 66.4528 205 70.4206V85.8153C205 89.783 201.786 92.9995 197.821 92.9995H172.179C168.214 92.9995 165 89.783 165 85.8153V70.4206Z"
                                fill="#B01212" />
                            <path id="Vector_148"
                                d="M170.128 61.1842C170.128 57.2165 173.343 54 177.308 54H192.692C196.657 54 199.872 57.2165 199.872 61.1842V69.3947C199.872 73.3625 196.657 76.5789 192.692 76.5789H177.308C173.343 76.5789 170.128 73.3625 170.128 69.3947V61.1842Z"
                                fill="#B01212" />
                        </g>
                        <g id="siege-8">
                            <path id="Vector_149"
                                d="M446 16.4216C446 12.4538 449.214 9.2373 453.179 9.2373H478.821C482.786 9.2373 486 12.4538 486 16.4216V31.8163C486 35.784 482.786 39.0005 478.821 39.0005H453.179C449.214 39.0005 446 35.784 446 31.8163V16.4216Z"
                                fill="#B01212" />
                            <path id="Vector_150"
                                d="M451.128 7.18421C451.128 3.21648 454.343 0 458.308 0H473.692C477.657 0 480.872 3.21648 480.872 7.18421V15.3947C480.872 19.3625 477.657 22.5789 473.692 22.5789H458.308C454.343 22.5789 451.128 19.3625 451.128 15.3947V7.18421Z"
                                fill="#B01212" />
                        </g>
                        <g id="siege-7">
                            <path id="Vector_151"
                                d="M390 16.4216C390 12.4538 393.214 9.2373 397.179 9.2373H422.821C426.786 9.2373 430 12.4538 430 16.4216V31.8163C430 35.784 426.786 39.0005 422.821 39.0005H397.179C393.214 39.0005 390 35.784 390 31.8163V16.4216Z"
                                fill="#B01212" />
                            <path id="Vector_152"
                                d="M395.128 7.18421C395.128 3.21648 398.343 0 402.308 0H417.692C421.657 0 424.872 3.21648 424.872 7.18421V15.3947C424.872 19.3625 421.657 22.5789 417.692 22.5789H402.308C398.343 22.5789 395.128 19.3625 395.128 15.3947V7.18421Z"
                                fill="#B01212" />
                        </g>
                        <g id="siege-6">
                            <path id="Vector_153"
                                d="M334 16.4216C334 12.4538 337.214 9.2373 341.179 9.2373H366.821C370.786 9.2373 374 12.4538 374 16.4216V31.8163C374 35.784 370.786 39.0005 366.821 39.0005H341.179C337.214 39.0005 334 35.784 334 31.8163V16.4216Z"
                                fill="#B01212" />
                            <path id="Vector_154"
                                d="M339.128 7.18421C339.128 3.21648 342.343 0 346.308 0H361.692C365.657 0 368.872 3.21648 368.872 7.18421V15.3947C368.872 19.3625 365.657 22.5789 361.692 22.5789H346.308C342.343 22.5789 339.128 19.3625 339.128 15.3947V7.18421Z"
                                fill="#B01212" />
                        </g>
                        <g id="siege-5">
                            <path id="Vector_155"
                                d="M278 16.4216C278 12.4538 281.214 9.2373 285.179 9.2373H310.821C314.786 9.2373 318 12.4538 318 16.4216V31.8163C318 35.784 314.786 39.0005 310.821 39.0005H285.179C281.214 39.0005 278 35.784 278 31.8163V16.4216Z"
                                fill="#B01212" />
                            <path id="Vector_156"
                                d="M283.128 7.18421C283.128 3.21648 286.343 0 290.308 0H305.692C309.657 0 312.872 3.21648 312.872 7.18421V15.3947C312.872 19.3625 309.657 22.5789 305.692 22.5789H290.308C286.343 22.5789 283.128 19.3625 283.128 15.3947V7.18421Z"
                                fill="#B01212" />
                        </g>
                        <g id="siege-4">
                            <path id="Vector_157"
                                d="M222 16.4216C222 12.4538 225.214 9.2373 229.179 9.2373H254.821C258.786 9.2373 262 12.4538 262 16.4216V31.8163C262 35.784 258.786 39.0005 254.821 39.0005H229.179C225.214 39.0005 222 35.784 222 31.8163V16.4216Z"
                                fill="#B01212" />
                            <path id="Vector_158"
                                d="M227.128 7.18421C227.128 3.21648 230.343 0 234.308 0H249.692C253.657 0 256.872 3.21648 256.872 7.18421V15.3947C256.872 19.3625 253.657 22.5789 249.692 22.5789H234.308C230.343 22.5789 227.128 19.3625 227.128 15.3947V7.18421Z"
                                fill="#B01212" />
                        </g>
                        <g id="siege-3">
                            <path id="Vector_159"
                                d="M165 16.4216C165 12.4538 168.214 9.2373 172.179 9.2373H197.821C201.786 9.2373 205 12.4538 205 16.4216V31.8163C205 35.784 201.786 39.0005 197.821 39.0005H172.179C168.214 39.0005 165 35.784 165 31.8163V16.4216Z"
                                fill="#B01212" />
                            <path id="Vector_160"
                                d="M170.128 7.18421C170.128 3.21648 173.343 0 177.308 0H192.692C196.657 0 199.872 3.21648 199.872 7.18421V15.3947C199.872 19.3625 196.657 22.5789 192.692 22.5789H177.308C173.343 22.5789 170.128 19.3625 170.128 15.3947V7.18421Z"
                                fill="#B01212" />
                        </g>
                        <g id="siege-92">
                            <path id="Vector_161"
                                d="M57 502.421C57 498.453 60.2144 495.237 64.1795 495.237H89.8205C93.7856 495.237 97 498.453 97 502.421V517.816C97 521.784 93.7856 525 89.8205 525H64.1795C60.2144 525 57 521.784 57 517.816V502.421Z"
                                fill="#B01212" />
                            <path id="Vector_162"
                                d="M62.1284 493.184C62.1284 489.216 65.3428 486 69.3079 486H84.6925C88.6576 486 91.872 489.216 91.872 493.184V501.395C91.872 505.362 88.6576 508.579 84.6925 508.579H69.3079C65.3428 508.579 62.1284 505.362 62.1284 501.395V493.184Z"
                                fill="#B01212" />
                        </g>
                        <g id="siege-91">
                            <path id="Vector_163"
                                d="M1 502.421C1 498.453 4.21437 495.237 8.17949 495.237H33.8205C37.7856 495.237 41 498.453 41 502.421V517.816C41 521.784 37.7856 525 33.8205 525H8.17949C4.21437 525 1 521.784 1 517.816V502.421Z"
                                fill="#B01212" />
                            <path id="Vector_164"
                                d="M6.12842 493.184C6.12842 489.216 9.34278 486 13.3079 486H28.6925C32.6576 486 35.872 489.216 35.872 493.184V501.395C35.872 505.362 32.6576 508.579 28.6925 508.579H13.3079C9.34278 508.579 6.12842 505.362 6.12842 501.395V493.184Z"
                                fill="#B01212" />
                        </g>
                        <g id="siege-82">
                            <path id="Vector_165"
                                d="M57 448.421C57 444.453 60.2144 441.237 64.1795 441.237H89.8205C93.7856 441.237 97 444.453 97 448.421V463.816C97 467.784 93.7856 471 89.8205 471H64.1795C60.2144 471 57 467.784 57 463.816V448.421Z"
                                fill="#B01212" />
                            <path id="Vector_166"
                                d="M62.1284 439.184C62.1284 435.216 65.3428 432 69.3079 432H84.6925C88.6576 432 91.872 435.216 91.872 439.184V447.395C91.872 451.362 88.6576 454.579 84.6925 454.579H69.3079C65.3428 454.579 62.1284 451.362 62.1284 447.395V439.184Z"
                                fill="#B01212" />
                        </g>
                        <g id="siege-81">
                            <path id="Vector_167"
                                d="M1 448.421C1 444.453 4.21437 441.237 8.17949 441.237H33.8205C37.7856 441.237 41 444.453 41 448.421V463.816C41 467.784 37.7856 471 33.8205 471H8.17949C4.21437 471 1 467.784 1 463.816V448.421Z"
                                fill="#B01212" />
                            <path id="Vector_168"
                                d="M6.12842 439.184C6.12842 435.216 9.34278 432 13.3079 432H28.6925C32.6576 432 35.872 435.216 35.872 439.184V447.395C35.872 451.362 32.6576 454.579 28.6925 454.579H13.3079C9.34278 454.579 6.12842 451.362 6.12842 447.395V439.184Z"
                                fill="#B01212" />
                        </g>
                        <g id="siege-72">
                            <path id="Vector_169"
                                d="M57 394.421C57 390.453 60.2144 387.237 64.1795 387.237H89.8205C93.7856 387.237 97 390.453 97 394.421V409.816C97 413.784 93.7856 417 89.8205 417H64.1795C60.2144 417 57 413.784 57 409.816V394.421Z"
                                fill="#B01212" />
                            <path id="Vector_170"
                                d="M62.1284 385.184C62.1284 381.216 65.3428 378 69.3079 378H84.6925C88.6576 378 91.872 381.216 91.872 385.184V393.395C91.872 397.362 88.6576 400.579 84.6925 400.579H69.3079C65.3428 400.579 62.1284 397.362 62.1284 393.395V385.184Z"
                                fill="#B01212" />
                        </g>
                        <g id="siege-71">
                            <path id="Vector_171"
                                d="M1 394.421C1 390.453 4.21437 387.237 8.17949 387.237H33.8205C37.7856 387.237 41 390.453 41 394.421V409.816C41 413.784 37.7856 417 33.8205 417H8.17949C4.21437 417 1 413.784 1 409.816V394.421Z"
                                fill="#B01212" />
                            <path id="Vector_172"
                                d="M6.12842 385.184C6.12842 381.216 9.34278 378 13.3079 378H28.6925C32.6576 378 35.872 381.216 35.872 385.184V393.395C35.872 397.362 32.6576 400.579 28.6925 400.579H13.3079C9.34278 400.579 6.12842 397.362 6.12842 393.395V385.184Z"
                                fill="#B01212" />
                        </g>
                        <g id="siege-62">
                            <path id="Vector_173"
                                d="M57 340.421C57 336.453 60.2144 333.237 64.1795 333.237H89.8205C93.7856 333.237 97 336.453 97 340.421V355.816C97 359.784 93.7856 363 89.8205 363H64.1795C60.2144 363 57 359.784 57 355.816V340.421Z"
                                fill="#B01212" />
                            <path id="Vector_174"
                                d="M62.1284 331.184C62.1284 327.216 65.3428 324 69.3079 324H84.6925C88.6576 324 91.872 327.216 91.872 331.184V339.395C91.872 343.362 88.6576 346.579 84.6925 346.579H69.3079C65.3428 346.579 62.1284 343.362 62.1284 339.395V331.184Z"
                                fill="#B01212" />
                        </g>
                        <g id="siege-61">
                            <path id="Vector_175"
                                d="M1 340.421C1 336.453 4.21437 333.237 8.17949 333.237H33.8205C37.7856 333.237 41 336.453 41 340.421V355.816C41 359.784 37.7856 363 33.8205 363H8.17949C4.21437 363 1 359.784 1 355.816V340.421Z"
                                fill="#B01212" />
                            <path id="Vector_176"
                                d="M6.12842 331.184C6.12842 327.216 9.34278 324 13.3079 324H28.6925C32.6576 324 35.872 327.216 35.872 331.184V339.395C35.872 343.362 32.6576 346.579 28.6925 346.579H13.3079C9.34278 346.579 6.12842 343.362 6.12842 339.395V331.184Z"
                                fill="#B01212" />
                        </g>
                        <g id="siege-52">
                            <path id="Vector_177"
                                d="M57 286.421C57 282.453 60.2144 279.237 64.1795 279.237H89.8205C93.7856 279.237 97 282.453 97 286.421V301.816C97 305.784 93.7856 309 89.8205 309H64.1795C60.2144 309 57 305.784 57 301.816V286.421Z"
                                fill="#B01212" />
                            <path id="Vector_178"
                                d="M62.1284 277.184C62.1284 273.216 65.3428 270 69.3079 270H84.6925C88.6576 270 91.872 273.216 91.872 277.184V285.395C91.872 289.362 88.6576 292.579 84.6925 292.579H69.3079C65.3428 292.579 62.1284 289.362 62.1284 285.395V277.184Z"
                                fill="#B01212" />
                        </g>
                        <g id="siege-51">
                            <path id="Vector_179"
                                d="M1 286.421C1 282.453 4.21437 279.237 8.17949 279.237H33.8205C37.7856 279.237 41 282.453 41 286.421V301.816C41 305.784 37.7856 309 33.8205 309H8.17949C4.21437 309 1 305.784 1 301.816V286.421Z"
                                fill="#B01212" />
                            <path id="Vector_180"
                                d="M6.12842 277.184C6.12842 273.216 9.34278 270 13.3079 270H28.6925C32.6576 270 35.872 273.216 35.872 277.184V285.395C35.872 289.362 32.6576 292.579 28.6925 292.579H13.3079C9.34278 292.579 6.12842 289.362 6.12842 285.395V277.184Z"
                                fill="#B01212" />
                        </g>
                        <g id="siege-42">
                            <path id="Vector_181"
                                d="M57 232.421C57 228.453 60.2144 225.237 64.1795 225.237H89.8205C93.7856 225.237 97 228.453 97 232.421V247.816C97 251.784 93.7856 255 89.8205 255H64.1795C60.2144 255 57 251.784 57 247.816V232.421Z"
                                fill="#B01212" />
                            <path id="Vector_182"
                                d="M62.1284 223.184C62.1284 219.216 65.3428 216 69.3079 216H84.6925C88.6576 216 91.872 219.216 91.872 223.184V231.395C91.872 235.362 88.6576 238.579 84.6925 238.579H69.3079C65.3428 238.579 62.1284 235.362 62.1284 231.395V223.184Z"
                                fill="#B01212" />
                        </g>
                        <g id="siege-41">
                            <path id="Vector_183"
                                d="M1 232.421C1 228.453 4.21437 225.237 8.17949 225.237H33.8205C37.7856 225.237 41 228.453 41 232.421V247.816C41 251.784 37.7856 255 33.8205 255H8.17949C4.21437 255 1 251.784 1 247.816V232.421Z"
                                fill="#B01212" />
                            <path id="Vector_184"
                                d="M6.12842 223.184C6.12842 219.216 9.34278 216 13.3079 216H28.6925C32.6576 216 35.872 219.216 35.872 223.184V231.395C35.872 235.362 32.6576 238.579 28.6925 238.579H13.3079C9.34278 238.579 6.12842 235.362 6.12842 231.395V223.184Z"
                                fill="#B01212" />
                        </g>
                        <g id="siege-32">
                            <path id="Vector_185"
                                d="M57 178.421C57 174.453 60.2144 171.237 64.1795 171.237H89.8205C93.7856 171.237 97 174.453 97 178.421V193.816C97 197.784 93.7856 201 89.8205 201H64.1795C60.2144 201 57 197.784 57 193.816V178.421Z"
                                fill="#B01212" />
                            <path id="Vector_186"
                                d="M62.1284 169.184C62.1284 165.216 65.3428 162 69.3079 162H84.6925C88.6576 162 91.872 165.216 91.872 169.184V177.395C91.872 181.362 88.6576 184.579 84.6925 184.579H69.3079C65.3428 184.579 62.1284 181.362 62.1284 177.395V169.184Z"
                                fill="#B01212" />
                        </g>
                        <g id="siege-31">
                            <path id="Vector_187"
                                d="M1 178.421C1 174.453 4.21437 171.237 8.17949 171.237H33.8205C37.7856 171.237 41 174.453 41 178.421V193.816C41 197.784 37.7856 201 33.8205 201H8.17949C4.21437 201 1 197.784 1 193.816V178.421Z"
                                fill="#B01212" />
                            <path id="Vector_188"
                                d="M6.12842 169.184C6.12842 165.216 9.34278 162 13.3079 162H28.6925C32.6576 162 35.872 165.216 35.872 169.184V177.395C35.872 181.362 32.6576 184.579 28.6925 184.579H13.3079C9.34278 184.579 6.12842 181.362 6.12842 177.395V169.184Z"
                                fill="#B01212" />
                        </g>
                        <g id="siege-22">
                            <path id="Vector_189"
                                d="M57 124.421C57 120.453 60.2144 117.237 64.1795 117.237H89.8205C93.7856 117.237 97 120.453 97 124.421V139.816C97 143.784 93.7856 147 89.8205 147H64.1795C60.2144 147 57 143.784 57 139.816V124.421Z"
                                fill="#B01212" />
                            <path id="Vector_190"
                                d="M62.1284 115.184C62.1284 111.216 65.3428 108 69.3079 108H84.6925C88.6576 108 91.872 111.216 91.872 115.184V123.395C91.872 127.362 88.6576 130.579 84.6925 130.579H69.3079C65.3428 130.579 62.1284 127.362 62.1284 123.395V115.184Z"
                                fill="#B01212" />
                        </g>
                        <g id="siege-21">
                            <path id="Vector_191"
                                d="M1 124.421C1 120.453 4.21437 117.237 8.17949 117.237H33.8205C37.7856 117.237 41 120.453 41 124.421V139.816C41 143.784 37.7856 147 33.8205 147H8.17949C4.21437 147 1 143.784 1 139.816V124.421Z"
                                fill="#B01212" />
                            <path id="Vector_192"
                                d="M6.12842 115.184C6.12842 111.216 9.34278 108 13.3079 108H28.6925C32.6576 108 35.872 111.216 35.872 115.184V123.395C35.872 127.362 32.6576 130.579 28.6925 130.579H13.3079C9.34278 130.579 6.12842 127.362 6.12842 123.395V115.184Z"
                                fill="#B01212" />
                        </g>
                        <g id="siege-12">
                            <path id="Vector_193"
                                d="M56 70.4206C56 66.4528 59.2144 63.2363 63.1795 63.2363H88.8205C92.7856 63.2363 96 66.4528 96 70.4206V85.8153C96 89.783 92.7856 92.9995 88.8205 92.9995H63.1795C59.2144 92.9995 56 89.783 56 85.8153V70.4206Z"
                                fill="#B01212" />
                            <path id="Vector_194"
                                d="M61.1284 61.1842C61.1284 57.2165 64.3428 54 68.3079 54H83.6925C87.6576 54 90.872 57.2165 90.872 61.1842V69.3947C90.872 73.3625 87.6576 76.5789 83.6925 76.5789H68.3079C64.3428 76.5789 61.1284 73.3625 61.1284 69.3947V61.1842Z"
                                fill="#B01212" />
                        </g>
                        <g id="siege-11">
                            <path id="Vector_195"
                                d="M0 70.4206C0 66.4528 3.21437 63.2363 7.17949 63.2363H32.8205C36.7856 63.2363 40 66.4528 40 70.4206V85.8153C40 89.783 36.7856 92.9995 32.8205 92.9995H7.17949C3.21437 92.9995 0 89.783 0 85.8153V70.4206Z"
                                fill="#B01212" />
                            <path id="Vector_196"
                                d="M5.12842 61.1842C5.12842 57.2165 8.34278 54 12.3079 54H27.6925C31.6576 54 34.872 57.2165 34.872 61.1842V69.3947C34.872 73.3625 31.6576 76.5789 27.6925 76.5789H12.3079C8.34278 76.5789 5.12842 73.3625 5.12842 69.3947V61.1842Z"
                                fill="#B01212" />
                        </g>
                        <g id="siege-2">
                            <path id="Vector_197"
                                d="M56 16.4216C56 12.4538 59.2144 9.2373 63.1795 9.2373H88.8205C92.7856 9.2373 96 12.4538 96 16.4216V31.8163C96 35.784 92.7856 39.0005 88.8205 39.0005H63.1795C59.2144 39.0005 56 35.784 56 31.8163V16.4216Z"
                                fill="#B01212" />
                            <path id="Vector_198"
                                d="M61.1284 7.18421C61.1284 3.21648 64.3428 0 68.3079 0H83.6925C87.6576 0 90.872 3.21648 90.872 7.18421V15.3947C90.872 19.3625 87.6576 22.5789 83.6925 22.5789H68.3079C64.3428 22.5789 61.1284 19.3625 61.1284 15.3947V7.18421Z"
                                fill="#B01212" />
                        </g>
                        <g id="siege-1">
                            <path id="Vector_199"
                                d="M0 16.4216C0 12.4538 3.21437 9.2373 7.17949 9.2373H32.8205C36.7856 9.2373 40 12.4538 40 16.4216V31.8163C40 35.784 36.7856 39.0005 32.8205 39.0005H7.17949C3.21437 39.0005 0 35.784 0 31.8163V16.4216Z"
                                fill="#B01212" />
                            <path id="Vector_200"
                                d="M5.12842 7.18421C5.12842 3.21648 8.34278 0 12.3079 0H27.6925C31.6576 0 34.872 3.21648 34.872 7.18421V15.3947C34.872 19.3625 31.6576 22.5789 27.6925 22.5789H12.3079C8.34278 22.5789 5.12842 19.3625 5.12842 15.3947V7.18421Z"
                                fill="#B01212" />
                        </g>
                    </g>
                </g>
                <defs>
                    <clipPath id="clip0_153_4774">
                        <rect width="648" height="525" fill="white" />
                    </clipPath>
                </defs>
            </svg>
